<?xml version="1.0" encoding="UTF-8"?>
<svg version="1.1" xmlns="http://www.w3.org/2000/svg" width="2258" height="1326">
<path d="M0 0 C1.44591806 -0.00702442 2.89183582 -0.01411122 4.3377533 -0.02125549 C8.92960055 -0.04063811 13.5213972 -0.04568941 18.11328125 -0.046875 C18.89608208 -0.04731686 19.6788829 -0.04775871 20.48540497 -0.04821396 C43.53860195 -0.05503637 66.46008437 0.11747745 89.37109375 2.94989014 C91.526463 3.21553376 93.68299289 3.46982983 95.83984375 3.72314453 C178.29535257 13.53044948 257.90908248 39.53770196 452.73852539 167.65942383 C453.99246426 168.80667538 455.25939046 169.93976473 456.53295898 171.06518555 C463.38064069 177.13011588 469.87739798 183.50123518 476.33129883 189.97827148 C478.11752795 191.7698845 479.90907472 193.55605555 481.70117188 195.34179688 C487.49058123 201.12784461 493.13041342 206.95548253 498.42578125 213.203125 C500.60314195 215.6098732 502.79121993 218.00526672 504.99255798 220.39009202 C507.42578125 223.203125 507.42578125 223.203125 509.38582587 226.06802925 C513.3795303 231.83097372 513.3795303 231.83097372 519.31886924 235.21750588 C522.76234962 235.60703116 526.05585582 235.64661486 529.52062321 235.56668186 C531.48014399 235.58735406 531.48014399 235.58735406 533.47925106 235.60844389 C537.10228501 235.64512867 540.72197017 235.61348946 544.34481638 235.57058961 C548.28685602 235.5360925 552.2285044 235.56561948 556.17056507 235.58700937 C563.07828489 235.61569745 569.98499947 235.60362736 576.89265633 235.56484413 C587.16427145 235.50737217 597.43517457 235.51301448 607.70689899 235.53167714 C624.98758905 235.56132678 642.2678659 235.54010205 659.54849434 235.49022102 C676.66442405 235.44104051 693.78012873 235.41546228 710.89613152 235.42107964 C711.96045253 235.4214196 713.02477355 235.42175956 714.12134672 235.42210982 C719.52667458 235.42397292 724.93200214 235.42627901 730.33732974 235.42876964 C768.6308104 235.44575535 806.92410311 235.41328856 845.2175293 235.3503418 C882.39982444 235.28939269 919.58206117 235.24577043 956.7644043 235.22924805 C958.48262543 235.22846976 958.48262543 235.22846976 960.2355581 235.22767575 C985.27084826 235.21641366 1010.30613916 235.2090253 1035.34143115 235.20333929 C1041.97935504 235.20181721 1048.6172789 235.20020375 1055.25520276 235.19855965 C1060.71996365 235.19720659 1066.18472453 235.19591173 1071.64948546 235.19475465 C1098.41393692 235.18890461 1125.17831567 235.1684419 1151.94273842 235.12857538 C1153.49841714 235.12626133 1153.49841714 235.12626133 1155.08552372 235.12390053 C1156.63481513 235.12159448 1156.63481513 235.12159448 1158.21540536 235.11924183 C1171.19625107 235.10029118 1184.17710402 235.08813528 1197.15795846 235.07693721 C1207.36989075 235.06779333 1217.58177702 235.05258924 1227.79368674 235.0291871 C1234.61055054 235.01407056 1241.42739837 235.00606672 1248.24427851 235.00384676 C1252.13107368 235.0023427 1256.01779151 234.99756874 1259.90456445 234.98387039 C1264.08867639 234.96916664 1268.27264334 234.96989225 1272.45678043 234.9721384 C1273.66693334 234.9653444 1274.87708625 234.9585504 1276.12391046 234.95155051 C1282.2526658 234.96859706 1287.56020581 235.39061223 1293.42578125 237.203125 C1294.31716797 235.69685547 1294.31716797 235.69685547 1295.2265625 234.16015625 C1300.90172295 224.73515005 1307.1024405 216.39667754 1314.42578125 208.203125 C1315.65545848 206.76606173 1316.88469908 205.32862458 1318.11328125 203.890625 C1348.8140266 169.19805696 1393.75035493 149.30156455 1439.48828125 145.578125 C1489.20986093 142.55302889 1537.06794332 158.60228869 1574.42578125 191.515625 C1576.1039566 193.06575775 1577.76973046 194.62937794 1579.42578125 196.203125 C1580.18375 196.92024658 1580.18375 196.92024658 1580.95703125 197.65185547 C1591.26197728 207.46446784 1599.78992331 217.96469123 1607.55078125 229.890625 C1607.94168945 230.49124756 1608.33259766 231.09187012 1608.73535156 231.71069336 C1611.42578125 235.95136381 1611.42578125 235.95136381 1611.42578125 238.203125 C1610.02734375 239.43310547 1610.02734375 239.43310547 1608.05078125 240.8203125 C1606.95636719 241.59761719 1606.95636719 241.59761719 1605.83984375 242.390625 C1605.04320313 242.9475 1604.2465625 243.504375 1603.42578125 244.078125 C1601.75820289 245.2617374 1600.09155317 246.44665912 1598.42578125 247.6328125 C1597.58273438 248.2319043 1596.7396875 248.83099609 1595.87109375 249.44824219 C1592.34671286 251.97752033 1588.88383646 254.58427594 1585.42578125 257.203125 C1579.12665015 261.9586048 1572.75277355 266.60084563 1566.34545898 271.20922852 C1558.45587002 276.88868815 1550.63509376 282.65986797 1542.81689453 288.43701172 C1538.06873546 291.9440755 1533.31492218 295.44347163 1528.56201172 298.9440918 C1524.53905706 301.90756603 1520.51789306 304.87341593 1516.5 307.84375 C1507.20059578 314.71461208 1497.86253218 321.52196692 1488.42578125 328.203125 C1489.27914062 327.77644531 1490.1325 327.34976562 1491.01171875 326.91015625 C1491.59928955 326.61641113 1492.18686035 326.32266602 1492.79223633 326.02001953 C1494.16720294 325.33245266 1495.54203363 324.64461394 1496.91674805 323.95654297 C1501.47781699 321.67430968 1506.0421688 319.39883508 1510.609375 317.12890625 C1521.01741845 311.95010721 1531.40444252 306.74774909 1541.67114258 301.29345703 C1549.71925181 297.02517401 1557.82368457 292.86765518 1565.92578125 288.703125 C1574.90049223 284.08827041 1583.87400872 279.47280158 1592.80078125 274.765625 C1593.51878906 274.38817139 1594.23679687 274.01071777 1594.9765625 273.62182617 C1598.89460011 271.55721805 1602.79410831 269.46168864 1606.68359375 267.34375 C1607.9977124 266.63496704 1607.9977124 266.63496704 1609.33837891 265.91186523 C1611.02232618 265.00315657 1612.7019624 264.08639791 1614.37646484 263.16040039 C1615.12492676 262.75813232 1615.87338867 262.35586426 1616.64453125 261.94140625 C1617.30388672 261.58087158 1617.96324219 261.22033691 1618.64257812 260.84887695 C1620.42578125 260.203125 1620.42578125 260.203125 1623.42578125 261.203125 C1624.34545898 262.92700195 1624.34545898 262.92700195 1625.109375 265.19140625 C1625.39538574 266.03356689 1625.68139648 266.87572754 1625.97607422 267.7434082 C1626.26885254 268.65823975 1626.56163086 269.57307129 1626.86328125 270.515625 C1627.32178467 271.91977661 1627.32178467 271.91977661 1627.78955078 273.35229492 C1632.36622252 287.82326045 1635.49744924 303.02319341 1635.6640625 318.234375 C1635.67875328 319.35199974 1635.67875328 319.35199974 1635.69374084 320.49220276 C1636.01663819 351.46121299 1630.9746916 377.33084913 1619.42578125 406.203125 C1588.73578125 406.203125 1558.04578125 406.203125 1526.42578125 406.203125 C1554.47578125 410.823125 1582.52578125 415.443125 1611.42578125 420.203125 C1604.75911458 432.42534722 1604.75911458 432.42534722 1599.6484375 438.23046875 C1598.2591329 440.07592272 1598.2591329 440.07592272 1598.453125 442.03515625 C1599.90054172 445.26132605 1601.90845565 448.06657271 1603.92578125 450.953125 C1616.69188988 469.76234838 1626.15483528 490.01753133 1631.42578125 512.203125 C1631.62187988 513.02039063 1631.81797852 513.83765625 1632.02001953 514.6796875 C1637.64317794 539.32411028 1638.32932947 568.50688017 1632.42578125 593.203125 C1632.22710449 594.03585937 1632.02842773 594.86859375 1631.82373047 595.7265625 C1625.72719283 620.35018119 1615.73645171 644.12403624 1600.06640625 664.23046875 C1598.09944402 667.03350342 1598.09944402 667.03350342 1598.95703125 669.78515625 C1600.48250092 672.29650127 1602.1098895 674.57982832 1603.92578125 676.890625 C1617.25465363 694.95221294 1626.25028491 716.41928214 1631.42578125 738.203125 C1631.62187988 739.02039063 1631.81797852 739.83765625 1632.02001953 740.6796875 C1639.53324868 773.60765826 1636.72806711 808.29843595 1626.42578125 840.203125 C1626.08788574 841.26176758 1626.08788574 841.26176758 1625.74316406 842.34179688 C1618.18831309 865.49193811 1605.09562596 886.55653157 1588.42578125 904.203125 C1587.31718438 905.5118852 1586.21287151 906.82428859 1585.11328125 908.140625 C1562.27541763 934.09274275 1527.38737506 953.79612247 1493.42578125 960.203125 C1491.7599147 960.25476237 1490.09092697 960.27431153 1488.42578125 960.203125 C1488.90015625 961.3375 1489.37453125 962.471875 1489.86328125 963.640625 C1494.37444536 977.41154702 1493.38839469 994.29434929 1487.17578125 1007.390625 C1486.82 1008.02355469 1486.46421875 1008.65648437 1486.09765625 1009.30859375 C1484.67373592 1013.32371795 1486.6966836 1017.03032111 1488.36328125 1020.703125 C1494.56538016 1036.04992449 1493.2286003 1051.84556111 1487.58203125 1066.99609375 C1485.50183501 1072.36974136 1485.50183501 1072.36974136 1486.3515625 1077.859375 C1486.80917969 1078.7978125 1487.26679688 1079.73625 1487.73828125 1080.703125 C1494.57961248 1096.32956402 1493.40354254 1112.37616666 1487.58203125 1127.99609375 C1485.50183501 1133.36974136 1485.50183501 1133.36974136 1486.3515625 1138.859375 C1486.80917969 1139.7978125 1487.26679688 1140.73625 1487.73828125 1141.703125 C1494.5894435 1157.35201928 1493.52049798 1174.47185615 1487.42578125 1190.203125 C1487.03261719 1190.87859375 1486.63945312 1191.5540625 1486.234375 1192.25 C1484.85488786 1195.58209455 1486.03805354 1198.23464496 1487.328125 1201.45703125 C1487.66972656 1202.21886719 1488.01132813 1202.98070312 1488.36328125 1203.765625 C1494.08714312 1217.75266201 1494.05419977 1234.63658982 1488.42382812 1248.70703125 C1487.45575656 1250.88903384 1486.46231461 1253.05290935 1485.42578125 1255.203125 C1486.0899707 1255.35869873 1486.75416016 1255.51427246 1487.43847656 1255.67456055 C1518.15565521 1262.93299896 1518.15565521 1262.93299896 1523.42578125 1268.203125 C1524.05078125 1271.015625 1524.05078125 1271.015625 1523.42578125 1274.203125 C1484.58496232 1307.37965783 1304.16522945 1306.39970615 909.55419922 1322.5390625 C908.69518572 1322.56132904 907.83617222 1322.58359558 906.95112801 1322.60653687 C889.53921683 1323.04960935 872.12581904 1323.41573078 854.71118164 1323.73193359 C853.71570187 1323.75004679 852.72022209 1323.76816 851.69457626 1323.78682208 C845.09709578 1323.90654149 838.49958278 1324.02436575 831.90205312 1324.14134121 C828.40976058 1324.20340974 824.91747972 1324.2661072 821.42519951 1324.32886505 C730.22537463 1325.96030658 639.04216818 1326.49799789 517.05355424 1326.4620475 C501.60633044 1326.45311722 486.15913733 1326.45476163 470.71191406 1326.46386719 C389.21815371 1326.51054996 307.73255214 1326.47164743 226.24609375 1325.2734375 C225.52938051 1325.26293228 224.81266726 1325.25242706 224.07423544 1325.24160349 C191.6861152 1324.76579352 159.30058117 1324.15841902 126.91577148 1323.49755859 C125.88545252 1323.47656081 125.88545252 1323.47656081 124.83431903 1323.45513883 C17.69040159 1321.26838798 -89.43892354 1317.96886778 -532.57421875 1274.203125 C-533.19921875 1271.390625 -533.19921875 1271.390625 -532.57421875 1268.203125 C-509.47851217 1248.47554229 -458.95711512 1249.81412582 -430.50950623 1246.40461731 C-412.34107143 1244.22220479 -394.22708938 1241.76949976 -376.13671875 1239.015625 C-374.31448527 1238.74002174 -372.49221969 1238.46463068 -370.66992188 1238.18945312 C-366.3043169 1237.52976677 -361.93914454 1236.86728979 -357.57421875 1236.203125 C-358.06809082 1235.03128662 -358.56196289 1233.85944824 -359.07080078 1232.65209961 C-361.10290027 1226.5197615 -360.84530549 1220.54743684 -360.67925644 1214.14908028 C-360.62782073 1211.97361933 -360.60454254 1209.79952485 -360.58987427 1207.6235199 C-360.5480187 1201.44398934 -360.4946194 1195.2662992 -360.33105469 1189.08862305 C-360.23255143 1185.29071962 -360.19860259 1181.496758 -360.20544815 1177.69764519 C-360.19619647 1176.26256714 -360.16367772 1174.82742254 -360.10622787 1173.39346504 C-359.68773403 1165.55024629 -359.68773403 1165.55024629 -362.84723663 1158.63175392 C-366.40029802 1155.2660977 -370.42366617 1152.76388807 -374.57421875 1150.203125 C-376.03122774 1149.08353452 -377.47489566 1147.94558975 -378.88671875 1146.76953125 C-379.49999023 1146.27179199 -380.11326172 1145.77405273 -380.74511719 1145.26123047 C-381.65052246 1144.52090576 -381.65052246 1144.52090576 -382.57421875 1143.765625 C-383.24227539 1143.2205127 -383.91033203 1142.67540039 -384.59863281 1142.11376953 C-394.61515794 1133.91908029 -404.40764976 1125.55914122 -413.88696289 1116.74682617 C-415.14090176 1115.59957462 -416.40782796 1114.46648527 -417.68139648 1113.34106445 C-424.52907819 1107.27613412 -431.02583548 1100.90501482 -437.47973633 1094.42797852 C-439.26596545 1092.6363655 -441.05751222 1090.85019445 -442.84960938 1089.06445312 C-448.63901873 1083.27840539 -454.27885092 1077.45076747 -459.57421875 1071.203125 C-461.02867392 1069.59544127 -462.4864277 1067.99072785 -463.94921875 1066.390625 C-467.79228173 1062.12702483 -471.46744609 1057.75760227 -475.07421875 1053.29296875 C-476.89425447 1051.04351835 -478.72640757 1048.80838708 -480.57421875 1046.58203125 C-488.10970051 1037.46714006 -495.16303377 1028.08745827 -501.9921875 1018.43359375 C-503.5298531 1016.26567509 -505.08129526 1014.10832619 -506.63671875 1011.953125 C-514.05077463 1001.63472988 -520.91881936 991.02439068 -527.57421875 980.203125 C-527.98269043 979.54070801 -528.39116211 978.87829102 -528.81201172 978.19580078 C-571.19627063 909.22585998 -599.64972222 833.11898473 -619.82421875 710.765625 C-619.90739349 710.00092896 -619.99056824 709.23623291 -620.07626343 708.44836426 C-621.7535851 692.83833224 -622.72976338 677.33225793 -622.77734375 661.62890625 C-622.78436817 660.18298819 -622.79145497 658.73707043 -622.79859924 657.29115295 C-622.81798186 652.6993057 -622.82303316 648.10750905 -622.82421875 643.515625 C-622.82466061 642.73282417 -622.82510246 641.95002335 -622.82555771 641.14350128 C-622.83238012 618.0903043 -622.6598663 595.16882188 -619.82745361 572.2578125 C-619.56180999 570.10244325 -619.30751392 567.94591336 -619.05419922 565.7890625 C-609.24689427 483.33355368 -583.23964179 403.71982377 -455.11791992 208.89038086 C-453.97066837 207.63644199 -452.83757902 206.36951579 -451.7121582 205.09594727 C-445.64722787 198.24826556 -439.27610857 191.75150827 -432.79907227 185.29760742 C-431.00745925 183.5113783 -429.2212882 181.71983153 -427.43554688 179.92773438 C-421.64949914 174.13832502 -415.82186122 168.49849283 -409.57421875 163.203125 C-407.96653502 161.74866983 -406.3618216 160.29091605 -404.76171875 158.828125 C-400.49811858 154.98506202 -396.12869602 151.30989766 -391.6640625 147.703125 C-389.4146121 145.88308928 -387.17948083 144.05093618 -384.953125 142.203125 C-375.83823381 134.66764324 -366.45855202 127.61430998 -356.8046875 120.78515625 C-354.63676884 119.24749065 -352.47941994 117.69604849 -350.32421875 116.140625 C-340.00582363 108.72656912 -329.39548443 101.85852439 -318.57421875 95.203125 C-317.91180176 94.79465332 -317.24938477 94.38618164 -316.56689453 93.96533203 C-247.59695373 51.58107312 -171.49007848 23.12762153 -49.13671875 2.953125 C-48.37202271 2.86995026 -47.60732666 2.78677551 -46.81945801 2.70108032 C-31.20942599 1.02375865 -15.70335168 0.04758037 0 0 Z M1319.42578125 492.203125 C1319.42578125 497.813125 1319.42578125 503.423125 1319.42578125 509.203125 C1330.21282833 513.30190799 1341.03592175 517.18945269 1351.9765625 520.85546875 C1352.71939169 521.1049634 1353.46222088 521.35445805 1354.22756004 521.61151314 C1358.13331993 522.92328896 1362.04015019 524.2318115 1365.94799805 525.53735352 C1369.97444766 526.88320928 1373.99704402 528.24023413 1378.0189333 529.59964657 C1381.13180688 530.64964569 1384.24731045 531.69165747 1387.36360741 532.73144722 C1388.8497913 533.22885833 1390.33497516 533.72926789 1391.81911659 534.2327404 C1393.87839925 534.93048675 1395.94113113 535.61688141 1398.00512695 536.30053711 C1399.17598343 536.69325302 1400.3468399 537.08596893 1401.55317688 537.49058533 C1404.46936266 538.48599941 1404.46936266 538.48599941 1407.42578125 537.203125 C1405.71201294 536.32744873 1405.71201294 536.32744873 1403.96362305 535.43408203 C1399.62595739 533.21729639 1395.28907214 530.99898746 1390.95239258 528.78027344 C1389.09387318 527.82967808 1387.2351568 526.87946771 1385.3762207 525.9296875 C1373.40161684 519.81113484 1361.47010525 513.61833309 1349.57937622 507.33843994 C1343.99808749 504.39614087 1338.3996847 501.48672966 1332.80078125 498.578125 C1332.20426758 498.26697754 1331.60775391 497.95583008 1330.99316406 497.63525391 C1329.25036755 496.72623457 1327.5060721 495.82009078 1325.76171875 494.9140625 C1324.7567334 494.39118652 1323.75174805 493.86831055 1322.71630859 493.32958984 C1320.70164492 492.12957299 1320.70164492 492.12957299 1319.42578125 492.203125 Z M1319.42578125 907.203125 C1319.424045 907.87757725 1319.42230875 908.5520295 1319.42051989 909.24691969 C1319.31751143 949.21262739 1319.2094032 989.17831837 1319.09466431 1029.14399419 C1319.08089459 1033.94178052 1319.06716751 1038.73956698 1319.0534668 1043.53735352 C1319.05073849 1044.49251407 1319.04801019 1045.44767462 1319.04519921 1046.43177944 C1319.00111365 1061.90144165 1318.96048362 1077.3711111 1318.92112864 1092.84078599 C1318.88067567 1108.71185505 1318.83651382 1124.58291066 1318.7889027 1140.45395988 C1318.75963676 1150.24871801 1318.73327028 1160.04347515 1318.71060228 1169.83825081 C1318.69478497 1176.55316163 1318.67536796 1183.268056 1318.65311284 1189.98294855 C1318.64037581 1193.85814977 1318.62923306 1197.73333841 1318.62236214 1201.60855484 C1318.61487126 1205.81003325 1318.59980401 1210.01145054 1318.58399963 1214.21290588 C1318.58302153 1215.43761945 1318.58204342 1216.66233301 1318.58103567 1217.92415911 C1318.55421358 1223.45386343 1318.41858983 1228.75787267 1317.42578125 1234.203125 C1318.07485443 1234.2841597 1318.72392761 1234.3651944 1319.39266968 1234.44868469 C1326.24085361 1235.30439939 1333.0883703 1236.16531538 1339.93554688 1237.02905273 C1342.47998069 1237.34935697 1345.02457354 1237.66840083 1347.56933594 1237.98608398 C1359.98662655 1239.5370241 1372.38165465 1241.09267527 1384.71244812 1243.23574829 C1390.16588482 1244.18105909 1395.60284931 1244.88883964 1401.11328125 1245.390625 C1402.3343457 1245.5134082 1402.3343457 1245.5134082 1403.58007812 1245.63867188 C1408.21863993 1246.08418346 1412.76644722 1246.28421113 1417.42578125 1246.203125 C1417.19181641 1244.7490625 1417.19181641 1244.7490625 1416.953125 1243.265625 C1414.76806922 1228.68818144 1413.9074849 1212.40177184 1421.6171875 1199.15625 C1423.30849274 1195.07097164 1421.03709678 1191.01558612 1419.48828125 1187.140625 C1413.75309865 1171.44213249 1414.42068148 1155.70308063 1420.42578125 1140.203125 C1420.81894531 1139.52765625 1421.21210937 1138.8521875 1421.6171875 1138.15625 C1423.30849274 1134.07097164 1421.03709678 1130.01558612 1419.48828125 1126.140625 C1413.75309865 1110.44213249 1414.42068148 1094.70308063 1420.42578125 1079.203125 C1420.81894531 1078.52765625 1421.21210937 1077.8521875 1421.6171875 1077.15625 C1423.48863271 1072.63585094 1420.52637871 1067.68525132 1418.92578125 1063.390625 C1413.85885512 1048.7381604 1413.93977235 1032.19175523 1420.67578125 1018.015625 C1421.0315625 1017.38269531 1421.38734375 1016.74976563 1421.75390625 1016.09765625 C1423.20563963 1012.00410573 1421.01922672 1007.97087725 1419.48828125 1004.140625 C1414.23872717 989.77140764 1414.85230291 975.92780802 1418.42578125 961.203125 C1417.80348633 961.03296875 1417.18119141 960.8628125 1416.54003906 960.6875 C1380.43430016 950.72364104 1347.99540559 936.01035723 1321.81640625 908.56640625 C1320.6313328 907.08644977 1320.6313328 907.08644977 1319.42578125 907.203125 Z " fill="#444655" transform="translate(622.57421875,-0.203125)"/>
<path d="M0 0 C1.44591806 -0.00702442 2.89183582 -0.01411122 4.3377533 -0.02125549 C8.92960055 -0.04063811 13.5213972 -0.04568941 18.11328125 -0.046875 C18.89608208 -0.04731686 19.6788829 -0.04775871 20.48540497 -0.04821396 C43.53860195 -0.05503637 66.46008437 0.11747745 89.37109375 2.94989014 C91.526463 3.21553376 93.68299289 3.46982983 95.83984375 3.72314453 C178.29535257 13.53044948 257.90908248 39.53770196 452.73852539 167.65942383 C453.99246426 168.80667538 455.25939046 169.93976473 456.53295898 171.06518555 C463.38064069 177.13011588 469.87739798 183.50123518 476.33129883 189.97827148 C478.11752795 191.7698845 479.90907472 193.55605555 481.70117188 195.34179688 C487.49058123 201.12784461 493.13041342 206.95548253 498.42578125 213.203125 C499.88023642 214.81080873 501.3379902 216.41552215 502.80078125 218.015625 C516.42578125 233.11803464 516.42578125 233.11803464 516.42578125 235.203125 C515.69653607 235.2033692 514.96729089 235.2036134 514.21594737 235.20386501 C434.83412915 235.230589 355.45231346 235.26224877 276.07051086 235.31976318 C274.29229029 235.32104945 274.29229029 235.32104945 272.47814607 235.3223617 C246.71543944 235.34102664 220.95273355 235.36057908 195.19002829 235.38104595 C182.55629177 235.39107727 169.92255511 235.40091244 157.28881836 235.41064453 C156.03159916 235.41161634 154.77437996 235.41258814 153.47906321 235.4135894 C112.71742838 235.44500541 71.95580017 235.46346522 31.19415532 235.47521747 C-10.68822863 235.48736118 -52.57058489 235.51255344 -94.45295039 235.55420114 C-100.36640658 235.56007537 -106.2798629 235.56580018 -112.19331932 235.57143402 C-113.35719037 235.57254748 -114.52106142 235.57366094 -115.7202013 235.57480814 C-134.46718884 235.59235865 -153.21415511 235.59612404 -171.96114977 235.59475421 C-190.80101421 235.59367105 -209.64082408 235.60706347 -228.48066781 235.63528928 C-239.67841149 235.65162424 -250.8760318 235.65680293 -262.07378296 235.64609675 C-269.55194264 235.64003995 -277.02999557 235.64843681 -284.50813025 235.6686173 C-288.77035065 235.67970463 -293.03231995 235.68447796 -297.29454116 235.67163745 C-301.17497145 235.66007096 -305.05492024 235.66699196 -308.93530456 235.6884257 C-310.3276042 235.6929181 -311.71994583 235.69077877 -313.11221869 235.68104576 C-326.4659325 235.59465083 -337.60535337 238.74837996 -347.51171875 248.015625 C-358.76377873 260.04368911 -359.8791816 273.46472507 -359.83593178 289.27059364 C-359.83912321 290.79325982 -359.84318769 292.31592437 -359.84804106 293.83858615 C-359.85884572 298.01972346 -359.85728313 302.20077811 -359.85369034 306.38192445 C-359.85198196 310.93171617 -359.86184858 315.48148526 -359.87024438 320.03126752 C-359.8833641 328.00411355 -359.88910202 335.97693838 -359.89000511 343.94979477 C-359.89138143 355.80512735 -359.90416669 367.66042844 -359.91929285 379.51575048 C-359.94441444 399.45850141 -359.96027869 419.4012497 -359.97087479 439.34401321 C-359.98139712 459.09106646 -359.99602919 478.8381096 -360.01615524 498.58515549 C-360.01740411 499.81277134 -360.01865298 501.04038719 -360.01993969 502.30520352 C-360.0263034 508.53959379 -360.03274059 514.77398398 -360.03920607 521.00837414 C-360.08487392 565.17143036 -360.12132091 609.33448986 -360.15234375 653.49755859 C-360.15986607 664.20027674 -360.16742083 674.90299486 -360.17510986 685.60571289 C-360.17558671 686.26950514 -360.17606356 686.93329738 -360.17655486 687.61720454 C-360.1987708 718.48079275 -360.22619794 749.34437569 -360.25496758 780.2079584 C-360.25683545 782.21188242 -360.25870108 784.21580644 -360.26056625 786.21973045 C-360.27293052 799.49994666 -360.28538479 812.78016279 -360.29789873 826.06037886 C-360.32338936 853.11393173 -360.34831318 880.16748511 -360.37289429 907.22103882 C-360.3740252 908.4649291 -360.37515611 909.70881939 -360.37632128 910.99040332 C-360.45178196 994.0613028 -360.51402974 1077.13221323 -360.57421875 1160.203125 C-361.99237935 1159.27000501 -363.40888273 1158.33436614 -364.82470703 1157.39770508 C-365.61370392 1156.87694901 -366.40270081 1156.35619293 -367.21560669 1155.81965637 C-370.78954941 1153.37016897 -374.11619093 1150.65454852 -377.44921875 1147.890625 C-378.14192871 1147.32158447 -378.83463867 1146.75254395 -379.54833984 1146.16625977 C-380.92999448 1145.03101998 -382.31040706 1143.89426653 -383.68945312 1142.75585938 C-386.18112643 1140.7031337 -388.69140776 1138.67358421 -391.19921875 1136.640625 C-408.56852959 1122.37297681 -424.7881734 1107.06944132 -440.69921875 1091.203125 C-441.23841949 1090.66660309 -441.77762024 1090.13008118 -442.3331604 1089.57730103 C-448.3007552 1083.63224736 -454.10736716 1077.61794187 -459.57421875 1071.203125 C-461.02867392 1069.59544127 -462.4864277 1067.99072785 -463.94921875 1066.390625 C-467.79228173 1062.12702483 -471.46744609 1057.75760227 -475.07421875 1053.29296875 C-476.89425447 1051.04351835 -478.72640757 1048.80838708 -480.57421875 1046.58203125 C-488.10970051 1037.46714006 -495.16303377 1028.08745827 -501.9921875 1018.43359375 C-503.5298531 1016.26567509 -505.08129526 1014.10832619 -506.63671875 1011.953125 C-514.05077463 1001.63472988 -520.91881936 991.02439068 -527.57421875 980.203125 C-527.98269043 979.54070801 -528.39116211 978.87829102 -528.81201172 978.19580078 C-571.19627063 909.22585998 -599.64972222 833.11898473 -619.82421875 710.765625 C-619.90739349 710.00092896 -619.99056824 709.23623291 -620.07626343 708.44836426 C-621.7535851 692.83833224 -622.72976338 677.33225793 -622.77734375 661.62890625 C-622.78436817 660.18298819 -622.79145497 658.73707043 -622.79859924 657.29115295 C-622.81798186 652.6993057 -622.82303316 648.10750905 -622.82421875 643.515625 C-622.82466061 642.73282417 -622.82510246 641.95002335 -622.82555771 641.14350128 C-622.83238012 618.0903043 -622.6598663 595.16882188 -619.82745361 572.2578125 C-619.56180999 570.10244325 -619.30751392 567.94591336 -619.05419922 565.7890625 C-609.24689427 483.33355368 -583.23964179 403.71982377 -455.11791992 208.89038086 C-453.97066837 207.63644199 -452.83757902 206.36951579 -451.7121582 205.09594727 C-445.64722787 198.24826556 -439.27610857 191.75150827 -432.79907227 185.29760742 C-431.00745925 183.5113783 -429.2212882 181.71983153 -427.43554688 179.92773438 C-421.64949914 174.13832502 -415.82186122 168.49849283 -409.57421875 163.203125 C-407.96653502 161.74866983 -406.3618216 160.29091605 -404.76171875 158.828125 C-400.49811858 154.98506202 -396.12869602 151.30989766 -391.6640625 147.703125 C-389.4146121 145.88308928 -387.17948083 144.05093618 -384.953125 142.203125 C-375.83823381 134.66764324 -366.45855202 127.61430998 -356.8046875 120.78515625 C-354.63676884 119.24749065 -352.47941994 117.69604849 -350.32421875 116.140625 C-340.00582363 108.72656912 -329.39548443 101.85852439 -318.57421875 95.203125 C-317.91180176 94.79465332 -317.24938477 94.38618164 -316.56689453 93.96533203 C-247.59695373 51.58107312 -171.49007848 23.12762153 -49.13671875 2.953125 C-48.37202271 2.86995026 -47.60732666 2.78677551 -46.81945801 2.70108032 C-31.20942599 1.02375865 -15.70335168 0.04758037 0 0 Z " fill="#F1F1F1" transform="translate(622.57421875,-0.203125)"/>
<path d="M0 0 C1.67817535 1.55013275 3.34394921 3.11375294 5 4.6875 C5.75796875 5.40462158 5.75796875 5.40462158 6.53125 6.13623047 C16.83619603 15.94884284 25.36414206 26.44906623 33.125 38.375 C33.7113623 39.27593384 33.7113623 39.27593384 34.30957031 40.19506836 C37 44.43573881 37 44.43573881 37 46.6875 C35.6015625 47.91748047 35.6015625 47.91748047 33.625 49.3046875 C32.89539062 49.82289063 32.16578125 50.34109375 31.4140625 50.875 C30.21910156 51.7103125 30.21910156 51.7103125 29 52.5625 C27.33242164 53.7461124 25.66577192 54.93103412 24 56.1171875 C22.73542969 57.0158252 22.73542969 57.0158252 21.4453125 57.93261719 C17.92093161 60.46189533 14.45805521 63.06865094 11 65.6875 C4.7008689 70.4429798 -1.6730077 75.08522063 -8.08032227 79.69360352 C-15.96991123 85.37306315 -23.79068749 91.14424297 -31.60888672 96.92138672 C-36.35704579 100.4284505 -41.11085907 103.92784663 -45.86376953 107.4284668 C-49.88672419 110.39194103 -53.90788819 113.35779093 -57.92578125 116.328125 C-67.22518547 123.19898708 -76.56324907 130.00634192 -86 136.6875 C-85.14664063 136.26082031 -84.29328125 135.83414063 -83.4140625 135.39453125 C-82.8264917 135.10078613 -82.2389209 134.80704102 -81.63354492 134.50439453 C-80.25857831 133.81682766 -78.88374762 133.12898894 -77.5090332 132.44091797 C-72.94796426 130.15868468 -68.38361245 127.88321008 -63.81640625 125.61328125 C-53.4083628 120.43448221 -43.02133873 115.23212409 -32.75463867 109.77783203 C-24.70652944 105.50954901 -16.60209668 101.35203018 -8.5 97.1875 C0.47471098 92.57264541 9.44822747 87.95717658 18.375 83.25 C19.09300781 82.87254639 19.81101562 82.49509277 20.55078125 82.10620117 C24.46881886 80.04159305 28.36832706 77.94606364 32.2578125 75.828125 C33.1338916 75.35560303 34.0099707 74.88308105 34.91259766 74.39624023 C36.59654493 73.48753157 38.27618115 72.57077291 39.95068359 71.64477539 C41.07337646 71.04137329 41.07337646 71.04137329 42.21875 70.42578125 C42.87810547 70.06524658 43.53746094 69.70471191 44.21679688 69.33325195 C46 68.6875 46 68.6875 49 69.6875 C49.91967773 71.41137695 49.91967773 71.41137695 50.68359375 73.67578125 C50.96960449 74.51794189 51.25561523 75.36010254 51.55029297 76.2277832 C51.84307129 77.14261475 52.13584961 78.05744629 52.4375 79 C52.74316895 79.93610107 53.04883789 80.87220215 53.36376953 81.83666992 C57.94044127 96.30763545 61.07166799 111.50756841 61.23828125 126.71875 C61.2480751 127.46383316 61.25786896 128.20891632 61.26795959 128.97657776 C61.59085694 159.94558799 56.54891035 185.81522413 45 214.6875 C14.31 214.6875 -16.38 214.6875 -48 214.6875 C-5.925 221.6175 -5.925 221.6175 37 228.6875 C30.33333333 240.90972222 30.33333333 240.90972222 25.22265625 246.71484375 C23.83335165 248.56029772 23.83335165 248.56029772 24.02734375 250.51953125 C25.47476047 253.74570105 27.4826744 256.55094771 29.5 259.4375 C42.26610863 278.24672338 51.72905403 298.50190633 57 320.6875 C57.19609863 321.50476563 57.39219727 322.32203125 57.59423828 323.1640625 C63.21739669 347.80848528 63.90354822 376.99125517 58 401.6875 C57.80132324 402.52023437 57.60264648 403.35296875 57.39794922 404.2109375 C51.30141158 428.83455619 41.31067046 452.60841124 25.640625 472.71484375 C23.67366277 475.51787842 23.67366277 475.51787842 24.53125 478.26953125 C26.05671967 480.78087627 27.68410825 483.06420332 29.5 485.375 C42.82887238 503.43658794 51.82450366 524.90365714 57 546.6875 C57.19609863 547.50476563 57.39219727 548.32203125 57.59423828 549.1640625 C65.10746743 582.09203326 62.30228586 616.78281095 52 648.6875 C51.77473633 649.39326172 51.54947266 650.09902344 51.31738281 650.82617188 C43.76253184 673.97631311 30.66984471 695.04090657 14 712.6875 C12.89140313 713.9962602 11.78709026 715.30866359 10.6875 716.625 C-17.06560474 748.16261902 -60.81896447 769.04047656 -102.63171387 771.86529541 C-108.00833959 772.09350724 -113.38054228 772.11609262 -118.76123047 772.07861328 C-121.49887876 772.0625066 -124.2350516 772.07858738 -126.97265625 772.09765625 C-142.45411051 772.11698813 -157.62389114 770.45815463 -172.5 766 C-173.36399414 765.74581299 -174.22798828 765.49162598 -175.11816406 765.22973633 C-210.7078099 754.39260484 -240.85970841 733.73683033 -264 704.6875 C-264.680625 703.87410156 -265.36125 703.06070313 -266.0625 702.22265625 C-271.41219575 695.77585493 -275.82220933 688.93800094 -280 681.6875 C-280.35707031 681.08115723 -280.71414063 680.47481445 -281.08203125 679.85009766 C-286.3724812 670.7904358 -290.41909155 661.48599411 -294 651.625 C-294.38599365 650.56635742 -294.7719873 649.50771484 -295.16967773 648.41699219 C-297.16056184 642.74623438 -298.29796572 637.63920598 -299 631.6875 C-299.70760982 631.68796794 -300.41521965 631.68843588 -301.14427219 631.68891801 C-378.15386005 631.73973813 -455.16344986 631.78685699 -532.17304993 631.81452942 C-533.32270548 631.81494359 -534.47236103 631.81535776 -535.65685462 631.81578448 C-560.63970484 631.82476242 -585.62255524 631.83307308 -610.60540591 631.84069599 C-622.85632208 631.84443812 -635.1072382 631.84832777 -647.3581543 631.85229492 C-648.57729214 631.8526872 -649.79642998 631.85307948 -651.05251139 631.85348364 C-690.59504586 631.86627627 -730.1375675 631.88881659 -769.6800942 631.91639166 C-810.30242293 631.94466841 -850.92474456 631.96315144 -891.54708297 631.96924497 C-897.27975407 631.97010948 -903.01242514 631.97108639 -908.74509621 631.97213173 C-910.43756672 631.97243513 -910.43756672 631.97243513 -912.16422856 631.97274467 C-930.35450676 631.97629501 -948.54476304 631.99022315 -966.73503229 632.0079961 C-985.00570697 632.02562745 -1003.27635985 632.03241157 -1021.54704275 632.02800413 C-1032.41277298 632.02571589 -1043.27842362 632.03186351 -1054.14413954 632.04989263 C-1061.39330733 632.06110319 -1068.64242272 632.06151868 -1075.89159407 632.05299544 C-1080.027934 632.04844594 -1084.16412292 632.0487425 -1088.30044695 632.06214955 C-1092.05957265 632.07424196 -1095.81842875 632.07265623 -1099.57755006 632.05991993 C-1101.57447331 632.0567491 -1103.57140308 632.06838235 -1105.56829193 632.08052543 C-1107.33964929 632.07041261 -1107.33964929 632.07041261 -1109.14679164 632.06009549 C-1110.67298406 632.0607974 -1110.67298406 632.0607974 -1112.23000864 632.06151349 C-1116.48194778 631.48740246 -1119.1202192 629.78529666 -1121.78125 626.46484375 C-1124.23253503 620.87874228 -1123.71834081 614.63666794 -1123 608.6875 C-1121.42451098 605.28561075 -1119.39102203 603.38301102 -1116 601.6875 C-1114.18582539 601.59258102 -1112.36810328 601.56302141 -1110.55144727 601.5633015 C-1109.38445134 601.56105421 -1108.2174554 601.55880692 -1107.01509595 601.55649152 C-1105.71922582 601.55911854 -1104.4233557 601.56174555 -1103.08821678 601.56445217 C-1101.70278341 601.56371319 -1100.31735022 601.56253531 -1098.93191755 601.56095567 C-1095.09452584 601.55786983 -1091.25716039 601.56107563 -1087.41977063 601.56523381 C-1083.25650535 601.56865366 -1079.09324286 601.56629996 -1074.92997706 601.56465632 C-1067.62335833 601.56257743 -1060.31674772 601.56423511 -1053.01012993 601.56829453 C-1042.14534953 601.57431408 -1031.28057427 601.57463177 -1020.41579251 601.57375254 C-1002.1420756 601.57243665 -983.86836231 601.57578758 -965.59464645 601.58176994 C-947.49331011 601.58768073 -929.39197527 601.59153463 -911.29063797 601.59262276 C-910.16644821 601.5926915 -909.04225845 601.59276024 -907.88400234 601.59283106 C-902.17514383 601.59316938 -896.46628532 601.59347077 -890.75742681 601.59375793 C-850.28912987 601.59586007 -809.8208349 601.60260223 -769.35253906 601.61206055 C-730.03059906 601.62124035 -690.7086596 601.62832623 -651.38671875 601.63256836 C-649.56959431 601.63276565 -649.56959431 601.63276565 -647.71576029 601.63296692 C-635.55056219 601.63428541 -623.3853641 601.63556123 -611.22016599 601.63680578 C-586.43678585 601.63934221 -561.65340573 601.64216346 -536.87002563 601.64515686 C-535.16066023 601.6453628 -535.16066023 601.6453628 -533.41676219 601.64557289 C-457.27784064 601.65477835 -381.13892019 601.6706241 -305 601.6875 C-305.00687332 600.98941727 -305.01374664 600.29133453 -305.02082825 599.57209778 C-305.04845674 596.34625865 -305.06529426 593.12044457 -305.08203125 589.89453125 C-305.09852722 588.2481366 -305.09852722 588.2481366 -305.11535645 586.56848145 C-305.16442717 573.90589782 -303.54414029 561.64921366 -300.44067383 549.38208008 C-300.17080154 548.31242508 -299.90092926 547.24277008 -299.62287903 546.14070129 C-299.41732895 545.33114487 -299.21177887 544.52158844 -299 543.6875 C-299.70760982 543.68796794 -300.41521965 543.68843588 -301.14427219 543.68891801 C-378.15386005 543.73973813 -455.16344986 543.78685699 -532.17304993 543.81452942 C-533.32270548 543.81494359 -534.47236103 543.81535776 -535.65685462 543.81578448 C-560.63970484 543.82476242 -585.62255524 543.83307308 -610.60540591 543.84069599 C-622.85632208 543.84443812 -635.1072382 543.84832777 -647.3581543 543.85229492 C-648.57729214 543.8526872 -649.79642998 543.85307948 -651.05251139 543.85348364 C-690.59504586 543.86627627 -730.1375675 543.88881659 -769.6800942 543.91639166 C-810.30242293 543.94466841 -850.92474456 543.96315144 -891.54708297 543.96924497 C-897.27975407 543.97010948 -903.01242514 543.97108639 -908.74509621 543.97213173 C-910.43756672 543.97243513 -910.43756672 543.97243513 -912.16422856 543.97274467 C-930.35450676 543.97629501 -948.54476304 543.99022315 -966.73503229 544.0079961 C-985.00570697 544.02562745 -1003.27635985 544.03241157 -1021.54704275 544.02800413 C-1032.41277298 544.02571589 -1043.27842362 544.03186351 -1054.14413954 544.04989263 C-1061.39330733 544.06110319 -1068.64242272 544.06151868 -1075.89159407 544.05299544 C-1080.027934 544.04844594 -1084.16412292 544.0487425 -1088.30044695 544.06214955 C-1092.05957265 544.07424196 -1095.81842875 544.07265623 -1099.57755006 544.05991993 C-1101.57447331 544.0567491 -1103.57140308 544.06838235 -1105.56829193 544.08052543 C-1107.33964929 544.07041261 -1107.33964929 544.07041261 -1109.14679164 544.06009549 C-1110.67298406 544.0607974 -1110.67298406 544.0607974 -1112.23000864 544.06151349 C-1116.48194778 543.48740246 -1119.1202192 541.78529666 -1121.78125 538.46484375 C-1124.23253503 532.87874228 -1123.71834081 526.63666794 -1123 520.6875 C-1121.42451098 517.28561075 -1119.39102203 515.38301102 -1116 513.6875 C-1114.17493896 513.59146624 -1112.34631412 513.56077444 -1110.51872844 513.5598495 C-1109.34441312 513.55683353 -1108.17009781 513.55381756 -1106.96019718 513.5507102 C-1105.00409674 513.55336441 -1105.00409674 513.55336441 -1103.00847912 513.55607224 C-1101.61432602 513.55442384 -1100.22017338 513.55233814 -1098.82602152 513.54985213 C-1094.96438864 513.54425968 -1091.10277783 513.54496258 -1087.24114219 513.54662972 C-1083.0515196 513.54735797 -1078.86190338 513.54234461 -1074.67228347 513.5380547 C-1066.34899641 513.53045678 -1058.02571575 513.52828074 -1049.70242559 513.52772565 C-1039.73859431 513.52681378 -1029.77476901 513.52015154 -1019.8109403 513.51337883 C-995.7257505 513.49729863 -971.64056131 513.49141341 -947.55536711 513.48663008 C-936.1682296 513.48429631 -924.7810926 513.48069392 -913.39395549 513.4769347 C-874.43733133 513.46409788 -835.48070746 513.45337842 -796.52408123 513.4499321 C-794.07740412 513.44971046 -791.63072701 513.44948868 -789.18404989 513.44926675 C-786.73136402 513.4490461 -784.27867816 513.44882562 -781.82599229 513.4486053 C-776.90523509 513.44816274 -771.9844779 513.44771563 -767.0637207 513.44726562 C-765.84365379 513.44715623 -764.62358688 513.44704684 -763.36654824 513.44693414 C-723.78887649 513.44330197 -684.21122304 513.42737655 -644.6335583 513.40407526 C-602.81871325 513.37950171 -561.00387866 513.36576043 -519.18902618 513.36456418 C-514.60242037 513.36439272 -510.01581456 513.36417729 -505.42920876 513.36392975 C-503.73510302 513.3638461 -503.73510302 513.3638461 -502.00677292 513.36376075 C-483.79986958 513.36260819 -465.59298496 513.35156882 -447.38608796 513.33704269 C-429.09997232 513.32270517 -410.81388078 513.31942514 -392.52776106 513.32748267 C-381.65313552 513.33195183 -370.77858755 513.32802718 -359.90397213 513.31224416 C-352.64894235 513.30253594 -345.39396726 513.30363238 -338.13893805 513.31368039 C-333.99928827 513.31910262 -329.85978805 513.31968631 -325.72015031 513.30717167 C-321.95804176 513.29589268 -318.19620548 513.29829039 -314.43410669 513.31183875 C-312.43560055 513.31544316 -310.43708469 513.30425008 -308.43860957 513.29254746 C-307.2567837 513.29954557 -306.07495783 513.30654367 -304.85731906 513.31375384 C-303.83905708 513.31350964 -302.8207951 513.31326544 -301.7716767 513.31301384 C-298.51885353 513.75250856 -296.68408119 514.83564267 -294 516.6875 C-293.01 517.3475 -292.02 518.0075 -291 518.6875 C-290.5153125 517.69492187 -290.030625 516.70234375 -289.53125 515.6796875 C-283.37035719 503.15140018 -277.16202513 490.92684317 -268.37109375 479.9921875 C-266.82613063 477.85569213 -266.82613063 477.85569213 -267.03515625 475.7421875 C-268.3787844 472.88085791 -270.13436544 470.48979173 -272 467.9375 C-300.2401071 428.12320629 -310.17359187 379.11742956 -302.13037109 331.31762695 C-298.05626756 308.74376756 -298.05626756 308.74376756 -294 304.6875 C-292.97753174 305.03006836 -291.95506348 305.37263672 -290.90161133 305.72558594 C-287.04602364 307.01689305 -283.18973603 308.30609927 -279.33325195 309.59472656 C-277.67583883 310.14885636 -276.0186068 310.70352816 -274.36157227 311.25878906 C-271.95638681 312.06463892 -269.55051941 312.86842533 -267.14453125 313.671875 C-266.42417191 313.91371521 -265.70381256 314.15555542 -264.96162415 314.40472412 C-260.66982981 315.83547236 -256.36156448 317.19358625 -252.03320312 318.50976562 C-243.74914032 321.04627861 -235.539976 323.79912071 -227.32421875 326.546875 C-225.66132443 327.10179643 -223.99838517 327.65658324 -222.33540344 328.21124268 C-218.00322534 329.65656193 -213.67165141 331.10368333 -209.34020996 332.5512085 C-204.90230737 334.03394706 -200.46382312 335.51494233 -196.02539062 336.99609375 C-187.34969714 339.89154386 -178.6746423 342.78890224 -170 345.6875 C-172.20844962 344.41614483 -174.41798736 343.14674748 -176.62817383 341.87841797 C-177.24606026 341.52245041 -177.86394669 341.16648285 -178.50055695 340.79972839 C-184.12111317 337.57778292 -189.86851664 334.65934536 -195.6875 331.8125 C-203.69905461 327.84882967 -211.65995362 323.81422252 -219.55419922 319.62207031 C-224.25053013 317.13013963 -228.96131743 314.66931703 -233.6875 312.234375 C-244.11602941 306.86134032 -254.51179835 301.50508064 -264.63671875 295.57421875 C-271.60865865 291.66313051 -278.82260659 288.202958 -286 284.6875 C-285.40082752 280.27988878 -283.7693689 277.09092877 -281.5625 273.25 C-281.21775635 272.64816895 -280.8730127 272.04633789 -280.51782227 271.42626953 C-277.40459361 266.114293 -273.85743596 261.15284976 -270.06274414 256.30688477 C-267.70265544 253.29343484 -267.70265544 253.29343484 -266.97265625 249.6484375 C-268.41964354 246.88650738 -270.15946533 244.45545368 -272 241.9375 C-300.31285036 202.02064926 -310.15293706 152.72704255 -302.53466797 104.70703125 C-294.07383646 56.92458192 -266.16011768 14.25648313 -226.75 -13.625 C-157.28131095 -61.39791425 -63.07228107 -55.56850487 0 0 Z " fill="#39B859" transform="translate(2197,191.3125)"/>
<path d="M0 0 C10.89 0 21.78 0 33 0 C33 1.32 33 2.64 33 4 C35.97 4.33 38.94 4.66 42 5 C42 6.32 42 7.64 42 9 C43.65 9 45.3 9 47 9 C47 10.65 47 12.3 47 14 C48.65 14 50.3 14 52 14 C52 15.65 52 17.3 52 19 C53.32 19 54.64 19 56 19 C56.33 21.97 56.66 24.94 57 28 C58.32 28 59.64 28 61 28 C61 42.19 61 56.38 61 71 C59.35 71 57.7 71 56 71 C56 73.97 56 76.94 56 80 C54.68 80 53.36 80 52 80 C52 81.65 52 83.3 52 85 C50.35 85 48.7 85 47 85 C47 86.65 47 88.3 47 90 C45.35 90 43.7 90 42 90 C42 91.32 42 92.64 42 94 C40.35 94 38.7 94 37 94 C37 95.65 37 97.3 37 99 C35.68 99 34.36 99 33 99 C33 100.65 33 102.3 33 104 C31.35 104 29.7 104 28 104 C28 105.32 28 106.64 28 108 C26.35 108 24.7 108 23 108 C23 109.65 23 111.3 23 113 C21.68 113 20.36 113 19 113 C19 114.65 19 116.3 19 118 C17.35 118 15.7 118 14 118 C14 119.65 14 121.3 14 123 C12.35 123 10.7 123 9 123 C9 124.32 9 125.64 9 127 C7.35 127 5.7 127 4 127 C4 128.65 4 130.3 4 132 C2.68 132 1.36 132 0 132 C0 133.65 0 135.3 0 137 C-1.65 137 -3.3 137 -5 137 C-5 138.32 -5 139.64 -5 141 C-6.65 141 -8.3 141 -10 141 C-10 142.65 -10 144.3 -10 146 C-11.32 146 -12.64 146 -14 146 C-14 147.65 -14 149.3 -14 151 C-15.65 151 -17.3 151 -19 151 C-19 152.65 -19 154.3 -19 156 C-20.65 156 -22.3 156 -24 156 C-24 157.32 -24 158.64 -24 160 C-25.65 160 -27.3 160 -29 160 C-29 161.65 -29 163.3 -29 165 C-30.32 165 -31.64 165 -33 165 C-33 166.65 -33 168.3 -33 170 C-34.65 170 -36.3 170 -38 170 C-38 171.32 -38 172.64 -38 174 C-39.65 174 -41.3 174 -43 174 C-43 175.65 -43 177.3 -43 179 C-44.32 179 -45.64 179 -47 179 C-47 180.65 -47 182.3 -47 184 C-48.65 184 -50.3 184 -52 184 C-52 185.32 -52 186.64 -52 188 C-53.65 188 -55.3 188 -57 188 C-57 189.65 -57 191.3 -57 193 C-58.65 193 -60.3 193 -62 193 C-62 196.3 -62 199.6 -62 203 C-60.35 203 -58.7 203 -57 203 C-57 204.32 -57 205.64 -57 207 C-55.35 207 -53.7 207 -52 207 C-52 208.65 -52 210.3 -52 212 C-50.35 212 -48.7 212 -47 212 C-47 213.65 -47 215.3 -47 217 C-45.68 217 -44.36 217 -43 217 C-43 218.65 -43 220.3 -43 222 C-41.35 222 -39.7 222 -38 222 C-38 223.32 -38 224.64 -38 226 C-36.35 226 -34.7 226 -33 226 C-33 227.65 -33 229.3 -33 231 C-31.35 231 -29.7 231 -28 231 C-28 232.65 -28 234.3 -28 236 C-26.68 236 -25.36 236 -24 236 C-24 237.32 -24 238.64 -24 240 C-22.35 240 -20.7 240 -19 240 C-19 241.65 -19 243.3 -19 245 C-17.35 245 -15.7 245 -14 245 C-14 246.65 -14 248.3 -14 250 C-12.68 250 -11.36 250 -10 250 C-10 251.65 -10 253.3 -10 255 C-8.35 255 -6.7 255 -5 255 C-5 256.32 -5 257.64 -5 259 C-3.35 259 -1.7 259 0 259 C0 260.65 0 262.3 0 264 C1.65 264 3.3 264 5 264 C5 265.65 5 267.3 5 269 C6.32 269 7.64 269 9 269 C9 270.32 9 271.64 9 273 C10.65 273 12.3 273 14 273 C14 274.65 14 276.3 14 278 C15.65 278 17.3 278 19 278 C19 279.65 19 281.3 19 283 C20.32 283 21.64 283 23 283 C23 285.97 23 288.94 23 292 C21.68 292 20.36 292 19 292 C19 296.95 19 301.9 19 307 C17.35 307 15.7 307 14 307 C14 309.97 14 312.94 14 316 C12.35 316 10.7 316 9 316 C9 322.27 9 328.54 9 335 C7.35 335 5.7 335 4 335 C4 337.97 4 340.94 4 344 C2.68 344 1.36 344 0 344 C0 350.27 0 356.54 0 363 C-1.65 363 -3.3 363 -5 363 C-5 369.27 -5 375.54 -5 382 C-6.32 382 -7.64 382 -9 382 C-9.33 383.65 -9.66 385.3 -10 387 C-11.32 387 -12.64 387 -14 387 C-14 385.35 -14 383.7 -14 382 C-15.65 382 -17.3 382 -19 382 C-19 380.35 -19 378.7 -19 377 C-20.65 377 -22.3 377 -24 377 C-24 375.35 -24 373.7 -24 372 C-25.32 372 -26.64 372 -28 372 C-28 370.68 -28 369.36 -28 368 C-29.65 368 -31.3 368 -33 368 C-33 366.35 -33 364.7 -33 363 C-34.65 363 -36.3 363 -38 363 C-38 361.35 -38 359.7 -38 358 C-39.32 358 -40.64 358 -42 358 C-42 356.68 -42 355.36 -42 354 C-43.65 354 -45.3 354 -47 354 C-47 352.35 -47 350.7 -47 349 C-48.65 349 -50.3 349 -52 349 C-52 347.35 -52 345.7 -52 344 C-53.65 344 -55.3 344 -57 344 C-57 342.35 -57 340.7 -57 339 C-58.32 339 -59.64 339 -61 339 C-61 337.68 -61 336.36 -61 335 C-62.65 335 -64.3 335 -66 335 C-66 333.35 -66 331.7 -66 330 C-67.65 330 -69.3 330 -71 330 C-71 328.35 -71 326.7 -71 325 C-72.32 325 -73.64 325 -75 325 C-75 323.68 -75 322.36 -75 321 C-76.65 321 -78.3 321 -80 321 C-80 319.35 -80 317.7 -80 316 C-81.65 316 -83.3 316 -85 316 C-85 314.35 -85 312.7 -85 311 C-86.65 311 -88.3 311 -90 311 C-90 309.35 -90 307.7 -90 306 C-91.32 306 -92.64 306 -94 306 C-94 304.68 -94 303.36 -94 302 C-95.65 302 -97.3 302 -99 302 C-99 300.35 -99 298.7 -99 297 C-100.65 297 -102.3 297 -104 297 C-104 295.35 -104 293.7 -104 292 C-105.32 292 -106.64 292 -108 292 C-108 290.68 -108 289.36 -108 288 C-109.65 288 -111.3 288 -113 288 C-113 286.35 -113 284.7 -113 283 C-114.65 283 -116.3 283 -118 283 C-118 281.35 -118 279.7 -118 278 C-119.65 278 -121.3 278 -123 278 C-123 276.35 -123 274.7 -123 273 C-124.32 273 -125.64 273 -127 273 C-127 271.68 -127 270.36 -127 269 C-128.65 269 -130.3 269 -132 269 C-132 267.35 -132 265.7 -132 264 C-133.65 264 -135.3 264 -137 264 C-137 262.68 -137 261.36 -137 260 C-138.65 260 -140.3 260 -142 260 C-142 258.35 -142 256.7 -142 255 C-143.32 255 -144.64 255 -146 255 C-146 253.35 -146 251.7 -146 250 C-147.65 250 -149.3 250 -151 250 C-151 248.35 -151 246.7 -151 245 C-152.65 245 -154.3 245 -156 245 C-156 243.68 -156 242.36 -156 241 C-157.65 241 -159.3 241 -161 241 C-161 239.35 -161 237.7 -161 236 C-162.32 236 -163.64 236 -165 236 C-165 234.35 -165 232.7 -165 231 C-166.65 231 -168.3 231 -170 231 C-170 229.35 -170 227.7 -170 226 C-171.32 226 -172.64 226 -174 226 C-174.33 223.03 -174.66 220.06 -175 217 C-176.32 217 -177.64 217 -179 217 C-179 214.03 -179 211.06 -179 208 C-180.65 208 -182.3 208 -184 208 C-184 201.73 -184 195.46 -184 189 C-182.35 189 -180.7 189 -179 189 C-179 184.38 -179 179.76 -179 175 C-177.68 175 -176.36 175 -175 175 C-175 171.7 -175 168.4 -175 165 C-173.35 165 -171.7 165 -170 165 C-170 163.35 -170 161.7 -170 160 C-168.35 160 -166.7 160 -165 160 C-165 158.68 -165 157.36 -165 156 C-163.35 156 -161.7 156 -160 156 C-160 154.35 -160 152.7 -160 151 C-158.68 151 -157.36 151 -156 151 C-156 149.35 -156 147.7 -156 146 C-154.35 146 -152.7 146 -151 146 C-151 144.35 -151 142.7 -151 141 C-149.35 141 -147.7 141 -146 141 C-146 139.68 -146 138.36 -146 137 C-144.68 137 -143.36 137 -142 137 C-142 135.35 -142 133.7 -142 132 C-140.35 132 -138.7 132 -137 132 C-137 130.35 -137 128.7 -137 127 C-135.35 127 -133.7 127 -132 127 C-132 125.68 -132 124.36 -132 123 C-130.35 123 -128.7 123 -127 123 C-127 121.35 -127 119.7 -127 118 C-125.68 118 -124.36 118 -123 118 C-123 116.35 -123 114.7 -123 113 C-121.35 113 -119.7 113 -118 113 C-118 111.35 -118 109.7 -118 108 C-116.35 108 -114.7 108 -113 108 C-113 106.68 -113 105.36 -113 104 C-111.68 104 -110.36 104 -109 104 C-109 102.35 -109 100.7 -109 99 C-107.35 99 -105.7 99 -104 99 C-104 97.35 -104 95.7 -104 94 C-102.35 94 -100.7 94 -99 94 C-99 92.68 -99 91.36 -99 90 C-97.35 90 -95.7 90 -94 90 C-94 88.35 -94 86.7 -94 85 C-92.68 85 -91.36 85 -90 85 C-90 83.35 -90 81.7 -90 80 C-88.35 80 -86.7 80 -85 80 C-85 78.35 -85 76.7 -85 75 C-83.35 75 -81.7 75 -80 75 C-80 73.68 -80 72.36 -80 71 C-78.68 71 -77.36 71 -76 71 C-76 69.35 -76 67.7 -76 66 C-72.7 66 -69.4 66 -66 66 C-66 64.35 -66 62.7 -66 61 C-64.68 61 -63.36 61 -62 61 C-61.67 59.35 -61.34 57.7 -61 56 C-59.68 56 -58.36 56 -57 56 C-57 54.68 -57 53.36 -57 52 C-55.35 52 -53.7 52 -52 52 C-52 50.35 -52 48.7 -52 47 C-50.35 47 -48.7 47 -47 47 C-47 45.35 -47 43.7 -47 42 C-45.68 42 -44.36 42 -43 42 C-43 40.68 -43 39.36 -43 38 C-41.35 38 -39.7 38 -38 38 C-38 36.35 -38 34.7 -38 33 C-36.35 33 -34.7 33 -33 33 C-33 31.35 -33 29.7 -33 28 C-31.68 28 -30.36 28 -29 28 C-29 26.68 -29 25.36 -29 24 C-27.35 24 -25.7 24 -24 24 C-24 22.35 -24 20.7 -24 19 C-22.35 19 -20.7 19 -19 19 C-19 17.35 -19 15.7 -19 14 C-17.35 14 -15.7 14 -14 14 C-14 12.35 -14 10.7 -14 9 C-12.68 9 -11.36 9 -10 9 C-10 7.68 -10 6.36 -10 5 C-6.7 5 -3.4 5 0 5 C0 3.35 0 1.7 0 0 Z " fill="#4073F6" transform="translate(593,533)"/>
<path d="M0 0 C6.27 0 12.54 0 19 0 C19 1.32 19 2.64 19 4 C21.97 4 24.94 4 28 4 C28 5.65 28 7.3 28 9 C29.65 9 31.3 9 33 9 C33 10.65 33 12.3 33 14 C34.65 14 36.3 14 38 14 C38 15.65 38 17.3 38 19 C39.32 19 40.64 19 42 19 C42.33 21.97 42.66 24.94 43 28 C44.32 28 45.64 28 47 28 C47 35.92 47 43.84 47 52 C45.35 52 43.7 52 42 52 C42 56.62 42 61.24 42 66 C40.68 66 39.36 66 38 66 C38 72.27 38 78.54 38 85 C36.35 85 34.7 85 33 85 C33 89.62 33 94.24 33 99 C31.35 99 29.7 99 28 99 C28 103.62 28 108.24 28 113 C26.35 113 24.7 113 23 113 C23 115.97 23 118.94 23 122 C21.68 122 20.36 122 19 122 C19 128.27 19 134.54 19 141 C17.35 141 15.7 141 14 141 C14 145.62 14 150.24 14 155 C12.35 155 10.7 155 9 155 C9 159.62 9 164.24 9 169 C7.68 169 6.36 169 5 169 C5.01160156 170.03640625 5.02320313 171.0728125 5.03515625 172.140625 C5.04453837 173.51041486 5.05363812 174.88020668 5.0625 176.25 C5.07087891 176.93191406 5.07925781 177.61382813 5.08789062 178.31640625 C5.10428392 181.69342554 5.05628768 184.77291639 4 188 C2.68 188 1.36 188 0 188 C0 192.95 0 197.9 0 203 C-1.32 203 -2.64 203 -4 203 C-4.33 207.62 -4.66 212.24 -5 217 C-6.32 217 -7.64 217 -9 217 C-9 221.62 -9 226.24 -9 231 C-10.65 231 -12.3 231 -14 231 C-14 233.97 -14 236.94 -14 240 C-15.65 240 -17.3 240 -19 240 C-19 246.27 -19 252.54 -19 259 C-20.32 259 -21.64 259 -23 259 C-23.33 263.62 -23.66 268.24 -24 273 C-25.32 273 -26.64 273 -28 273 C-27.98839844 273.67546875 -27.97679687 274.3509375 -27.96484375 275.046875 C-27.95582031 275.93890625 -27.94679688 276.8309375 -27.9375 277.75 C-27.92589844 278.63171875 -27.91429687 279.5134375 -27.90234375 280.421875 C-27.99173802 282.7818838 -28.33087179 284.74498524 -29 287 C-30.32 287 -31.64 287 -33 287 C-33 293.27 -33 299.54 -33 306 C-34.65 306 -36.3 306 -38 306 C-38 310.62 -38 315.24 -38 320 C-39.32 320 -40.64 320 -42 320 C-41.98839844 321.03640625 -41.97679687 322.0728125 -41.96484375 323.140625 C-41.95546163 324.51041486 -41.94636188 325.88020668 -41.9375 327.25 C-41.92912109 327.93191406 -41.92074219 328.61382813 -41.91210938 329.31640625 C-41.89571608 332.69342554 -41.94371232 335.77291639 -43 339 C-44.32 339 -45.64 339 -47 339 C-47 340.65 -47 342.3 -47 344 C-48.65 344 -50.3 344 -52 344 C-52 348.62 -52 353.24 -52 358 C-53.65 358 -55.3 358 -57 358 C-57 365.92 -57 373.84 -57 382 C-58.32 382 -59.64 382 -61 382 C-61 384.97 -61 387.94 -61 391 C-62.65 391 -64.3 391 -66 391 C-66 395.62 -66 400.24 -66 405 C-67.65 405 -69.3 405 -71 405 C-71 409.62 -71 414.24 -71 419 C-72.65 419 -74.3 419 -76 419 C-76 423.62 -76 428.24 -76 433 C-77.32 433 -78.64 433 -80 433 C-80 439.27 -80 445.54 -80 452 C-81.65 452 -83.3 452 -85 452 C-85 456.95 -85 461.9 -85 467 C-86.65 467 -88.3 467 -90 467 C-90 471.62 -90 476.24 -90 481 C-91.32 481 -92.64 481 -94 481 C-94 485.62 -94 490.24 -94 495 C-95.65 495 -97.3 495 -99 495 C-99 499.62 -99 504.24 -99 509 C-100.65 509 -102.3 509 -104 509 C-104 513.62 -104 518.24 -104 523 C-105.32 523 -106.64 523 -108 523 C-107.98839844 523.95261719 -107.97679687 524.90523437 -107.96484375 525.88671875 C-107.95582031 527.14097656 -107.94679688 528.39523437 -107.9375 529.6875 C-107.92589844 530.92886719 -107.91429687 532.17023437 -107.90234375 533.44921875 C-107.98521327 536.46235454 -108.29160551 539.08275339 -109 542 C-110.32 542 -111.64 542 -113 542 C-113 543.65 -113 545.3 -113 547 C-114.65 547 -116.3 547 -118 547 C-118 548.32 -118 549.64 -118 551 C-119.65 551 -121.3 551 -123 551 C-123 552.65 -123 554.3 -123 556 C-124.32 556 -125.64 556 -127 556 C-127 557.65 -127 559.3 -127 561 C-139.54 561 -152.08 561 -165 561 C-165 559.35 -165 557.7 -165 556 C-166.65 556 -168.3 556 -170 556 C-170 554.35 -170 552.7 -170 551 C-171.65 551 -173.3 551 -175 551 C-175 549.68 -175 548.36 -175 547 C-176.32 547 -177.64 547 -179 547 C-179 543.7 -179 540.4 -179 537 C-180.65 537 -182.3 537 -184 537 C-184 529.41 -184 521.82 -184 514 C-182.35 514 -180.7 514 -179 514 C-179 510.7 -179 507.4 -179 504 C-177.68 504 -176.36 504 -175 504 C-174.67 497.73 -174.34 491.46 -174 485 C-172.68 485 -171.36 485 -170 485 C-170 478.73 -170 472.46 -170 466 C-168.35 466 -166.7 466 -165 466 C-165 463.03 -165 460.06 -165 457 C-163.35 457 -161.7 457 -160 457 C-160 450.73 -160 444.46 -160 438 C-158.68 438 -157.36 438 -156 438 C-155.67 435.03 -155.34 432.06 -155 429 C-153.68 429 -152.36 429 -151 429 C-151 422.73 -151 416.46 -151 410 C-149.35 410 -147.7 410 -146 410 C-146 405.38 -146 400.76 -146 396 C-144.35 396 -142.7 396 -141 396 C-141 392.7 -141 389.4 -141 386 C-139.68 386 -138.36 386 -137 386 C-137 378.41 -137 370.82 -137 363 C-135.35 363 -133.7 363 -132 363 C-132 359.7 -132 356.4 -132 353 C-130.68 353 -129.36 353 -128 353 C-127.67 348.38 -127.34 343.76 -127 339 C-125.35 339 -123.7 339 -122 339 C-122 334.38 -122 329.76 -122 325 C-120.68 325 -119.36 325 -118 325 C-118 318.73 -118 312.46 -118 306 C-116.35 306 -114.7 306 -113 306 C-113 303.03 -113 300.06 -113 297 C-111.68 297 -110.36 297 -109 297 C-108.505 287.595 -108.505 287.595 -108 278 C-106.68 278 -105.36 278 -104 278 C-104.01160156 277.40832031 -104.02320313 276.81664062 -104.03515625 276.20703125 C-104.08322386 271.99768215 -104.06006883 268.1077667 -103 264 C-101.68 264 -100.36 264 -99 264 C-99 256.08 -99 248.16 -99 240 C-97.68 240 -96.36 240 -95 240 C-95 237.03 -95 234.06 -95 231 C-93.35 231 -91.7 231 -90 231 C-90 226.38 -90 221.76 -90 217 C-88.35 217 -86.7 217 -85 217 C-85 213.7 -85 210.4 -85 207 C-83.35 207 -81.7 207 -80 207 C-80 202.38 -80 197.76 -80 193 C-78.68 193 -77.36 193 -76 193 C-75.67 186.73 -75.34 180.46 -75 174 C-73.68 174 -72.36 174 -71 174 C-71 169.38 -71 164.76 -71 160 C-69.35 160 -67.7 160 -66 160 C-66 155.38 -66 150.76 -66 146 C-64.35 146 -62.7 146 -61 146 C-61 139.73 -61 133.46 -61 127 C-59.68 127 -58.36 127 -57 127 C-57 122.38 -57 117.76 -57 113 C-55.35 113 -53.7 113 -52 113 C-52 108.38 -52 103.76 -52 99 C-50.35 99 -48.7 99 -47 99 C-47 94.38 -47 89.76 -47 85 C-45.35 85 -43.7 85 -42 85 C-42 81.7 -42 78.4 -42 75 C-40.68 75 -39.36 75 -38 75 C-38 70.38 -38 65.76 -38 61 C-36.35 61 -34.7 61 -33 61 C-33 54.73 -33 48.46 -33 42 C-31.35 42 -29.7 42 -28 42 C-28 37.38 -28 32.76 -28 28 C-26.68 28 -25.36 28 -24 28 C-24 25.03 -24 22.06 -24 19 C-22.35 19 -20.7 19 -19 19 C-19 17.35 -19 15.7 -19 14 C-17.35 14 -15.7 14 -14 14 C-14 12.35 -14 10.7 -14 9 C-12.68 9 -11.36 9 -10 9 C-10 7.35 -10 5.7 -10 4 C-6.7 4 -3.4 4 0 4 C0 2.68 0 1.36 0 0 Z " fill="#FDFDFD" transform="translate(739,538)"/>
<path d="M0 0 C1.32 0 2.64 0 4 0 C4 1.32 4 2.64 4 4 C5.65 4 7.3 4 9 4 C9 5.65 9 7.3 9 9 C10.65 9 12.3 9 14 9 C14 10.32 14 11.64 14 13 C15.65 13 17.3 13 19 13 C19 14.65 19 16.3 19 18 C20.32 18 21.64 18 23 18 C23 19.65 23 21.3 23 23 C24.65 23 26.3 23 28 23 C28 24.65 28 26.3 28 28 C29.65 28 31.3 28 33 28 C33 29.32 33 30.64 33 32 C34.65 32 36.3 32 38 32 C38 33.65 38 35.3 38 37 C39.32 37 40.64 37 42 37 C42 38.65 42 40.3 42 42 C43.65 42 45.3 42 47 42 C47 43.32 47 44.64 47 46 C48.65 46 50.3 46 52 46 C52 47.65 52 49.3 52 51 C53.32 51 54.64 51 56 51 C56 52.65 56 54.3 56 56 C57.65 56 59.3 56 61 56 C61 57.65 61 59.3 61 61 C62.65 61 64.3 61 66 61 C66 62.32 66 63.64 66 65 C67.65 65 69.3 65 71 65 C71 66.65 71 68.3 71 70 C72.32 70 73.64 70 75 70 C75 71.65 75 73.3 75 75 C76.65 75 78.3 75 80 75 C80 76.32 80 77.64 80 79 C81.65 79 83.3 79 85 79 C85 80.65 85 82.3 85 84 C86.32 84 87.64 84 89 84 C89 85.65 89 87.3 89 89 C90.65 89 92.3 89 94 89 C94 90.65 94 92.3 94 94 C95.65 94 97.3 94 99 94 C99 95.32 99 96.64 99 98 C100.65 98 102.3 98 104 98 C104 99.65 104 101.3 104 103 C105.32 103 106.64 103 108 103 C108 104.65 108 106.3 108 108 C109.65 108 111.3 108 113 108 C113 109.32 113 110.64 113 112 C114.65 112 116.3 112 118 112 C118 113.65 118 115.3 118 117 C119.65 117 121.3 117 123 117 C123 118.65 123 120.3 123 122 C124.32 122 125.64 122 127 122 C127 123.65 127 125.3 127 127 C128.65 127 130.3 127 132 127 C132 128.32 132 129.64 132 131 C133.65 131 135.3 131 137 131 C137 132.65 137 134.3 137 136 C138.32 136 139.64 136 141 136 C141 137.65 141 139.3 141 141 C142.65 141 144.3 141 146 141 C146 142.32 146 143.64 146 145 C147.65 145 149.3 145 151 145 C151 146.65 151 148.3 151 150 C152.32 150 153.64 150 155 150 C155 151.65 155 153.3 155 155 C156.65 155 158.3 155 160 155 C160 156.65 160 158.3 160 160 C161.65 160 163.3 160 165 160 C165 164.62 165 169.24 165 174 C166.32 174 167.64 174 169 174 C169 181.59 169 189.18 169 197 C167.68 197 166.36 197 165 197 C165 200.3 165 203.6 165 207 C163.35 207 161.7 207 160 207 C160 209.97 160 212.94 160 216 C158.35 216 156.7 216 155 216 C155 217.65 155 219.3 155 221 C153.68 221 152.36 221 151 221 C151 222.65 151 224.3 151 226 C149.35 226 147.7 226 146 226 C146 227.32 146 228.64 146 230 C144.35 230 142.7 230 141 230 C141 231.65 141 233.3 141 235 C139.68 235 138.36 235 137 235 C137 236.65 137 238.3 137 240 C135.35 240 133.7 240 132 240 C132 241.65 132 243.3 132 245 C130.35 245 128.7 245 127 245 C127 246.32 127 247.64 127 249 C125.35 249 123.7 249 122 249 C122 250.65 122 252.3 122 254 C120.68 254 119.36 254 118 254 C118 255.65 118 257.3 118 259 C116.35 259 114.7 259 113 259 C113 260.32 113 261.64 113 263 C111.35 263 109.7 263 108 263 C108 264.65 108 266.3 108 268 C106.35 268 104.7 268 103 268 C103 269.65 103 271.3 103 273 C101.68 273 100.36 273 99 273 C99 274.65 99 276.3 99 278 C97.35 278 95.7 278 94 278 C94 279.32 94 280.64 94 282 C92.35 282 90.7 282 89 282 C89 283.65 89 285.3 89 287 C87.68 287 86.36 287 85 287 C85 288.65 85 290.3 85 292 C83.35 292 81.7 292 80 292 C80 293.32 80 294.64 80 296 C78.35 296 76.7 296 75 296 C75 297.65 75 299.3 75 301 C73.35 301 71.7 301 70 301 C70 302.65 70 304.3 70 306 C68.68 306 67.36 306 66 306 C66 307.65 66 309.3 66 311 C64.35 311 62.7 311 61 311 C61 312.32 61 313.64 61 315 C59.35 315 57.7 315 56 315 C56 316.65 56 318.3 56 320 C54.68 320 53.36 320 52 320 C52 321.65 52 323.3 52 325 C50.35 325 48.7 325 47 325 C47 326.32 47 327.64 47 329 C45.35 329 43.7 329 42 329 C42 330.65 42 332.3 42 334 C40.68 334 39.36 334 38 334 C38 335.65 38 337.3 38 339 C36.35 339 34.7 339 33 339 C33 340.65 33 342.3 33 344 C31.35 344 29.7 344 28 344 C28 345.32 28 346.64 28 348 C26.35 348 24.7 348 23 348 C23 349.65 23 351.3 23 353 C21.68 353 20.36 353 19 353 C19 354.65 19 356.3 19 358 C17.35 358 15.7 358 14 358 C14 359.32 14 360.64 14 362 C12.35 362 10.7 362 9 362 C9 363.65 9 365.3 9 367 C7.68 367 6.36 367 5 367 C5 368.65 5 370.3 5 372 C1.7 372 -1.6 372 -5 372 C-5 373.65 -5 375.3 -5 377 C-6.65 377 -8.3 377 -10 377 C-10 378.32 -10 379.64 -10 381 C-22.21 381 -34.42 381 -47 381 C-47 379.68 -47 378.36 -47 377 C-48.65 377 -50.3 377 -52 377 C-52 375.35 -52 373.7 -52 372 C-55.3 372 -58.6 372 -62 372 C-62 370.35 -62 368.7 -62 367 C-63.32 367 -64.64 367 -66 367 C-66 365.35 -66 363.7 -66 362 C-67.65 362 -69.3 362 -71 362 C-71 359.03 -71 356.06 -71 353 C-72.65 353 -74.3 353 -76 353 C-76 340.46 -76 327.92 -76 315 C-74.35 315 -72.7 315 -71 315 C-71 312.03 -71 309.06 -71 306 C-69.35 306 -67.7 306 -66 306 C-66 304.35 -66 302.7 -66 301 C-64.68 301 -63.36 301 -62 301 C-62 299.35 -62 297.7 -62 296 C-60.35 296 -58.7 296 -57 296 C-57 294.68 -57 293.36 -57 292 C-55.35 292 -53.7 292 -52 292 C-52 290.35 -52 288.7 -52 287 C-50.35 287 -48.7 287 -47 287 C-47 285.35 -47 283.7 -47 282 C-45.68 282 -44.36 282 -43 282 C-43 280.35 -43 278.7 -43 277 C-41.35 277 -39.7 277 -38 277 C-38 275.68 -38 274.36 -38 273 C-36.35 273 -34.7 273 -33 273 C-33 271.35 -33 269.7 -33 268 C-31.68 268 -30.36 268 -29 268 C-29 266.35 -29 264.7 -29 263 C-27.35 263 -25.7 263 -24 263 C-24 261.68 -24 260.36 -24 259 C-22.35 259 -20.7 259 -19 259 C-19 257.35 -19 255.7 -19 254 C-17.35 254 -15.7 254 -14 254 C-14 252.35 -14 250.7 -14 249 C-12.68 249 -11.36 249 -10 249 C-10 247.35 -10 245.7 -10 244 C-8.35 244 -6.7 244 -5 244 C-5 242.68 -5 241.36 -5 240 C-3.35 240 -1.7 240 0 240 C0 238.35 0 236.7 0 235 C1.32 235 2.64 235 4 235 C4 233.35 4 231.7 4 230 C5.65 230 7.3 230 9 230 C9 228.68 9 227.36 9 226 C10.65 226 12.3 226 14 226 C14 224.35 14 222.7 14 221 C15.65 221 17.3 221 19 221 C19 219.35 19 217.7 19 216 C20.32 216 21.64 216 23 216 C23 214.35 23 212.7 23 211 C24.65 211 26.3 211 28 211 C28 209.68 28 208.36 28 207 C29.65 207 31.3 207 33 207 C33 205.35 33 203.7 33 202 C34.32 202 35.64 202 37 202 C37 200.35 37 198.7 37 197 C38.65 197 40.3 197 42 197 C42 195.68 42 194.36 42 193 C43.65 193 45.3 193 47 193 C47 191.35 47 189.7 47 188 C48.65 188 50.3 188 52 188 C52 186.35 52 184.7 52 183 C50.35 183 48.7 183 47 183 C47 181.68 47 180.36 47 179 C45.35 179 43.7 179 42 179 C42 177.35 42 175.7 42 174 C40.35 174 38.7 174 37 174 C37 172.35 37 170.7 37 169 C35.68 169 34.36 169 33 169 C33 167.35 33 165.7 33 164 C31.35 164 29.7 164 28 164 C28 162.68 28 161.36 28 160 C26.35 160 24.7 160 23 160 C23 158.35 23 156.7 23 155 C21.68 155 20.36 155 19 155 C19 153.35 19 151.7 19 150 C17.35 150 15.7 150 14 150 C14 148.68 14 147.36 14 146 C12.35 146 10.7 146 9 146 C9 144.35 9 142.7 9 141 C7.35 141 5.7 141 4 141 C4 139.35 4 137.7 4 136 C2.68 136 1.36 136 0 136 C0 134.35 0 132.7 0 131 C-1.65 131 -3.3 131 -5 131 C-5 129.68 -5 128.36 -5 127 C-6.65 127 -8.3 127 -10 127 C-10 125.35 -10 123.7 -10 122 C-11.32 122 -12.64 122 -14 122 C-14 120.35 -14 118.7 -14 117 C-15.65 117 -17.3 117 -19 117 C-19 115.68 -19 114.36 -19 113 C-20.65 113 -22.3 113 -24 113 C-24 111.35 -24 109.7 -24 108 C-25.65 108 -27.3 108 -29 108 C-29 106.35 -29 104.7 -29 103 C-30.32 103 -31.64 103 -33 103 C-33 98.38 -33 93.76 -33 89 C-31.68 89 -30.36 89 -29 89 C-29 84.38 -29 79.76 -29 75 C-27.35 75 -25.7 75 -24 75 C-24 71.7 -24 68.4 -24 65 C-22.35 65 -20.7 65 -19 65 C-19 60.38 -19 55.76 -19 51 C-17.35 51 -15.7 51 -14 51 C-14 44.73 -14 38.46 -14 32 C-12.68 32 -11.36 32 -10 32 C-10 27.38 -10 22.76 -10 18 C-8.35 18 -6.7 18 -5 18 C-5 13.38 -5 8.76 -5 4 C-3.35 4 -1.7 4 0 4 C0 2.68 0 1.36 0 0 Z " fill="#06A744" transform="translate(758,727)"/>
<path d="M0 0 C1.31218506 -0.0112793 2.62437012 -0.02255859 3.97631836 -0.03417969 C5.41845926 -0.02640353 6.86059796 -0.01821092 8.30273438 -0.00964355 C9.83081732 -0.01506733 11.35889504 -0.02219143 12.88696289 -0.03088379 C17.02750517 -0.04908987 21.16764793 -0.042061 25.30819702 -0.02936745 C29.64557963 -0.01922564 33.98292852 -0.0286364 38.3203125 -0.03491211 C45.60357796 -0.04218508 52.88668107 -0.03261004 60.16992188 -0.0135498 C68.5849636 0.00821833 76.99961764 0.0011667 85.41464996 -0.02085543 C92.64541182 -0.03901944 99.87605711 -0.04156287 107.10683441 -0.03110075 C111.42293145 -0.0248713 115.73884638 -0.02401502 120.05493164 -0.0372467 C124.11312975 -0.04881923 128.17082905 -0.04075428 132.22897339 -0.01766968 C133.71645276 -0.01239002 135.20397427 -0.0138837 136.69143677 -0.02272034 C138.7252653 -0.03368693 140.75918579 -0.01748202 142.79296875 0 C143.93004272 0.0015081 145.0671167 0.0030162 146.23864746 0.00457001 C151.37128163 0.8227206 154.4548709 3.38647999 157.73828125 7.29699707 C159.6988017 11.09334056 159.91261798 13.62443066 159.92773438 17.88293457 C159.93156128 18.57048828 159.93538818 19.25804199 159.93933105 19.96643066 C159.94203827 21.41192093 159.93476065 22.85746118 159.91796875 24.30285645 C159.89653688 26.50254589 159.91780561 28.69897045 159.94335938 30.89855957 C159.94071588 32.31002504 159.93559044 33.72148849 159.92773438 35.13293457 C159.92322266 36.4039502 159.91871094 37.67496582 159.9140625 38.98449707 C159.11954633 44.39320337 156.9229469 47.31152594 152.6628418 50.65050507 C148.99956359 52.73364544 146.97000253 53.01032914 142.79296875 53.01586914 C140.82469116 53.03278809 140.82469116 53.03278809 138.81665039 53.05004883 C137.37450949 53.04227267 135.93237079 53.03408006 134.49023438 53.0255127 C132.96215143 53.03093648 131.43407371 53.03806057 129.90600586 53.04675293 C125.76546358 53.06495901 121.62532082 53.05793014 117.48477173 53.04523659 C113.14738912 53.03509478 108.81004023 53.04450554 104.47265625 53.05078125 C97.18939079 53.05805422 89.90628768 53.04847918 82.62304688 53.02941895 C74.20800515 53.00765081 65.79335111 53.01470244 57.37831879 53.03672457 C50.14755693 53.05488858 42.91691164 53.05743201 35.68613434 53.04696989 C31.3700373 53.04074044 27.05412237 53.03988416 22.73803711 53.05311584 C18.679839 53.06468837 14.6221397 53.05662342 10.56399536 53.03353882 C9.07651599 53.02825916 7.58899448 53.02975284 6.10153198 53.03858948 C4.06770345 53.04955607 2.03378296 53.03335116 0 53.01586914 C-1.13707397 53.01436104 -2.27414795 53.01285294 -3.44567871 53.01129913 C-8.57831288 52.19314854 -11.66190215 49.62938915 -14.9453125 45.71887207 C-16.90583295 41.92252858 -17.11964923 39.39143848 -17.13476562 35.13293457 C-17.13859253 34.44538086 -17.14241943 33.75782715 -17.1463623 33.04943848 C-17.14906952 31.60394821 -17.1417919 30.15840796 -17.125 28.7130127 C-17.10356813 26.51332325 -17.12483686 24.31689869 -17.15039062 22.11730957 C-17.14774713 20.7058441 -17.14262169 19.29438065 -17.13476562 17.88293457 C-17.13025391 16.61191895 -17.12574219 15.34090332 -17.12109375 14.03137207 C-16.32657758 8.62266577 -14.12997815 5.7043432 -9.86987305 2.36536407 C-6.20659484 0.2822237 -4.17703378 0.00554 0 0 Z " fill="#3ECB5E" transform="translate(1746.603515625,1104.4920654296875)"/>
<path d="M0 0 C11.2899688 0.53879448 22.43022795 1.66033512 33.63769531 3.10180664 C36.26037596 3.43883336 38.88397146 3.76784506 41.5078125 4.09570312 C50.37262682 5.21336157 59.20362552 6.41714202 68 8 C68 8.33 68 8.66 68 9 C65.70839681 9.02692484 63.41670454 9.04636124 61.125 9.0625 C59.84882812 9.07410156 58.57265625 9.08570313 57.2578125 9.09765625 C54 9 54 9 52 8 C50.30733038 7.79552804 48.60810792 7.6441975 46.90771484 7.51928711 C45.84676605 7.43927963 44.78581726 7.35927216 43.69271851 7.27684021 C42.54373077 7.19450638 41.39474304 7.11217255 40.2109375 7.02734375 C39.03737701 6.93997452 37.86381653 6.85260529 36.6546936 6.7625885 C32.89507558 6.48360796 29.13505712 6.21049242 25.375 5.9375 C22.83070071 5.74973421 20.28642945 5.56158811 17.7421875 5.37304688 C11.49511065 4.91094623 5.24769487 4.45366406 -1 4 C-0.67 2.68 -0.34 1.36 0 0 Z " fill="#020203" transform="translate(1939,1234)"/>
<path d="M0 0 C1.65 0 3.3 0 5 0 C5 1.32 5 2.64 5 4 C3.68 4 2.36 4 1 4 C1.01160156 5.03640625 1.02320313 6.0728125 1.03515625 7.140625 C1.04453837 8.51041486 1.05363812 9.88020668 1.0625 11.25 C1.07087891 11.93191406 1.07925781 12.61382813 1.08789062 13.31640625 C1.10428392 16.69342554 1.05628768 19.77291639 0 23 C-1.32 23 -2.64 23 -4 23 C-4 26.3 -4 29.6 -4 33 C-5.65 33 -7.3 33 -9 33 C-9 29.7 -9 26.4 -9 23 C-7.68 23 -6.36 23 -5 23 C-5.01160156 22.40832031 -5.02320313 21.81664062 -5.03515625 21.20703125 C-5.08322386 16.99768215 -5.06006883 13.1077667 -4 9 C-2.68 9 -1.36 9 0 9 C0 6.03 0 3.06 0 0 Z " fill="#888889" transform="translate(564,1019)"/>
<path d="M0 0 C6.27 0 12.54 0 19 0 C19 1.32 19 2.64 19 4 C21.97 4 24.94 4 28 4 C28 5.65 28 7.3 28 9 C26.68 9 25.36 9 24 9 C24 7.68 24 6.36 24 5 C14.43 5 4.86 5 -5 5 C-5 6.32 -5 7.64 -5 9 C-6.65 9 -8.3 9 -10 9 C-10 7.35 -10 5.7 -10 4 C-6.7 4 -3.4 4 0 4 C0 2.68 0 1.36 0 0 Z " fill="#B2B2B2" transform="translate(739,538)"/>
<path d="M0 0 C1.32 0 2.64 0 4 0 C4 2.97 4 5.94 4 9 C2.68 9 1.36 9 0 9 C0 13.62 0 18.24 0 23 C-1.65 23 -3.3 23 -5 23 C-4.98839844 23.67546875 -4.97679687 24.3509375 -4.96484375 25.046875 C-4.95130859 26.38492188 -4.95130859 26.38492188 -4.9375 27.75 C-4.92589844 28.63171875 -4.91429687 29.5134375 -4.90234375 30.421875 C-4.99173802 32.7818838 -5.33087179 34.74498524 -6 37 C-7.32 37 -8.64 37 -10 37 C-10 34.03 -10 31.06 -10 28 C-8.68 28 -7.36 28 -6 28 C-6.01160156 27.32453125 -6.02320313 26.6490625 -6.03515625 25.953125 C-6.04869141 24.61507812 -6.04869141 24.61507812 -6.0625 23.25 C-6.07410156 22.36828125 -6.08570313 21.4865625 -6.09765625 20.578125 C-6.00826198 18.2181162 -5.66912821 16.25501476 -5 14 C-3.68 14 -2.36 14 -1 14 C-1.01160156 13.32453125 -1.02320313 12.6490625 -1.03515625 11.953125 C-1.04417969 11.06109375 -1.05320312 10.1690625 -1.0625 9.25 C-1.07410156 8.36828125 -1.08570313 7.4865625 -1.09765625 6.578125 C-1.00826198 4.2181162 -0.66912821 2.25501476 0 0 Z " fill="#A3A2A4" transform="translate(617,854)"/>
<path d="M0 0 C1.65 0 3.3 0 5 0 C5 3.3 5 6.6 5 10 C3.68 10 2.36 10 1 10 C1 15.94 1 21.88 1 28 C-0.65 28.33 -2.3 28.66 -4 29 C-4 31.97 -4 34.94 -4 38 C-5.65 38 -7.3 38 -9 38 C-9 36.35 -9 34.7 -9 33 C-7.68 33 -6.36 33 -5 33 C-5.01160156 32.40832031 -5.02320313 31.81664062 -5.03515625 31.20703125 C-5.08322386 26.99768215 -5.06006883 23.1077667 -4 19 C-2.68 19 -1.36 19 0 19 C0 12.73 0 6.46 0 0 Z " fill="#909090" transform="translate(720,778)"/>
<path d="M0 0 C1.65 0 3.3 0 5 0 C5 1.65 5 3.3 5 5 C3.68 5 2.36 5 1 5 C0.67 9.62 0.34 14.24 0 19 C-1.32 19 -2.64 19 -4 19 C-3.98839844 19.95261719 -3.97679687 20.90523437 -3.96484375 21.88671875 C-3.95582031 23.14097656 -3.94679688 24.39523437 -3.9375 25.6875 C-3.92589844 26.92886719 -3.91429687 28.17023437 -3.90234375 29.44921875 C-3.98521327 32.46235454 -4.29160551 35.08275339 -5 38 C-6.32 38 -7.64 38 -9 38 C-9 34.7 -9 31.4 -9 28 C-7.68 28 -6.36 28 -5 28 C-5 21.73 -5 15.46 -5 9 C-3.35 9 -1.7 9 0 9 C0 6.03 0 3.06 0 0 Z " fill="#9F9EA0" transform="translate(635,797)"/>
<path d="M0 0 C1.65 0 3.3 0 5 0 C5 1.32 5 2.64 5 4 C3.68 4 2.36 4 1 4 C1 10.27 1 16.54 1 23 C-0.65 23 -2.3 23 -4 23 C-4 26.3 -4 29.6 -4 33 C-5.65 33 -7.3 33 -9 33 C-9 29.7 -9 26.4 -9 23 C-7.68 23 -6.36 23 -5 23 C-5 20.03 -5 17.06 -5 14 C-3.35 14 -1.7 14 0 14 C0 9.38 0 4.76 0 0 Z " fill="#CAC8CB" transform="translate(649,755)"/>
<path d="M0 0 C1.65 0 3.3 0 5 0 C5 3.3 5 6.6 5 10 C3.68 10 2.36 10 1 10 C0.67 12.97 0.34 15.94 0 19 C-1.32 19 -2.64 19 -4 19 C-4 25.27 -4 31.54 -4 38 C-5.65 38 -7.3 38 -9 38 C-9 36.35 -9 34.7 -9 33 C-7.68 33 -6.36 33 -5 33 C-5 26.73 -5 20.46 -5 14 C-3.35 14 -1.7 14 0 14 C0 9.38 0 4.76 0 0 Z " fill="#A4A3A4" transform="translate(583,957)"/>
<path d="M0 0 C1.65 0 3.3 0 5 0 C5 3.3 5 6.6 5 10 C3.68 10 2.36 10 1 10 C1 14.62 1 19.24 1 24 C-0.98 24 -2.96 24 -5 24 C-5 20.7 -5 17.4 -5 14 C-3.35 14 -1.7 14 0 14 C0 9.38 0 4.76 0 0 Z " fill="#9F9F9F" transform="translate(687,882)"/>
<path d="M0 0 C1.65 0 3.3 0 5 0 C5 3.3 5 6.6 5 10 C3.68 10 2.36 10 1 10 C1 12.97 1 15.94 1 19 C-0.65 19 -2.3 19 -4 19 C-3.98839844 19.67546875 -3.97679687 20.3509375 -3.96484375 21.046875 C-3.95130859 22.38492188 -3.95130859 22.38492188 -3.9375 23.75 C-3.92589844 24.63171875 -3.91429687 25.5134375 -3.90234375 26.421875 C-3.99173802 28.7818838 -4.33087179 30.74498524 -5 33 C-6.32 33 -7.64 33 -9 33 C-9 31.35 -9 29.7 -9 28 C-7.68 28 -6.36 28 -5 28 C-5 23.38 -5 18.76 -5 14 C-3.35 14 -1.7 14 0 14 C0 9.38 0 4.76 0 0 Z " fill="#909090" transform="translate(753,679)"/>
<path d="M0 0 C1.65 0 3.3 0 5 0 C5 3.3 5 6.6 5 10 C6.32 10 7.64 10 9 10 C9 11.32 9 12.64 9 14 C10.65 14 12.3 14 14 14 C14 15.65 14 17.3 14 19 C12.35 19 10.7 19 9 19 C9 17.68 9 16.36 9 15 C7.35 15 5.7 15 4 15 C4 13.35 4 11.7 4 10 C2.68 10 1.36 10 0 10 C0 6.7 0 3.4 0 0 Z " fill="#8B8B8B" transform="translate(555,1075)"/>
<path d="M0 0 C0.495 1.485 0.495 1.485 1 3 C-3.60399823 3.40992128 -8.20808702 3.81880615 -12.81225586 4.22680664 C-14.37250137 4.36520646 -15.9327235 4.50387011 -17.49291992 4.64282227 C-26.99130872 5.4885483 -36.48975115 6.2974373 -46 7 C-46 6.67 -46 6.34 -46 6 C-41.73190969 5.30436567 -37.46350924 4.61067446 -33.19482422 3.91870117 C-31.74584644 3.68354449 -30.29695134 3.4478777 -28.84814453 3.21166992 C-26.75315081 2.87020471 -24.65785627 2.53063882 -22.5625 2.19140625 C-21.30566406 1.98717041 -20.04882812 1.78293457 -18.75390625 1.57250977 C-12.46665659 0.61363877 -6.36737236 -0.13265359 0 0 Z " fill="#010101" transform="translate(266,1237)"/>
<path d="M0 0 C6.27 0 12.54 0 19 0 C19 1.65 19 3.3 19 5 C12.73 5 6.46 5 0 5 C0 3.35 0 1.7 0 0 Z " fill="#9B9B9B" transform="translate(583,1099)"/>
<path d="M0 0 C1.65 0 3.3 0 5 0 C5 2.97 5 5.94 5 9 C3.68 9 2.36 9 1 9 C1.01160156 9.95261719 1.02320313 10.90523437 1.03515625 11.88671875 C1.04417969 13.14097656 1.05320312 14.39523437 1.0625 15.6875 C1.07410156 16.92886719 1.08570313 18.17023437 1.09765625 19.44921875 C1.01478673 22.46235454 0.70839449 25.08275339 0 28 C-1.32 28 -2.64 28 -4 28 C-4 25.03 -4 22.06 -4 19 C-2.68 19 -1.36 19 0 19 C0 12.73 0 6.46 0 0 Z " fill="#969597" transform="translate(663,703)"/>
<path d="M0 0 C1.32 0 2.64 0 4 0 C4 2.97 4 5.94 4 9 C2.68 9 1.36 9 0 9 C0.01160156 10.03640625 0.02320313 11.0728125 0.03515625 12.140625 C0.04453837 13.51041486 0.05363812 14.88020668 0.0625 16.25 C0.07087891 16.93191406 0.07925781 17.61382813 0.08789062 18.31640625 C0.10428392 21.69342554 0.05628768 24.77291639 -1 28 C-2.32 28 -3.64 28 -5 28 C-5 25.03 -5 22.06 -5 19 C-3.68 19 -2.36 19 -1 19 C-1.01160156 18.04738281 -1.02320313 17.09476563 -1.03515625 16.11328125 C-1.04417969 14.85902344 -1.05320312 13.60476563 -1.0625 12.3125 C-1.07410156 11.07113281 -1.08570313 9.82976563 -1.09765625 8.55078125 C-1.01478673 5.53764546 -0.70839449 2.91724661 0 0 Z " fill="#B1B1B1" transform="translate(697,849)"/>
<path d="M0 0 C1.65 0 3.3 0 5 0 C5 1.65 5 3.3 5 5 C3.68 5 2.36 5 1 5 C1 9.62 1 14.24 1 19 C-0.65 19 -2.3 19 -4 19 C-4 15.7 -4 12.4 -4 9 C-2.68 9 -1.36 9 0 9 C0 6.03 0 3.06 0 0 Z " fill="#CECECF" transform="translate(644,1014)"/>
<path d="M0 0 C1.65 0 3.3 0 5 0 C5 1.32 5 2.64 5 4 C14.24 4 23.48 4 33 4 C33 2.68 33 1.36 33 0 C34.65 0 36.3 0 38 0 C38 1.65 38 3.3 38 5 C25.46 5 12.92 5 0 5 C0 3.35 0 1.7 0 0 Z " fill="#D1D1D1" transform="translate(574,1094)"/>
<path d="M0 0 C1.65 0 3.3 0 5 0 C5 2.97 5 5.94 5 9 C3.68 9 2.36 9 1 9 C1 12.3 1 15.6 1 19 C-0.65 19 -2.3 19 -4 19 C-4 17.35 -4 15.7 -4 14 C-2.68 14 -1.36 14 0 14 C0 9.38 0 4.76 0 0 Z " fill="#ADADAE" transform="translate(597,915)"/>
<path d="M0 0 C1.65 0 3.3 0 5 0 C5 1.32 5 2.64 5 4 C3.68 4 2.36 4 1 4 C1 10.27 1 16.54 1 23 C-0.65 23 -2.3 23 -4 23 C-4 20.03 -4 17.06 -4 14 C-2.68 14 -1.36 14 0 14 C0 9.38 0 4.76 0 0 Z " fill="#909090" transform="translate(781,590)"/>
<path d="M0 0 C1.65 0 3.3 0 5 0 C5 2.97 5 5.94 5 9 C3.68 9 2.36 9 1 9 C1 12.3 1 15.6 1 19 C-0.65 19 -2.3 19 -4 19 C-4 17.35 -4 15.7 -4 14 C-2.68 14 -1.36 14 0 14 C0 9.38 0 4.76 0 0 Z " fill="#9C9C9D" transform="translate(696,604)"/>
<path d="M0 0 C1.32 0 2.64 0 4 0 C4 3.3 4 6.6 4 10 C2.68 10 1.36 10 0 10 C0 12.97 0 15.94 0 19 C-1.65 19 -3.3 19 -5 19 C-5 17.35 -5 15.7 -5 14 C-3.68 14 -2.36 14 -1 14 C-1.01160156 13.40832031 -1.02320313 12.81664062 -1.03515625 12.20703125 C-1.08322386 7.99768215 -1.06006883 4.1077667 0 0 Z " fill="#B9B8BA" transform="translate(678,910)"/>
<path d="M0 0 C0.33 0 0.66 0 1 0 C1 6.27 1 12.54 1 19 C-0.65 19 -2.3 19 -4 19 C-4 15.7 -4 12.4 -4 9 C-2.68 9 -1.36 9 0 9 C0 6.03 0 3.06 0 0 Z " fill="#969596" transform="translate(644,769)"/>
<path d="M0 0 C1.65 0 3.3 0 5 0 C5 1.65 5 3.3 5 5 C3.68 5 2.36 5 1 5 C1 9.62 1 14.24 1 19 C-0.65 19 -2.3 19 -4 19 C-4 17.35 -4 15.7 -4 14 C-2.68 14 -1.36 14 0 14 C0 9.38 0 4.76 0 0 Z " fill="#B7B7B8" transform="translate(729,750)"/>
<path d="M0 0 C1.65 0 3.3 0 5 0 C5 1.65 5 3.3 5 5 C3.68 5 2.36 5 1 5 C1 9.62 1 14.24 1 19 C-0.65 19 -2.3 19 -4 19 C-4 17.35 -4 15.7 -4 14 C-2.68 14 -1.36 14 0 14 C0 9.38 0 4.76 0 0 Z " fill="#B4B3B5" transform="translate(682,651)"/>
<path d="M0 0 C0.33 0 0.66 0 1 0 C1 6.27 1 12.54 1 19 C-0.65 19 -2.3 19 -4 19 C-4 15.7 -4 12.4 -4 9 C-2.68 9 -1.36 9 0 9 C0 6.03 0 3.06 0 0 Z " fill="#CBCBCB" transform="translate(776,604)"/>
<path d="M0 0 C1.65 0 3.3 0 5 0 C5 1.32 5 2.64 5 4 C3.68 4 2.36 4 1 4 C1.01160156 5.03640625 1.02320313 6.0728125 1.03515625 7.140625 C1.04453837 8.51041486 1.05363812 9.88020668 1.0625 11.25 C1.07087891 11.93191406 1.07925781 12.61382813 1.08789062 13.31640625 C1.10428392 16.69342554 1.05628768 19.77291639 0 23 C-1.32 23 -2.64 23 -4 23 C-4 21.35 -4 19.7 -4 18 C-2.68 18 -1.36 18 0 18 C0 12.06 0 6.12 0 0 Z " fill="#C0C0C1" transform="translate(564,1019)"/>
<path d="M0 0 C1.65 0 3.3 0 5 0 C5 3.3 5 6.6 5 10 C3.68 10 2.36 10 1 10 C1 11.65 1 13.3 1 15 C0.67 15 0.34 15 0 15 C0 10.05 0 5.1 0 0 Z " fill="#CAC9CB" transform="translate(569,1004)"/>
<path d="M0 0 C1.65 0 3.3 0 5 0 C5 1.65 5 3.3 5 5 C3.68 5 2.36 5 1 5 C1.01160156 5.67546875 1.02320313 6.3509375 1.03515625 7.046875 C1.04869141 8.38492188 1.04869141 8.38492188 1.0625 9.75 C1.07410156 10.63171875 1.08570313 11.5134375 1.09765625 12.421875 C1.00826198 14.7818838 0.66912821 16.74498524 0 19 C-1.32 19 -2.64 19 -4 19 C-4 17.35 -4 15.7 -4 14 C-2.68 14 -1.36 14 0 14 C0 9.38 0 4.76 0 0 Z " fill="#AAAAAA" transform="translate(663,957)"/>
<path d="M0 0 C0.33 0 0.66 0 1 0 C1.02714735 2.22909871 1.04646254 4.45829367 1.0625 6.6875 C1.07410156 7.92886719 1.08570313 9.17023437 1.09765625 10.44921875 C1.01478673 13.46235454 0.70839449 16.08275339 0 19 C-1.32 19 -2.64 19 -4 19 C-4 15.7 -4 12.4 -4 9 C-2.68 9 -1.36 9 0 9 C0 6.03 0 3.06 0 0 Z " fill="#AAA9AA" transform="translate(762,651)"/>
<path d="M0 0 C1.65 0 3.3 0 5 0 C5 2.97 5 5.94 5 9 C3.68 9 2.36 9 1 9 C1 10.65 1 12.3 1 14 C0.67 14 0.34 14 0 14 C0 9.38 0 4.76 0 0 Z " fill="#C8C8CA" transform="translate(602,901)"/>
<path d="M0 0 C0.33 0 0.66 0 1 0 C1 4.62 1 9.24 1 14 C-0.65 14 -2.3 14 -4 14 C-4 11.03 -4 8.06 -4 5 C-2.68 5 -1.36 5 0 5 C0 3.35 0 1.7 0 0 Z " fill="#8D8B8D" transform="translate(710,566)"/>
</svg>
