<?xml version="1.0" encoding="UTF-8"?>
<svg version="1.1" xmlns="http://www.w3.org/2000/svg" width="2083" height="1109">
<path d="M0 0 C1.94426495 -0.0070233 3.88852968 -0.01411011 5.83279419 -0.02125549 C12.00832454 -0.04064356 18.18381728 -0.04568939 24.359375 -0.046875 C25.4117762 -0.04731686 26.4641774 -0.04775871 27.54846954 -0.04821396 C58.23968152 -0.05497142 88.81028109 0.0868326 119.39361572 2.94989014 C122.24657825 3.21591871 125.10044556 3.47012818 127.95458984 3.72314453 C218.22909805 11.820966 311.03301592 24.99716757 379.109375 90.203125 C380.23472656 91.26660156 380.23472656 91.26660156 381.3828125 92.3515625 C386.7796463 97.57774543 391.44872619 103.3209038 396.109375 109.203125 C397.28306641 110.63398438 397.28306641 110.63398438 398.48046875 112.09375 C409.25552513 125.54102037 417.86206552 140.65024876 425.17822266 156.22558594 C425.80213436 157.55062128 426.43473384 158.87159849 427.07568359 160.18847656 C458.21021802 224.25168649 460.4572216 302.55144371 454.109375 372.203125 C454.0485675 372.87724426 453.98776001 373.55136353 453.92510986 374.24591064 C447.1458339 448.73964853 430.04316781 522.21520117 407.93041992 593.55175781 C407.10147043 596.22865092 406.27785155 598.9071403 405.45507812 601.5859375 C379.52074314 685.84667063 346.66321654 768.12772636 309.99493408 848.26660156 C309.02605963 850.38531744 308.05961479 852.50513299 307.09326172 854.625 C297.37603688 875.92541999 287.38919287 897.07714646 277.08781433 918.10098267 C274.89049879 922.59012337 272.71837386 927.09052155 270.56640625 931.6015625 C262.12094417 949.28519278 253.25508237 966.72546758 244.2265625 984.1171875 C242.26931748 987.88978392 240.32830261 991.67044132 238.390625 995.453125 C216.69948537 1037.70778717 188.76433758 1071.22236782 142.18652344 1086.5625 C129.68552729 1090.41800234 117.00815812 1091.99348159 104.00024414 1092.96948242 C101.88755306 1093.16734174 101.88755306 1093.16734174 99.109375 1094.203125 C96.96778502 1094.31443772 94.82291128 1094.3654096 92.67852783 1094.385849 C92.01939577 1094.39345674 91.36026371 1094.40106448 90.68115795 1094.40890276 C88.45575483 1094.43339011 86.23035033 1094.45090999 84.00488281 1094.46850586 C82.3980715 1094.48474159 80.79126445 1094.50140294 79.18446159 1094.51845455 C74.75090259 1094.56425497 70.31730636 1094.60396168 65.88368082 1094.64270353 C61.09526118 1094.68558645 56.3068973 1094.73401851 51.51852417 1094.7817688 C43.18899307 1094.86405975 34.85943395 1094.94274182 26.52984619 1095.01907349 C14.40746202 1095.13018283 2.28513975 1095.24716453 -9.83717704 1095.3653692 C-55.60280515 1095.81108599 -101.36871001 1096.22725229 -147.13462973 1096.64174384 C-155.71044298 1096.71944032 -164.28625264 1096.7975248 -172.86206055 1096.87580872 C-176.49214327 1096.9089263 -180.12222604 1096.94203812 -183.75230885 1096.9751457 C-186.15345169 1096.99704784 -188.55459445 1097.01895951 -190.95573711 1097.0408808 C-205.00112215 1097.16904301 -219.04652343 1097.2949453 -233.09196341 1097.41694379 C-241.96887506 1097.49413607 -250.84576793 1097.57328777 -259.72264993 1097.65381598 C-264.82403131 1097.70000125 -269.92541593 1097.74529427 -275.02682877 1097.78787613 C-280.63363807 1097.83480066 -286.24041337 1097.88467984 -291.84716797 1097.93774414 C-292.75570691 1097.94630621 -293.66424586 1097.95486828 -294.60031629 1097.9636898 C-304.82450864 1098.06363577 -315.04576087 1098.21308151 -325.26763916 1098.45480347 C-326.22431158 1098.47740496 -327.18098399 1098.50000645 -328.16664648 1098.52329284 C-329.1307779 1098.5461437 -330.09490932 1098.56899457 -331.08825684 1098.59253788 C-350.85030888 1099.06083621 -370.59495879 1099.26821991 -390.36279297 1099.22900391 C-410.91317109 1099.18877263 -431.4587765 1099.24588487 -452.00830078 1099.44677734 C-452.6683351 1099.45321082 -453.32836943 1099.45964429 -454.00840479 1099.46627271 C-462.27840704 1099.54712307 -470.54835544 1099.63280039 -478.8182881 1099.72045183 C-486.31022393 1099.79972478 -493.80219576 1099.87534484 -501.2941694 1099.9509449 C-515.73998111 1100.09682724 -530.18575687 1100.24602992 -544.63151738 1100.39688897 C-557.11116575 1100.52721359 -569.59082487 1100.65644209 -582.07049561 1100.78460693 C-583.31634809 1100.79740453 -583.31634809 1100.79740453 -584.58736931 1100.81046067 C-587.94733227 1100.84497463 -591.30729526 1100.87948519 -594.66725831 1100.91398948 C-624.5608691 1101.22099739 -654.45444502 1101.53126622 -684.34800121 1101.84353992 C-708.85107835 1102.09948817 -733.35419153 1102.35148844 -757.85734749 1102.59979057 C-775.51373494 1102.77875124 -793.17009596 1102.96013148 -810.82642937 1103.14435005 C-812.82420727 1103.16518647 -814.82198521 1103.1860192 -816.81976318 1103.20684814 C-817.79458039 1103.21701222 -818.76939759 1103.22717629 -819.77375472 1103.23764837 C-826.52560836 1103.30787365 -833.27747848 1103.37633473 -840.02935791 1103.44403076 C-848.08882856 1103.52486475 -856.14826708 1103.60829191 -864.20767474 1103.69518852 C-868.19228218 1103.73808959 -872.17689116 1103.77992798 -876.1615448 1103.81832123 C-889.32209737 1103.94572035 -902.46949184 1104.08211079 -915.61669922 1104.73168945 C-930.15912994 1105.42868613 -944.70411602 1105.25745155 -959.25834656 1105.1960125 C-1000.50347043 1105.02998772 -1041.74232697 1105.38044473 -1082.984375 1105.82421875 C-1083.72264637 1105.83213945 -1084.46091773 1105.84006016 -1085.22156096 1105.84822088 C-1103.51341578 1106.04447689 -1121.80518147 1106.24833121 -1140.0969063 1106.4563237 C-1151.76167768 1106.58894153 -1163.42647754 1106.71868751 -1175.09130859 1106.84594727 C-1175.86145857 1106.85435121 -1176.63160854 1106.86275515 -1177.42509639 1106.87141375 C-1180.52877851 1106.90527674 -1183.63246072 1106.93913164 -1186.73614305 1106.97297474 C-1252.62675382 1107.67753035 -1252.62675382 1107.67753035 -1318.515625 1108.52392578 C-1319.37905486 1108.5361107 -1320.24248472 1108.54829562 -1321.13207912 1108.56084979 C-1329.32484664 1108.67690766 -1337.51751655 1108.79762992 -1345.71008301 1108.92710876 C-1358.16178923 1109.11968545 -1370.61130887 1109.24142707 -1383.06445312 1109.25170898 C-1384.29589302 1109.25334329 -1385.52733292 1109.25497759 -1386.79608917 1109.25666142 C-1393.64823461 1109.25129884 -1400.48297537 1109.14395181 -1407.328125 1108.828125 C-1408.34927021 1108.78261332 -1408.34927021 1108.78261332 -1409.39104462 1108.73618221 C-1413.79295534 1108.46522674 -1417.68473965 1107.48996506 -1421.890625 1106.203125 C-1424.26513253 1105.65930355 -1426.64016549 1105.11777292 -1429.015625 1104.578125 C-1453.53914976 1098.57968995 -1477.31895178 1087.16122094 -1496.890625 1071.203125 C-1497.76074219 1070.50799805 -1497.76074219 1070.50799805 -1498.6484375 1069.79882812 C-1512.38680897 1058.768792 -1523.98394074 1045.89609856 -1534.60693359 1031.88525391 C-1535.86884184 1030.23166931 -1537.15103157 1028.5962779 -1538.44140625 1026.96484375 C-1554.90311369 1006.07359125 -1567.95919146 982.91040334 -1579.890625 959.203125 C-1580.25607422 958.48688965 -1580.62152344 957.7706543 -1580.99804688 957.03271484 C-1604.24483975 911.23018872 -1616.71789888 859.54716577 -1623.140625 808.828125 C-1623.29168701 807.64379883 -1623.44274902 806.45947266 -1623.59838867 805.23925781 C-1624.07735285 801.23141094 -1624.49915483 797.22024895 -1624.890625 793.203125 C-1625.0214296 791.88646851 -1625.0214296 791.88646851 -1625.15487671 790.54321289 C-1626.94547015 771.95239074 -1627.25406419 753.43211805 -1627.20868301 734.77490234 C-1627.20303928 732.41731701 -1627.20022071 730.05973889 -1627.19760132 727.70214844 C-1627.1612142 705.16472427 -1626.78632415 682.77368607 -1624.14385986 660.36785889 C-1623.87679599 658.08491011 -1623.62277591 655.80075285 -1623.37060547 653.51611328 C-1613.67056592 566.43694873 -1589.57107239 481.32505729 -1514.41113281 321.83837891 C-1512.89825988 319.21635731 -1511.41738427 316.57870737 -1509.9453125 313.93359375 C-1503.06688359 301.61691416 -1495.59128441 289.77940132 -1487.77539062 278.03759766 C-1485.93468066 275.26937969 -1484.10657317 272.493225 -1482.28125 269.71484375 C-1468.17484114 248.30562854 -1453.11688019 227.59944913 -1436.3984375 208.14453125 C-1434.03169499 205.3685856 -1431.73680469 202.54749307 -1429.453125 199.703125 C-1425.20225565 194.47889021 -1420.67988966 189.5495102 -1416.078125 184.63671875 C-1413.605028 181.99611639 -1411.20136079 179.30035783 -1408.80078125 176.59375 C-1403.70903599 170.92458483 -1398.36700357 165.52816059 -1392.9699707 160.15209961 C-1391.32321096 158.51072704 -1389.68190405 156.86403681 -1388.04101562 155.21679688 C-1382.49623257 149.66814891 -1376.87685327 144.27796086 -1370.890625 139.203125 C-1369.69871014 138.15831202 -1368.50859353 137.11144394 -1367.3203125 136.0625 C-1359.0571958 128.81788724 -1350.64345085 121.84797496 -1341.890625 115.203125 C-1341.18454102 114.66574707 -1340.47845703 114.12836914 -1339.75097656 113.57470703 C-1288.10304851 74.44241395 -1227.22087518 44.01865016 -1161.890625 38.203125 C-1160.82714844 38.09355469 -1159.76367188 37.98398437 -1158.66796875 37.87109375 C-1105.11810591 33.08415726 -1055.99621828 46.97716236 -1007.77227783 68.98794556 C-994.0094816 75.25965546 -980.04699327 80.87238073 -965.890625 86.203125 C-964.35825195 86.78803711 -964.35825195 86.78803711 -962.79492188 87.38476562 C-909.61246834 107.61684613 -852.62603386 120.02634624 -795.890625 124.203125 C-794.81433838 124.28997559 -793.73805176 124.37682617 -792.62915039 124.46630859 C-777.38611161 125.54479352 -762.10157968 125.4489658 -746.828125 125.453125 C-746.08432461 125.45356686 -745.34052422 125.45400871 -744.57418442 125.45446396 C-720.22697386 125.46203523 -696.11144979 124.85739095 -671.890625 122.203125 C-670.30649485 122.03499614 -668.72234741 121.86703015 -667.13818359 121.69921875 C-575.30363345 111.82768643 -485.90875706 87.58107214 -396.61197853 64.93552494 C-312.04331984 43.48917564 -312.04331984 43.48917564 -272.60412598 34.80090332 C-270.81181576 34.40606131 -269.01973708 34.01016661 -267.22790527 33.61315918 C-199.22989547 18.54980976 -130.28464679 7.77905375 -60.828125 2.515625 C-59.62177399 2.42408142 -59.62177399 2.42408142 -58.39105225 2.33068848 C-38.93351024 0.8733412 -19.51243672 0.04391217 0 0 Z " fill="#EEEEEE" transform="translate(1626.890625,-0.203125)"/>
<path d="M0 0 C7.15723681 1.65262183 14.32083197 3.21740228 21.52905273 4.6328125 C22.27768585 4.78110504 23.02631897 4.92939758 23.79763794 5.08218384 C27.39927034 5.79478909 31.00251913 6.49429253 34.61108398 7.17089844 C57.24688012 11.55075677 76.19880979 21.02437321 89.40795898 40.51953125 C96.15773659 50.86648764 101.82384441 61.89083035 107.53295898 72.83203125 C108.33515869 74.36053711 108.33515869 74.36053711 109.15356445 75.91992188 C121.29864096 99.17597649 133.61896291 124.8132824 133.54467773 151.60546875 C133.54298584 152.40130371 133.54129395 153.19713867 133.53955078 154.01708984 C133.53737549 154.61602051 133.5352002 155.21495117 133.53295898 155.83203125 C134.385271 155.80584717 135.23758301 155.77966309 136.11572266 155.75268555 C139.29323025 155.66721633 142.47015009 155.60466336 145.6484375 155.55737305 C147.02103 155.53230508 148.39349 155.49824043 149.765625 155.45483398 C151.74346595 155.39385594 153.72230082 155.36842116 155.70092773 155.34375 C156.88968506 155.31756592 158.07844238 155.29138184 159.30322266 155.2644043 C163.58166261 156.01634117 164.83873226 157.46741732 167.53295898 160.83203125 C168.14426231 164.17243862 168.14426231 164.17243862 168.12509155 168.05870056 C168.13021663 169.13447502 168.13021663 169.13447502 168.13544524 170.23198229 C168.14099178 172.63048941 168.11101249 175.02722734 168.08129883 177.42553711 C168.07829038 179.1473771 168.0775802 180.86922241 168.07899475 182.59106445 C168.0776229 186.29839119 168.06099119 190.00522715 168.03284836 193.71244621 C167.98939107 199.58504263 167.98612044 205.45724004 167.9894104 211.32997131 C167.9915227 225.92399649 167.94530594 240.51782253 167.88018799 255.11169434 C167.82990006 266.44100431 167.79510061 277.76987383 167.80865824 289.09931093 C167.81390992 294.92572031 167.78695761 300.75078356 167.73508811 306.57695091 C167.70991406 310.22041292 167.71421416 313.86342424 167.72627068 317.50693512 C167.725983 319.18300348 167.71390028 320.85912299 167.68843651 322.53499794 C167.51942659 334.23960369 169.5924239 341.69504051 175.53295898 351.83203125 C175.86295898 352.82203125 176.19295898 353.81203125 176.53295898 354.83203125 C176.53442554 353.83074062 176.53589211 352.82945 176.53740311 351.79781723 C176.57397038 327.45337787 176.63338346 303.10907638 176.71686172 278.76475143 C176.7567 266.99209102 176.78906814 255.21949793 176.80395508 243.44677734 C176.81694679 233.18771171 176.84384785 222.92879389 176.88757205 212.66981149 C176.91024273 207.23588274 176.92586631 201.80213667 176.92484283 196.36815643 C176.92409953 191.25618232 176.94191728 186.14461291 176.97412682 181.03274345 C176.98266325 179.15420056 176.98435052 177.27561246 176.97876167 175.39705849 C176.97215637 172.83622953 176.98995781 170.27670132 177.01397705 167.71600342 C177.00621663 166.96891987 176.99845622 166.22183631 176.99046063 165.45211387 C177.043822 162.24870272 177.22307769 160.25053859 179.15413457 157.64256746 C182.29410402 155.25271962 184.17563311 155.32983623 188.10195827 155.32587337 C188.76354141 155.31976002 189.42512454 155.31364666 190.10675564 155.30734804 C192.33360856 155.29169161 194.55938108 155.30463577 196.78623962 155.31736755 C198.39480702 155.31204475 200.00336944 155.30498061 201.61192232 155.2963205 C206.0399519 155.27763071 210.46764848 155.28401982 214.89569223 155.29447353 C219.66811659 155.30144765 224.4404713 155.28548122 229.21287537 155.2724762 C238.56537084 155.25080079 247.91774481 155.25097217 257.27025717 155.25910174 C264.86976942 155.2653941 272.46924615 155.26427173 280.06875801 155.25782967 C281.14916332 155.25692801 282.22956863 155.25602636 283.34271349 155.25509738 C285.53734871 155.25324623 287.73198392 155.25138367 289.92661912 155.24950982 C310.52095996 155.23291896 331.11523236 155.24166143 351.7095691 155.2584954 C370.56238808 155.27319297 389.41504771 155.25856539 408.26784616 155.22972523 C427.61269664 155.2003521 446.95747352 155.1893529 466.30234534 155.19890743 C468.48934494 155.19993002 470.67634456 155.20092462 472.86334419 155.20189095 C474.47752343 155.20260553 474.47752343 155.20260553 476.12431235 155.20333455 C483.71628981 155.20550147 491.3081978 155.19567985 498.90015984 155.18111992 C508.15008482 155.16362828 517.39980658 155.16366828 526.64972346 155.18647157 C531.37139149 155.19764274 536.09270106 155.2007115 540.81435394 155.18217087 C545.13419877 155.16542597 549.45337085 155.1716351 553.77317161 155.19638766 C555.33840357 155.20129117 556.90368918 155.19770046 558.46887647 155.18490022 C560.59277404 155.16878018 562.71432774 155.18330072 564.83811855 155.20561886 C566.01877909 155.20588855 567.19943963 155.20615824 568.41587776 155.2064361 C572.55742184 156.03763994 574.02611951 157.47297496 576.53295898 160.83203125 C577.1562528 163.69904333 577.1562528 163.69904333 577.15378475 166.91779423 C577.17056771 168.76303467 577.17056771 168.76303467 577.18768972 170.64555269 C577.17480715 172.0076077 577.16145706 173.36965836 577.14768982 174.73170471 C577.15130254 176.18098101 577.1571058 177.63025323 577.16491181 179.07951301 C577.17998439 183.06267701 577.16383141 187.04519904 577.14260519 191.02831256 C577.12514123 195.32351809 577.13648965 199.61865891 577.14427185 203.91387939 C577.15495262 212.32815653 577.1389822 220.74218375 577.11413359 229.1564228 C577.08623052 238.95039431 577.08486069 248.74431492 577.08469058 258.53831958 C577.08350275 276.0098936 577.05851614 293.48135265 577.02001953 310.95288086 C576.98266768 327.91578551 576.96142368 344.87860655 576.95849609 361.84155273 C576.95831328 362.88641295 576.95813047 363.93127317 576.95794212 365.00779582 C576.95776315 366.05082993 576.95758418 367.09386404 576.95739979 368.16850525 C576.95703437 370.26847526 576.956662 372.36844526 576.95628262 374.46841526 C576.9560971 375.50398698 576.95591159 376.5395587 576.95572045 377.60651139 C576.9521519 393.75940415 576.93370198 409.91228395 576.91378937 426.06516357 C576.90676217 431.92441952 576.90198211 437.78367239 576.89882802 443.64293165 C576.89378318 452.93571334 576.88238026 462.22843677 576.85752773 471.52118845 C576.84629038 475.76871633 576.83819221 480.01618686 576.83866119 484.263731 C576.83896872 488.14906919 576.83007366 492.03427157 576.81369317 495.91957425 C576.80936256 497.3279594 576.80841405 498.73635967 576.81111925 500.14474887 C576.81426974 502.05387599 576.80400966 503.96301133 576.7930212 505.87210941 C576.79107028 506.93413486 576.78911936 507.9961603 576.78710932 509.09036833 C576.52939174 511.87051318 576.03191599 513.49810216 574.53295898 515.83203125 C571.40798651 518.00411415 568.71997483 518.0775018 564.97851562 518.06030273 C563.29525429 518.05801414 563.29525429 518.05801414 561.57798767 518.05567932 C559.74778831 518.03585243 559.74778831 518.03585243 557.88061523 518.015625 C556.59953384 518.00824814 555.31845245 518.00087128 553.99855042 517.99327087 C539.36471649 517.88901638 524.73797717 517.43814842 510.11236572 516.9631958 C507.23736725 516.87103003 504.36223037 516.78368771 501.48708153 516.69635963 C486.15992343 516.22971542 470.84529199 515.66479409 455.53295898 514.83203125 C455.53295898 526.71203125 455.53295898 538.59203125 455.53295898 550.83203125 C459.92479492 550.67863281 464.31663086 550.52523437 468.84155273 550.3671875 C480.43674241 549.98309002 492.03047333 549.69538825 503.63061523 549.515625 C504.35088457 549.50425381 505.07115391 549.49288261 505.81324959 549.48116684 C514.29494941 549.34950722 522.77625921 549.2562475 531.25878906 549.20019531 C534.50383822 549.17668182 537.74886857 549.15127045 540.99389648 549.125 C541.79250532 549.11898899 542.59111416 549.11297798 543.41392326 549.10678482 C553.77770878 549.02018865 564.04577602 548.60180867 574.38452148 547.8203125 C610.61773625 545.40185409 634.10889742 556.19669567 664.7565918 574.2237854 C678.35503812 582.10085763 692.58586762 588.91594501 706.65795898 595.89453125 C710.03670971 597.57062188 713.41411568 599.24938127 716.79077148 600.9296875 C717.55720978 601.30875748 718.32364807 601.68782745 719.11331177 602.0783844 C724.4202477 604.71931997 724.4202477 604.71931997 725.53295898 605.83203125 C725.62053901 607.83168107 725.63992475 609.83439235 725.63061523 611.8359375 C725.62578125 613.65834961 725.62578125 613.65834961 725.62084961 615.51757812 C725.6124707 616.79697266 725.6040918 618.07636719 725.59545898 619.39453125 C725.59094727 620.67779297 725.58643555 621.96105469 725.58178711 623.28320312 C725.56995444 626.46619147 725.55346967 629.64908887 725.53295898 632.83203125 C700.32099468 633.09155098 675.10901272 633.34932393 649.89701885 633.60595495 C644.39147658 633.66199766 638.88593475 633.71808323 633.38039398 633.77427292 C579.54900643 634.32364416 525.71752436 634.85623175 471.88551927 635.34173107 C466.99063877 635.38592795 462.09576024 635.4303408 457.20088178 635.47476339 C451.15280214 635.5296447 445.10472155 635.58442094 439.05664062 635.63916016 C437.870451 635.64989626 436.68426138 635.66063236 435.46212661 635.6716938 C421.41893064 635.79868556 407.37571915 635.92362969 393.33247834 636.04556412 C384.4553806 636.12276483 375.57830226 636.20199318 366.701235 636.28262192 C361.59973628 636.32886637 356.49823436 636.37420898 351.39670372 636.41679955 C345.78991165 636.46372496 340.18315347 636.51359403 334.57641602 636.56665039 C333.21360919 636.57949296 333.21360919 636.57949296 331.82327092 636.59259498 C321.59907751 636.69254139 311.37782417 636.84198774 301.15594482 637.08370972 C300.19927241 637.10631121 299.24259999 637.1289127 298.2569375 637.15219909 C297.29280609 637.17504995 296.32867467 637.19790082 295.33532715 637.22144413 C275.5732751 637.68974246 255.82862519 637.89712616 236.06079102 637.85791016 C215.51041289 637.81767888 194.96480748 637.87479112 174.4152832 638.07568359 C173.42523172 638.0853338 173.42523172 638.0853338 172.41517919 638.09517896 C164.14517695 638.17602932 155.87522855 638.26170664 147.60529588 638.34935808 C140.11336006 638.42863103 132.62138822 638.50425109 125.12941459 638.57985115 C110.68360288 638.72573349 96.23782711 638.87493617 81.7920666 639.02579522 C69.31241823 639.15611984 56.83275912 639.28534834 44.35308838 639.41351318 C43.52252006 639.42204492 42.69195174 639.43057665 41.83621468 639.43936692 C38.47625172 639.47388088 35.11628873 639.50839144 31.75632567 639.54289573 C1.86271489 639.84990364 -28.03086103 640.16017247 -57.92441723 640.47244617 C-82.42749437 640.72839442 -106.93060754 640.98039469 -131.4337635 641.22869682 C-149.09015095 641.40765749 -166.74651198 641.58903773 -184.40284538 641.7732563 C-186.40062328 641.79409272 -188.39840122 641.81492545 -190.3961792 641.83575439 C-191.3709964 641.84591847 -192.34581361 641.85608254 -193.35017073 641.86655462 C-200.10202437 641.9367799 -206.85389449 642.00524098 -213.60577393 642.07293701 C-221.66524457 642.153771 -229.7246831 642.23719816 -237.78409076 642.32409477 C-241.76869819 642.36699584 -245.75330717 642.40883423 -249.73796082 642.44722748 C-262.89851339 642.5746266 -276.04590786 642.71101704 -289.19311523 643.3605957 C-303.73554596 644.05759238 -318.28053204 643.8863578 -332.83476257 643.82491875 C-374.07988645 643.65889397 -415.31874299 644.00935098 -456.56079102 644.453125 C-457.29906238 644.4610457 -458.03733375 644.46896641 -458.79797697 644.47712713 C-477.0898318 644.67338314 -495.38159748 644.87723746 -513.67332232 645.08522995 C-525.3380937 645.21784778 -537.00289356 645.34759376 -548.66772461 645.47485352 C-549.43787458 645.48325746 -550.20802456 645.4916614 -551.00151241 645.50032 C-554.10519453 645.53418299 -557.20887673 645.56803789 -560.31255907 645.60188099 C-626.20316984 646.3064366 -626.20316984 646.3064366 -692.09204102 647.15283203 C-692.95547088 647.16501695 -693.81890074 647.17720187 -694.70849514 647.18975604 C-702.90126265 647.30581391 -711.09393256 647.42653617 -719.28649902 647.55601501 C-731.72897124 647.74855538 -744.16961133 647.87280417 -756.61352539 647.88842773 C-758.45518658 647.89245023 -758.45518658 647.89245023 -760.33405304 647.89655399 C-769.73941233 647.89243156 -779.08967742 647.54359272 -788.46704102 646.83203125 C-792.29709783 639.17191763 -791.22338472 627.58407607 -789.7668457 619.36767578 C-786.08888778 609.36313285 -773.65452863 605.14271554 -764.59155273 600.85839844 C-758.3094906 597.84284539 -752.41537481 594.16624509 -746.46942139 590.54571533 C-743.80792053 588.93252471 -741.12948668 587.34877799 -738.45013428 585.76547241 C-726.60026694 578.76285126 -714.84638559 571.60140322 -703.09716797 564.43164062 C-702.22922607 563.90376953 -701.36128418 563.37589844 -700.46704102 562.83203125 C-699.78445724 562.312957 -699.10187347 561.79388275 -698.39860535 561.25907898 C-694.2281058 559.22893356 -690.5143476 559.39234271 -685.93188477 559.3996582 C-684.97076247 559.38946939 -684.00964018 559.37928057 -683.01939297 559.368783 C-679.81438379 559.33846309 -676.60967554 559.32933352 -673.40454102 559.3203125 C-671.13061087 559.30335733 -668.85668974 559.28515287 -666.58277893 559.26577759 C-660.47476818 559.21760121 -654.36679675 559.1880286 -648.25865555 559.16227341 C-643.21600748 559.13867727 -638.17346066 559.10416252 -633.1308794 559.06935596 C-591.24365181 558.78064937 -549.35504874 558.7025125 -507.46704102 558.83203125 C-507.46704102 557.51203125 -507.46704102 556.19203125 -507.46704102 554.83203125 C-505.81704102 554.83203125 -504.16704102 554.83203125 -502.46704102 554.83203125 C-502.46704102 541.63203125 -502.46704102 528.43203125 -502.46704102 514.83203125 C-505.70129883 514.96480469 -508.93555664 515.09757813 -512.26782227 515.234375 C-540.91871126 516.38896518 -569.56187565 517.29263712 -598.2336731 517.70262146 C-603.24827951 517.77521301 -608.26070942 517.8699632 -613.27384949 518.01150513 C-616.31706094 518.09416201 -619.36078816 518.1482724 -622.40454102 518.20703125 C-623.92180786 518.26431396 -623.92180786 518.26431396 -625.46972656 518.32275391 C-626.36473877 518.3335498 -627.25975098 518.3443457 -628.18188477 518.35546875 C-628.92559326 518.37528809 -629.66930176 518.39510742 -630.43554688 518.41552734 C-633.62421538 517.49966174 -634.65665913 515.5372484 -636.46704102 512.83203125 C-636.96843767 509.95219511 -636.96843767 509.95219511 -636.97040558 506.71503353 C-636.98083657 505.47790645 -636.99126756 504.24077936 -637.00201464 502.96616358 C-636.99336673 501.59625005 -636.98434011 500.22633887 -636.97497559 498.85643005 C-636.97958442 497.39890468 -636.98593722 495.94138395 -636.99388456 494.48387295 C-637.01060353 490.47801028 -637.00232006 486.47252811 -636.98993969 482.46666396 C-636.98090204 478.1469085 -636.99485247 473.82721919 -637.00585938 469.50747681 C-637.0236625 461.04512335 -637.01979678 452.58291165 -637.00820881 444.12055259 C-636.99918241 437.24474011 -636.99794705 430.36896741 -637.00230408 423.49315071 C-637.00291701 422.51528053 -637.00352994 421.53741036 -637.00416145 420.52990775 C-637.00544032 418.54351733 -637.00673717 416.55712693 -637.00805181 414.57073653 C-637.01946271 395.93692237 -637.0063356 377.30318688 -636.98485035 358.66938562 C-636.96697611 342.67188501 -636.97008518 326.67450047 -636.98852539 310.67700195 C-637.00991828 292.10920409 -637.01836698 273.54147519 -637.00607634 254.97366673 C-637.00480211 252.99480984 -637.00354463 251.01595294 -637.00230408 249.03709602 C-637.00137842 247.57655632 -637.00137842 247.57655632 -637.00043407 246.08651076 C-636.99697663 239.21641901 -637.00281793 232.34637092 -637.01222229 225.47628593 C-637.02342597 217.10764632 -637.02043655 208.73915683 -636.99909931 200.37053447 C-636.98856728 196.09863301 -636.98450355 191.82698209 -636.99769592 187.55508232 C-637.00958123 183.64742022 -637.00312181 179.74024182 -636.98178571 175.83262385 C-636.97730319 174.41616187 -636.9796228 172.99965936 -636.98928887 171.58322328 C-637.00139013 169.66323928 -636.9866281 167.74314143 -636.97040558 165.82318783 C-636.96975617 164.75508686 -636.96910676 163.68698589 -636.96843767 162.58651823 C-636.32239191 159.03738282 -635.41841002 157.88783706 -632.46704102 155.83203125 C-629.47530895 155.32948393 -629.47530895 155.32948393 -625.89804173 155.32587337 C-625.23645859 155.31976002 -624.57487546 155.31364666 -623.89324436 155.30734804 C-621.66639144 155.29169161 -619.44061892 155.30463577 -617.21376038 155.31736755 C-615.60519298 155.31204475 -613.99663056 155.30498061 -612.38807768 155.2963205 C-607.9600481 155.27763071 -603.53235152 155.28401982 -599.10430777 155.29447353 C-594.33188341 155.30144765 -589.5595287 155.28548122 -584.78712463 155.2724762 C-575.43462916 155.25080079 -566.08225519 155.25097217 -556.72974283 155.25910174 C-549.13023058 155.2653941 -541.53075385 155.26427173 -533.93124199 155.25782967 C-532.31063403 155.25647718 -532.31063403 155.25647718 -530.65728651 155.25509738 C-528.46265129 155.25324623 -526.26801608 155.25138367 -524.07338088 155.24950982 C-503.47904004 155.23291896 -482.88476764 155.24166143 -462.2904309 155.2584954 C-443.43761192 155.27319297 -424.58495229 155.25856539 -405.73215384 155.22972523 C-386.38730336 155.2003521 -367.04252648 155.1893529 -347.69765466 155.19890743 C-345.51065506 155.19993002 -343.32365544 155.20092462 -341.13665581 155.20189095 C-339.52247657 155.20260553 -339.52247657 155.20260553 -337.87568765 155.20333455 C-330.28371019 155.20550147 -322.6918022 155.19567985 -315.09984016 155.18111992 C-305.84991518 155.16362828 -296.60019342 155.16366828 -287.35027654 155.18647157 C-282.62860851 155.19764274 -277.90729894 155.2007115 -273.18564606 155.18217087 C-268.86580123 155.16542597 -264.54662915 155.1716351 -260.22682839 155.19638766 C-258.66159643 155.20129117 -257.09631082 155.19770046 -255.53112353 155.18490022 C-253.40722596 155.16878018 -251.28567226 155.18330072 -249.16188145 155.20561886 C-247.98122091 155.20588855 -246.80056037 155.20615824 -245.58412224 155.2064361 C-241.49347377 156.02742524 -240.00176231 157.57576148 -237.46704102 160.83203125 C-236.8396365 162.93420249 -236.8396365 162.93420249 -236.8361845 165.054883 C-236.82274586 165.86950262 -236.80930723 166.68412224 -236.79546136 167.52342731 C-236.80613462 168.40767216 -236.81680787 169.29191701 -236.82780457 170.20295715 C-236.81527105 171.62431623 -236.81527105 171.62431623 -236.80248433 173.07438964 C-236.78052615 176.25154517 -236.79417052 179.42754798 -236.80761719 182.60473633 C-236.79916601 184.88131591 -236.78852284 187.15788826 -236.77584839 189.43444824 C-236.7476498 195.61793968 -236.75018305 201.80108485 -236.75814223 207.98462129 C-236.76126254 214.44558495 -236.73624684 220.90643742 -236.71418762 227.36735535 C-236.68096102 238.21262082 -236.66512255 249.05776472 -236.66259766 259.90307617 C-236.65994956 271.07303964 -236.64682899 282.24290996 -236.61962891 293.4128418 C-236.61795553 294.10152416 -236.61628215 294.79020652 -236.61455806 295.49975804 C-236.6060985 298.95472577 -236.59743311 302.40969295 -236.58866537 305.86465991 C-236.51621129 334.52043114 -236.48020463 363.17617487 -236.46704102 391.83203125 C-231.55957773 368.82138326 -231.92070154 346.05925151 -231.99126244 322.62958694 C-232.00316305 316.90735409 -231.9890738 311.18519055 -231.97692871 305.46296692 C-231.95038262 290.98179847 -231.956893 276.50071351 -231.96704102 262.01953125 C-231.97801207 246.30678714 -231.98328828 230.59417065 -231.94974661 214.88144857 C-231.93637537 208.08254833 -231.94232442 201.28402284 -231.96311188 194.48514497 C-231.97207224 190.27411927 -231.96464952 186.06323958 -231.95269966 181.85222626 C-231.95056317 179.89784824 -231.95532309 177.94344897 -231.96740532 175.98910713 C-231.9829423 173.3267896 -231.9740953 170.66563636 -231.95910645 168.00334167 C-231.97483979 166.83825877 -231.97483979 166.83825877 -231.99089098 165.64963883 C-231.94762307 162.21159158 -231.71959494 160.18778405 -229.70599747 157.35138798 C-227.23690588 155.67586146 -226.09939245 155.33634791 -223.15167236 155.35101318 C-222.29634415 155.34551453 -221.44101593 155.34001587 -220.55976868 155.33435059 C-219.16470345 155.35592224 -219.16470345 155.35592224 -217.74145508 155.37792969 C-216.75576035 155.37734558 -215.77006561 155.37676147 -214.75450134 155.37615967 C-211.49686452 155.3789461 -208.24014298 155.41006535 -204.98266602 155.44140625 C-202.72394307 155.44886663 -200.46521366 155.45456052 -198.20648193 155.45855713 C-192.26167937 155.47382932 -186.31726774 155.51312528 -180.37261963 155.55737305 C-174.30649097 155.59829128 -168.24029915 155.61656081 -162.17407227 155.63671875 C-150.27155676 155.67961759 -138.3693314 155.74788848 -126.46704102 155.83203125 C-126.07814697 157.03424316 -125.68925293 158.23645508 -125.28857422 159.47509766 C-124.76107539 161.08634548 -124.23331046 162.69750621 -123.70532227 164.30859375 C-123.45109497 165.09693604 -123.19686768 165.88527832 -122.93493652 166.69750977 C-118.66987936 179.6555712 -112.4598417 191.51456491 -103.46704102 201.83203125 C-102.80704102 202.16203125 -102.14704102 202.49203125 -101.46704102 202.83203125 C-99.67740401 198.16391659 -97.9200204 193.4859585 -96.19799805 188.79248047 C-95.62487734 187.25535311 -95.01886947 185.73048141 -94.40063477 184.2109375 C-90.97996248 174.94041985 -90.23541966 161.37235331 -94.40454102 152.26953125 C-98.94475589 144.8997207 -105.14579929 138.46047954 -112.05688477 133.28125 C-115.52195437 129.72019509 -115.83600006 124.92310972 -116.52954102 120.20703125 C-118.06267692 110.8964482 -121.21592388 102.1194052 -124.33056641 93.23779297 C-126.24321609 87.74096091 -127.98154089 82.64286084 -128.46704102 76.83203125 C-128.55727539 76.00058594 -128.64750977 75.16914062 -128.74047852 74.3125 C-129.33872375 60.80596329 -119.22782076 50.28154284 -110.64086914 40.81982422 C-108.07785001 38.0607092 -105.49159163 35.32488898 -102.89111328 32.60107422 C-99.26326209 28.79231877 -95.81768654 24.9379539 -92.52954102 20.83203125 C-66.3118993 -11.75761615 -37.18175485 -8.6138064 0 0 Z " fill="#3F3E56" transform="translate(1000.467041015625,461.16796875)"/>
<path d="M0 0 C0.66158313 -0.00611336 1.32316626 -0.01222672 2.00479737 -0.01852533 C4.23165029 -0.03418176 6.4574228 -0.0212376 8.68428135 -0.00850582 C10.29284874 -0.01382862 11.90141116 -0.02089277 13.50996405 -0.02955288 C17.93799362 -0.04824267 22.3656902 -0.04185355 26.79373395 -0.03139985 C31.56615831 -0.02442572 36.33851302 -0.04039215 41.11091709 -0.05339718 C50.46341257 -0.07507258 59.81578654 -0.07490121 69.16829889 -0.06677163 C76.76781114 -0.06047927 84.36728787 -0.06160164 91.96679974 -0.06804371 C93.5874077 -0.06939619 93.5874077 -0.06939619 95.24075522 -0.070776 C97.43539044 -0.07262714 99.63002565 -0.0744897 101.82466085 -0.07636356 C122.41900169 -0.09295441 143.01327409 -0.08421194 163.60761083 -0.06737798 C182.46042981 -0.0526804 201.31308943 -0.06730799 220.16588788 -0.09614814 C239.51073837 -0.12552127 258.85551525 -0.13652047 278.20038706 -0.12696594 C280.38738667 -0.12594336 282.57438629 -0.12494875 284.76138592 -0.12398243 C286.37556516 -0.12326784 286.37556516 -0.12326784 288.02235408 -0.12253882 C295.61433153 -0.12037191 303.20623952 -0.13019352 310.79820156 -0.14475346 C320.04812654 -0.1622451 329.29784831 -0.1622051 338.54776519 -0.1394018 C343.26943322 -0.12823064 347.99074279 -0.12516187 352.71239567 -0.14370251 C357.0322405 -0.1604474 361.35141258 -0.15423827 365.67121334 -0.12948572 C367.23644529 -0.1245822 368.8017309 -0.12817291 370.3669182 -0.14097316 C372.49081577 -0.1570932 374.61236947 -0.14257265 376.73616028 -0.12025452 C377.91682082 -0.11998483 379.09748135 -0.11971514 380.31391948 -0.11943728 C384.40456796 0.70155187 385.89627941 2.24988811 388.43100071 5.50615788 C389.05840522 7.60832912 389.05840522 7.60832912 389.06185722 9.72900963 C389.07529586 10.54362925 389.0887345 11.35824887 389.10258037 12.19755393 C389.09190711 13.08179878 389.08123385 13.96604363 389.07023716 14.87708378 C389.08277067 16.29844286 389.08277067 16.29844286 389.09555739 17.74851626 C389.11751558 20.92567179 389.10387121 24.10167461 389.09042454 27.27886295 C389.09887572 29.55544253 389.10951888 31.83201488 389.12219334 34.10857487 C389.15039193 40.29206631 389.14785868 46.47521148 389.13989949 52.65874791 C389.13677918 59.11971158 389.16179489 65.58056405 389.1838541 72.04148197 C389.2170807 82.88674745 389.23291917 93.73189135 389.23544407 104.5772028 C389.23809216 115.74716627 389.25121273 126.91703659 389.27841282 138.08696842 C389.2800862 138.77565078 389.28175958 139.46433314 389.28348366 140.17388467 C389.29194322 143.6288524 389.30060862 147.08381957 389.30937636 150.53878653 C389.38183043 179.19455777 389.41783709 207.85030149 389.43100071 236.50615788 C390.08222223 232.49625666 390.72971298 228.48576145 391.37655735 224.47515202 C391.56003979 223.34564373 391.74352222 222.21613544 391.93256474 221.05239964 C393.17126452 213.3568028 394.15404966 205.70545411 394.86850071 197.94365788 C397.41759601 173.59509687 401.00715319 147.28915865 420.80209446 130.49443913 C439.19449826 116.92820208 461.09484613 113.00332494 483.49789524 115.90313053 C489.84629752 116.91407317 496.14768239 118.1507203 502.43100071 119.50615788 C501.97957314 124.51088175 501.46177892 129.48313362 500.67709446 134.44756413 C498.38783103 149.80024143 498.12560497 165.00655714 498.11850071 180.50615788 C498.11353077 182.08108509 498.11353077 182.08108509 498.10846043 183.68782902 C498.08828272 194.51987495 498.3304236 205.14706038 499.69925022 215.89679813 C500.69961376 224.03153506 500.8388707 232.14836279 500.85653782 240.3374567 C500.86848189 242.93955814 500.91796152 245.53931384 500.96811008 248.1409235 C501.17729185 269.85519228 495.38192927 290.30795207 480.02084446 306.18975163 C474.76548739 310.89024445 469.45468875 314.38734031 462.43100071 315.50615788 C462.43100071 316.16615788 462.43100071 316.82615788 462.43100071 317.50615788 C463.73617649 317.92574772 463.73617649 317.92574772 465.06771946 318.35381413 C468.19897423 319.42665984 471.20365559 320.63737905 474.24350071 321.94365788 C487.67125586 327.55920124 500.12884264 329.89170508 514.74350071 329.81865788 C515.93048557 329.81301823 517.11747044 329.80737858 518.34042454 329.80156803 C549.51565411 329.37056424 574.67507949 315.11793291 596.00521946 293.18975163 C601.25998242 287.64428091 605.8788937 281.63138108 610.43100071 275.50615788 C610.86879856 274.91898991 611.30659641 274.33182194 611.75766087 273.726861 C612.19255833 273.14356022 612.62745579 272.56025944 613.07553196 271.95928288 C613.49407444 271.39870182 613.91261692 270.83812077 614.34384251 270.26055241 C615.4862578 268.72490695 616.61910562 267.18215723 617.75131321 265.63897038 C618.58275852 264.58322819 618.58275852 264.58322819 619.43100071 263.50615788 C619.76100071 263.50615788 620.09100071 263.50615788 620.43100071 263.50615788 C620.63015053 270.4337268 619.92169897 276.82155868 618.68100071 283.63115788 C618.49908176 284.64452213 618.31716282 285.65788639 618.12973118 286.70195866 C616.64098783 294.77765275 614.86516316 302.65512686 612.43100071 310.50615788 C612.23312962 311.14617741 612.03525852 311.78619694 611.83139133 312.445611 C607.8713064 325.0082189 602.27734078 336.72500196 596.43100071 348.50615788 C530.21360978 349.07122685 463.77815835 345.51828969 397.74350071 340.94365788 C396.89914463 340.88557957 396.05478855 340.82750126 395.18484592 340.767663 C384.94489408 340.05677671 374.72752643 339.19447242 364.51323032 338.17716312 C350.27637263 336.31592075 350.27637263 336.31592075 337.43100071 341.50615788 C329.32703349 349.25777869 329.34536348 358.05949397 328.89584446 368.59600163 C328.83137875 370.01278957 328.83137875 370.01278957 328.76561069 371.4581995 C328.63006032 374.45321944 328.49920974 377.44842313 328.36850071 380.44365788 C328.27701496 382.48338539 328.18522132 384.52309913 328.09311008 386.5627985 C327.86884368 391.54376584 327.64878992 396.5249033 327.43100071 401.50615788 C293.75918701 402.37314424 260.11337307 402.64034453 226.43100071 402.50615788 C226.43100071 400.85615788 226.43100071 399.20615788 226.43100071 397.50615788 C224.78100071 397.50615788 223.13100071 397.50615788 221.43100071 397.50615788 C221.43100071 383.97615788 221.43100071 370.44615788 221.43100071 356.50615788 C215.16100071 356.83615788 208.89100071 357.16615788 202.43100071 357.50615788 C198.97002403 357.6209714 195.51712931 357.72566744 192.05600071 357.78740788 C191.19571262 357.8058173 190.33542454 357.82422672 189.44906712 357.84319401 C185.8877903 357.91931315 182.32639055 357.98861086 178.76498508 358.05840397 C169.73839973 358.23886945 160.72612572 358.45086283 151.71225071 358.97490788 C137.90767446 359.7666768 124.08042195 360.06505503 110.25957966 360.4424448 C107.90757525 360.50679883 105.55559284 360.57191058 103.20361423 360.63720036 C77.87266566 361.33898947 52.54075138 361.99240198 27.20268345 362.37673283 C22.36925443 362.4511829 17.5378388 362.5490441 12.70576572 362.68563175 C9.63536496 362.7685651 6.56444812 362.82256294 3.49350071 362.88115788 C2.48053928 362.91934635 1.46757786 362.95753483 0.42392063 362.99688053 C-0.91642239 363.01307438 -0.91642239 363.01307438 -2.28384304 363.02959538 C-3.02755154 363.04941471 -3.77126003 363.06923405 -4.53750515 363.08965397 C-7.72617365 362.17378836 -8.75861741 360.21137503 -10.56899929 357.50615788 C-11.07039595 354.62632173 -11.07039595 354.62632173 -11.07236385 351.38916016 C-11.08279484 350.15203307 -11.09322583 348.91490599 -11.10397291 347.6402902 C-11.095325 346.27037667 -11.08629839 344.90046549 -11.07693386 343.53055668 C-11.08154269 342.0730313 -11.08789549 340.61551057 -11.09584284 339.15799958 C-11.1125618 335.1521369 -11.10427833 331.14665474 -11.09189796 327.14079058 C-11.08286031 322.82103512 -11.09681075 318.50134582 -11.10781765 314.18160343 C-11.12562077 305.71924997 -11.12175505 297.25703827 -11.11016709 288.79467922 C-11.10114068 281.91886674 -11.09990532 275.04309404 -11.10426235 268.16727734 C-11.10487528 267.18940716 -11.10548822 266.21153698 -11.10611972 265.20403438 C-11.1073986 263.21764396 -11.10869545 261.23125355 -11.11001009 259.24486316 C-11.12142098 240.611049 -11.10829388 221.9773135 -11.08680862 203.34351224 C-11.06893438 187.34601163 -11.07204345 171.3486271 -11.09048367 155.35112858 C-11.11187656 136.78333072 -11.12032525 118.21560182 -11.10803461 99.64779335 C-11.10676038 97.66893646 -11.1055029 95.69007956 -11.10426235 93.71122265 C-11.10364525 92.73752951 -11.10302815 91.76383637 -11.10239235 90.76063738 C-11.0989349 83.89054564 -11.10477621 77.02049755 -11.11418056 70.15041256 C-11.12538425 61.78177294 -11.12239482 53.41328345 -11.10105759 45.0446611 C-11.09052556 40.77275963 -11.08646183 36.50110871 -11.0996542 32.22920895 C-11.1115395 28.32154684 -11.10508008 24.41436845 -11.08374399 20.50675047 C-11.07926146 19.0902885 -11.08158108 17.67378598 -11.09124714 16.2573499 C-11.10334841 14.3373659 -11.08858637 12.41726805 -11.07236385 10.49731445 C-11.07171444 9.42921349 -11.07106503 8.36111252 -11.07039595 7.26064485 C-9.90103904 0.83663239 -5.92663441 0.00598178 0 0 Z M14.43100071 21.50615788 C14.43100071 122.15615788 14.43100071 222.80615788 14.43100071 326.50615788 C29.25180078 326.55726721 29.25180078 326.55726721 44.01498508 326.03740788 C55.22116193 325.46608208 66.42288637 325.23756972 77.64137363 325.06060123 C81.19455635 325.00446249 84.74765152 324.9442414 88.30075169 324.883111 C97.11621144 324.73223583 105.93177771 324.58802978 114.74734592 324.44365788 C122.23433004 324.32078076 129.72126164 324.195271 137.2081461 324.06646061 C140.66508529 324.00801205 144.12206919 323.95326925 147.579072 323.898736 C158.65686265 323.7144187 169.71212098 323.40047412 180.77830601 322.85785007 C188.67380921 322.47555099 196.55740864 322.30855043 204.46225071 322.22490788 C205.8802655 322.20672542 207.2982749 322.18811802 208.71627903 322.16912174 C213.85881943 322.10111881 219.00144202 322.04065749 224.14407444 321.98009586 C228.53081561 321.92812801 232.91749887 321.87304437 237.3041544 321.8142786 C239.2985905 321.788705 241.29307968 321.76737422 243.28756809 321.74627018 C251.85056738 321.63343815 260.38514861 321.29685224 268.93819714 320.88620186 C278.82599902 320.42103439 288.71476371 320.18409015 298.61068821 319.97100163 C300.5298114 319.92780958 302.44892956 319.88439362 304.36804295 319.84076786 C309.33581986 319.72842247 314.30365753 319.61904718 319.27151585 319.5103693 C324.37419823 319.39818973 329.47681479 319.28309235 334.57943821 319.16826725 C344.529898 318.94476735 354.48042467 318.72441659 364.43100071 318.50615788 C364.3729929 317.24803288 364.31498508 315.98990788 364.25521946 314.69365788 C364.20823226 312.96452906 364.16274197 311.23535912 364.11850071 309.50615788 C364.07660618 308.68631413 364.03471165 307.86647038 363.99154758 307.02178288 C363.88225644 301.25121061 364.9238169 296.84851521 366.91505527 291.42961979 C370.83374355 280.16861885 370.0894527 268.50710542 369.99862766 256.73076725 C369.99709354 254.115607 369.99776761 251.50044469 370.00045395 248.88528538 C370.00309319 242.62610891 369.98019474 236.36729629 369.9479473 230.10821286 C369.9117128 222.85576117 369.90796085 215.60343305 369.90402317 208.35088444 C369.8778534 189.23591861 369.80804711 170.12103264 369.74350071 151.00615788 C369.64037571 108.27115788 369.53725071 65.53615788 369.43100071 21.50615788 C252.28100071 21.50615788 135.13100071 21.50615788 14.43100071 21.50615788 Z " fill="#64607C" transform="translate(374.5689992904663,616.493842124939)"/>
<path d="M0 0 C0.66158313 -0.00611336 1.32316626 -0.01222672 2.00479737 -0.01852533 C4.23165029 -0.03418176 6.4574228 -0.0212376 8.68428135 -0.00850582 C10.29284874 -0.01382862 11.90141116 -0.02089277 13.50996405 -0.02955288 C17.93799362 -0.04824267 22.3656902 -0.04185355 26.79373395 -0.03139985 C31.56615831 -0.02442572 36.33851302 -0.04039215 41.11091709 -0.05339718 C50.46341257 -0.07507258 59.81578654 -0.07490121 69.16829889 -0.06677163 C76.76781114 -0.06047927 84.36728787 -0.06160164 91.96679974 -0.06804371 C93.5874077 -0.06939619 93.5874077 -0.06939619 95.24075522 -0.070776 C97.43539044 -0.07262714 99.63002565 -0.0744897 101.82466085 -0.07636356 C122.41900169 -0.09295441 143.01327409 -0.08421194 163.60761083 -0.06737798 C182.46042981 -0.0526804 201.31308943 -0.06730799 220.16588788 -0.09614814 C239.51073837 -0.12552127 258.85551525 -0.13652047 278.20038706 -0.12696594 C280.38738667 -0.12594336 282.57438629 -0.12494875 284.76138592 -0.12398243 C286.37556516 -0.12326784 286.37556516 -0.12326784 288.02235408 -0.12253882 C295.61433153 -0.12037191 303.20623952 -0.13019352 310.79820156 -0.14475346 C320.04812654 -0.1622451 329.29784831 -0.1622051 338.54776519 -0.1394018 C343.26943322 -0.12823064 347.99074279 -0.12516187 352.71239567 -0.14370251 C357.0322405 -0.1604474 361.35141258 -0.15423827 365.67121334 -0.12948572 C367.23644529 -0.1245822 368.8017309 -0.12817291 370.3669182 -0.14097316 C372.49081577 -0.1570932 374.61236947 -0.14257265 376.73616028 -0.12025452 C377.91682082 -0.11998483 379.09748135 -0.11971514 380.31391948 -0.11943728 C384.45546356 0.71176657 385.92416124 2.14710158 388.43100071 5.50615788 C389.05429453 8.37316996 389.05429453 8.37316996 389.05182648 11.59192085 C389.06860944 13.43716129 389.06860944 13.43716129 389.08573145 15.31967932 C389.07284887 16.68173433 389.05949879 18.04378498 389.04573154 19.40583134 C389.04934426 20.85510764 389.05514752 22.30437986 389.06295353 23.75363964 C389.07802612 27.73680364 389.06187313 31.71932566 389.04064691 35.70243919 C389.02318296 39.99764471 389.03453138 44.29278553 389.04231358 48.58800602 C389.05299435 57.00228316 389.03702392 65.41631038 389.01217531 73.83054943 C388.98427224 83.62452093 388.98290242 93.41844154 388.9827323 103.21244621 C388.98154448 120.68402022 388.95655787 138.15547928 388.91806126 155.62700748 C388.88070941 172.58991214 388.85946541 189.55273318 388.85653782 206.51567936 C388.85635501 207.56053958 388.8561722 208.60539979 388.85598385 209.68192244 C388.85580488 210.72495656 388.8556259 211.76799067 388.85544151 212.84263188 C388.8550761 214.94260188 388.85470373 217.04257188 388.85432434 219.14254189 C388.85413883 220.17811361 388.85395331 221.21368533 388.85376218 222.28063801 C388.85019363 238.43353077 388.83174371 254.58641058 388.8118311 270.7392902 C388.80480389 276.59854614 388.80002384 282.45779902 388.79686975 288.31705827 C388.79182491 297.60983996 388.78042198 306.90256339 388.75556945 316.19531507 C388.74433211 320.44284295 388.73623393 324.69031348 388.73670292 328.93785763 C388.73701045 332.82319582 388.72811538 336.7083982 388.7117349 340.59370088 C388.70740428 342.00208602 388.70645577 343.4104863 388.70916098 344.8188755 C388.71231147 346.72800261 388.70205138 348.63713795 388.69106293 350.54623604 C388.689112 351.60826148 388.68716108 352.67028692 388.68515104 353.76449496 C388.42743713 356.54460026 387.92972919 358.17215684 386.43100071 360.50615788 C383.2938756 362.69084228 380.58462109 362.75047293 376.82739353 362.73099613 C375.69841333 362.7289697 374.56943314 362.72694326 373.40624142 362.72485542 C372.18029577 362.71125701 370.95435013 362.6976586 369.69125462 362.68364811 C368.4029254 362.67599399 367.11459618 362.66833986 365.78722668 362.6604538 C351.66551634 362.56002137 337.54954252 362.15885928 323.43463182 361.73137307 C319.69536685 361.61914658 315.95595293 361.51210052 312.21655369 361.40445805 C305.13587248 361.19993799 298.0553156 360.99142494 290.97480261 360.78116935 C277.65471124 360.38578014 264.33438198 359.99846541 251.01404667 359.61139393 C247.98571454 359.52338934 244.95738966 359.4351411 241.92907047 359.34669209 C217.76471806 358.641386 193.60009978 358.03253669 169.43100071 357.50615788 C169.43100071 370.37615788 169.43100071 383.24615788 169.43100071 396.50615788 C141.05100071 396.50615788 112.67100071 396.50615788 83.43100071 396.50615788 C83.43100071 388.53434473 83.48261264 381.37344281 84.20053196 373.58037663 C85.80680396 358.75008246 85.80680396 358.75008246 80.69271946 345.47490788 C76.5746214 341.69029045 72.60527785 338.71186186 66.85409641 338.33916569 C65.94748264 338.37880436 65.04086887 338.41844303 64.10678196 338.45928288 C62.56087376 338.52309147 62.56087376 338.52309147 60.98373508 338.58818913 C59.91445774 338.64361881 58.8451804 338.6990485 57.74350071 338.75615788 C56.7244968 338.79611881 55.7054929 338.83607975 54.65561008 338.87725163 C47.56244699 339.20026336 40.55299588 339.90845593 33.5047617 340.72631168 C24.72718992 341.73004587 15.92983848 342.38011496 7.11850071 343.00615788 C5.80330952 343.10087376 5.80330952 343.10087376 4.46154881 343.19750309 C-24.03574222 345.24389629 -52.54525334 346.76898782 -81.10983181 347.44756413 C-82.82872097 347.48851951 -84.54759179 347.53024903 -86.26644802 347.57256413 C-121.37019658 348.43656409 -156.45555066 348.63919536 -191.56899929 348.50615788 C-188.80004139 345.73719998 -185.63857797 345.41062 -181.94399929 344.50615788 C-134.97122815 332.19562036 -90.80834647 300.09595578 -65.56899929 258.50615788 C-56.92336833 243.2852233 -52.4932557 228.91092392 -52.25649929 211.31865788 C-52.23003323 210.26219059 -52.23003323 210.26219059 -52.20303249 209.18438053 C-52.22191832 193.56408444 -56.75176575 178.09957705 -60.75649929 163.13115788 C-61.45320093 160.51231263 -62.14745214 157.89289647 -62.83592129 155.27187443 C-63.25932911 153.66118411 -63.68753047 152.05174365 -64.12129116 150.44381046 C-65.03482486 146.97997807 -65.56899929 144.11567695 -65.56899929 140.50615788 C-51.57581107 142.75506313 -37.74755736 155.41626298 -29.56899929 166.50615788 C-22.46899908 176.61749273 -15.4946273 187.72927386 -11.56899929 199.50615788 C-11.56753273 198.50486725 -11.56606617 197.50357662 -11.56455517 196.47194386 C-11.52798789 172.12750449 -11.46857482 147.783203 -11.38509655 123.43887806 C-11.34525827 111.66621765 -11.31289013 99.89362455 -11.2980032 88.12090397 C-11.28501148 77.86183834 -11.25811042 67.60292051 -11.21438622 57.34393811 C-11.19171555 51.91000937 -11.17609196 46.4762633 -11.17711544 41.04228306 C-11.17785874 35.93030895 -11.16004099 30.81873953 -11.12783146 25.70687008 C-11.11929503 23.82832718 -11.11760776 21.94973909 -11.1231966 20.07118511 C-11.12980191 17.51035615 -11.11200047 14.95082794 -11.08798122 12.39013004 C-11.09574164 11.64304649 -11.10350206 10.89596294 -11.11149764 10.12624049 C-11.05813628 6.92282935 -10.87888059 4.92466521 -8.9478237 2.31669408 C-5.80785426 -0.07315375 -3.92632516 0.00396286 0 0 Z M7.43100071 21.50615788 C7.26600071 61.62178288 7.10100071 101.73740788 6.93100071 143.06865788 C6.85816868 155.68157047 6.78533665 168.29448307 6.71029758 181.28960514 C6.68352323 192.7093276 6.68352323 192.7093276 6.6674509 204.12906742 C6.66007157 209.17049845 6.6303939 214.2112386 6.58639622 219.25248051 C5.99553432 258.37385102 5.99553432 258.37385102 14.36741734 296.29714108 C16.78095456 303.57920441 18.58897116 311.06252756 20.43100071 318.50615788 C32.23600594 319.22472939 44.02264524 319.71799726 55.84628391 319.97100163 C57.5036433 320.00868649 59.16099687 320.04662806 60.81834507 320.08480167 C65.27572022 320.18670413 69.73316921 320.2849258 74.1906445 320.38233662 C78.94001178 320.48668016 83.68930769 320.59418736 88.43861485 320.70122623 C96.45499359 320.88142474 104.47142155 321.0592842 112.48788548 321.23565006 C120.58136173 321.41372825 128.67478575 321.59396157 136.76815891 321.77666569 C185.78956505 322.90526925 185.78956505 322.90526925 234.81527805 323.81865788 C235.52219064 323.8299869 236.22910322 323.84131592 236.9574374 323.85298824 C244.97125522 323.98068761 252.98515947 324.09922835 260.99932671 324.20295048 C275.50314549 324.4283811 289.91887945 324.9686719 304.43100071 325.50615788 C323.57100071 325.50615788 342.71100071 325.50615788 362.43100071 325.50615788 C362.43100071 225.18615788 362.43100071 124.86615788 362.43100071 21.50615788 C245.28100071 21.50615788 128.13100071 21.50615788 7.43100071 21.50615788 Z " fill="#64607C" transform="translate(1188.5689992904663,616.493842124939)"/>
<path d="M0 0 C-0.45142757 5.00472387 -0.96922178 9.97697575 -1.75390625 14.94140625 C-4.04316968 30.29408355 -4.30539574 45.50039927 -4.3125 61 C-4.31581329 62.04995148 -4.31912659 63.09990295 -4.32254028 64.18167114 C-4.34271799 75.01371708 -4.10057711 85.64090251 -2.73175049 96.39064026 C-1.73138695 104.52537719 -1.59213001 112.64220492 -1.57446289 120.83129883 C-1.56251882 123.43340027 -1.51303919 126.03315597 -1.46289062 128.63476562 C-1.25370886 150.34903441 -7.04907144 170.8017942 -22.41015625 186.68359375 C-27.66551332 191.38408658 -32.97631196 194.88118244 -40 196 C-40 196.66 -40 197.32 -40 198 C-38.69482422 198.41958984 -38.69482422 198.41958984 -37.36328125 198.84765625 C-34.23202648 199.92050196 -31.22734512 201.13122117 -28.1875 202.4375 C-14.75974485 208.05304336 -2.30215807 210.3855472 12.3125 210.3125 C13.49948486 210.30686035 14.68646973 210.3012207 15.90942383 210.29541016 C47.0846534 209.86440637 72.24407878 195.61177503 93.57421875 173.68359375 C98.82898171 168.13812303 103.44789299 162.1252232 108 156 C108.43779785 155.41283203 108.8755957 154.82566406 109.32666016 154.22070312 C109.76155762 153.63740234 110.19645508 153.05410156 110.64453125 152.453125 C111.06307373 151.89254395 111.48161621 151.33196289 111.9128418 150.75439453 C113.05525709 149.21874908 114.18810491 147.67599935 115.3203125 146.1328125 C116.15175781 145.07707031 116.15175781 145.07707031 117 144 C117.33 144 117.66 144 118 144 C118.19914983 150.92756892 117.49069826 157.31540081 116.25 164.125 C115.97712158 165.64504639 115.97712158 165.64504639 115.69873047 167.19580078 C114.20998712 175.27149487 112.43416246 183.14896898 110 191 C109.80212891 191.64001953 109.60425781 192.28003906 109.40039062 192.93945312 C105.44030569 205.50206103 99.84634007 217.21884409 94 229 C27.53279841 229.56720075 -39.15600993 225.99698585 -105.4375 221.375 C-106.33309631 221.31265167 -107.22869263 221.25030334 -108.15142822 221.18606567 C-110.66236806 221.00975618 -113.17303313 220.83006044 -115.68359375 220.6484375 C-116.39973343 220.59750443 -117.11587311 220.54657135 -117.85371399 220.49409485 C-122.91772127 220.11959132 -127.95670502 219.58951598 -133 219 C-139.80250563 200.53605614 -142.33546605 181.32069737 -134 163 C-130.60566202 156.28028351 -126.93663559 149.70727754 -123.3203125 143.10546875 C-112.20905879 122.74918462 -109.83560926 100.94031943 -107.5 78.125 C-104.97298925 53.85930831 -101.3491825 27.71965237 -81.62890625 10.98828125 C-56.89047956 -7.25878228 -28.70064024 -6.19130277 0 0 Z " fill="#FC6482" transform="translate(877,736)"/>
<path d="M0 0 C7.46449418 3.81245973 13.97324402 8.1682273 20 14 C23.64226572 12.38217651 26.54983839 10.12790347 29.6875 7.6875 C38.75924372 0.75950728 48.1149187 -5.57124804 60 -4 C66.01330681 -2.29730739 69.05308594 0.73443313 72.08984375 6.09765625 C74.72707405 11.60980714 74.18407444 17.13712494 74.1875 23.125 C74.19974609 24.2284375 74.21199219 25.331875 74.22460938 26.46875 C74.23619851 32.97411704 73.68170998 38.71186703 72 45 C72.93573853 45.23710693 72.93573853 45.23710693 73.89038086 45.47900391 C86.6777783 48.81800531 100.02239179 55.14038286 107.5625 66.4375 C109.36306808 70.89977742 110.02420528 74.2680128 109 79 C103.50095225 91.36766965 90.96597839 97.33998201 79 102 C75.54296875 102.6953125 75.54296875 102.6953125 73 103 C73.144375 103.7528125 73.28875 104.505625 73.4375 105.28125 C75.89649548 119.35216857 76.76551786 133.29246363 70.3125 146.4375 C66.63829392 150.50891755 63.08880233 152.6132719 57.59765625 153.30078125 C44.0637812 153.03620926 31.5717111 143.76054914 22 135 C18.40852225 136.58870075 15.62355347 138.80780266 12.5625 141.25 C4.19056769 147.73588999 -5.96370124 153.57134187 -16.84765625 153.328125 C-20.99341965 152.69610299 -23.99841064 150.88614361 -27 148 C-35.68545986 134.88581556 -33.51148568 119.75497837 -31 105 C-31.65484375 104.70867187 -32.3096875 104.41734375 -32.984375 104.1171875 C-35.99838186 102.76343866 -38.99950917 101.38343799 -42 100 C-43.01835938 99.54238281 -44.03671875 99.08476563 -45.0859375 98.61328125 C-54.31264753 94.28455482 -63.05472217 88.77742765 -67 79 C-68.09201327 73.75253802 -67.35102649 69.94228015 -64.5625 65.375 C-56.30099868 54.33410728 -43.3458805 49.2147994 -31 44 C-31.144375 43.34257813 -31.28875 42.68515625 -31.4375 42.0078125 C-34.0360471 28.69025861 -35.57651348 13.95668534 -28 2 C-20.04082888 -7.19284265 -9.76503105 -4.42091952 0 0 Z " fill="#58B7D6" transform="translate(1351,717)"/>
<path d="M0 0 C13.99318822 2.24890525 27.82144193 14.9101051 36 26 C53.22880313 50.53608343 61.03304592 78.24954785 68.23046875 107.02734375 C69.55011469 112.29127255 70.96793716 117.50102345 72.5625 122.6875 C75.5376606 132.50754021 77.90896048 142.47898398 80.37109375 152.4375 C82.53647368 161.19300536 84.81744608 169.91125242 87.31640625 178.578125 C87.54376465 179.37460449 87.77112305 180.17108398 88.00537109 180.99169922 C88.44314965 182.52126052 88.88696591 184.04911399 89.33837891 185.57470703 C90.40537778 189.30621788 91.16894608 192.90247972 91.56567383 196.76806641 C91.69067009 197.96298203 91.69067009 197.96298203 91.81819153 199.18203735 C91.87818832 199.78196503 91.93818512 200.3818927 92 201 C56.18005395 203.74754486 20.38088194 206.08805481 -15.54083252 206.94140625 C-17.25972168 206.98236164 -18.9785925 207.02409116 -20.69744873 207.06640625 C-55.80119729 207.93040621 -90.88655137 208.13303748 -126 208 C-123.2310421 205.2310421 -120.06957868 204.90446212 -116.375 204 C-69.40222886 191.68946248 -25.23934718 159.58979791 0 118 C8.64563096 102.77906542 13.07574359 88.40476604 13.3125 70.8125 C13.33896606 69.75603271 13.33896606 69.75603271 13.3659668 68.67822266 C13.34708097 53.05792656 8.81723354 37.59341917 4.8125 22.625 C4.11579836 20.00615476 3.42154715 17.3867386 2.733078 14.76571655 C2.30967018 13.15502624 1.88146883 11.54558578 1.44770813 9.93765259 C0.53417443 6.47382019 0 3.60951907 0 0 Z " fill="#FB6382" transform="translate(1123,757)"/>
<path d="M0 0 C0 0.66 0 1.32 0 2 C0.66 2 1.32 2 2 2 C2 2.66 2 3.32 2 4 C2.66 4 3.32 4 4 4 C4 4.66 4 5.32 4 6 C4.66 6 5.32 6 6 6 C7.03590199 11.05002222 7.10251672 15.87416389 7 21 C6.34 21 5.68 21 5 21 C4.67 23.31 4.34 25.62 4 28 C3.34 28 2.68 28 2 28 C2 28.66 2 29.32 2 30 C1.34 30 0.68 30 0 30 C0 30.66 0 31.32 0 32 C-0.66 32 -1.32 32 -2 32 C-2 32.66 -2 33.32 -2 34 C-2.66 34 -3.32 34 -4 34 C-4 34.66 -4 35.32 -4 36 C-7.46153846 39 -7.46153846 39 -10 39 C-10.33 40.32 -10.66 41.64 -11 43 C-11.66 43 -12.32 43 -13 43 C-13 43.66 -13 44.32 -13 45 C-13.66 45 -14.32 45 -15 45 C-15 45.66 -15 46.32 -15 47 C-15.66 47 -16.32 47 -17 47 C-17 47.66 -17 48.32 -17 49 C-17.66 49 -18.32 49 -19 49 C-19.33 50.32 -19.66 51.64 -20 53 C-21.32 53.33 -22.64 53.66 -24 54 C-24 54.66 -24 55.32 -24 56 C-24.66 56 -25.32 56 -26 56 C-26 56.66 -26 57.32 -26 58 C-26.66 58 -27.32 58 -28 58 C-28 58.66 -28 59.32 -28 60 C-28.66 60 -29.32 60 -30 60 C-30 60.66 -30 61.32 -30 62 C-30.66 62 -31.32 62 -32 62 C-32 62.66 -32 63.32 -32 64 C-33.375 65.625 -33.375 65.625 -35 67 C-35.66 67 -36.32 67 -37 67 C-37 67.66 -37 68.32 -37 69 C-37.66 69 -38.32 69 -39 69 C-39 69.66 -39 70.32 -39 71 C-39.66 71 -40.32 71 -41 71 C-41 71.66 -41 72.32 -41 73 C-41.66 73 -42.32 73 -43 73 C-43 74.32 -43 75.64 -43 77 C-42.34 77 -41.68 77 -41 77 C-41 77.66 -41 78.32 -41 79 C-39.68 79.33 -38.36 79.66 -37 80 C-37 80.66 -37 81.32 -37 82 C-36.34 82 -35.68 82 -35 82 C-35 82.66 -35 83.32 -35 84 C-34.34 84 -33.68 84 -33 84 C-32.67 85.32 -32.34 86.64 -32 88 C-30.68 88 -29.36 88 -28 88 C-28 88.66 -28 89.32 -28 90 C-27.34 90 -26.68 90 -26 90 C-26 91.32 -26 92.64 -26 94 C-24.02 94.33 -22.04 94.66 -20 95 C-19.67 96.32 -19.34 97.64 -19 99 C-18.34 99 -17.68 99 -17 99 C-17 99.66 -17 100.32 -17 101 C-16.34 101 -15.68 101 -15 101 C-15 101.66 -15 102.32 -15 103 C-14.34 103 -13.68 103 -13 103 C-13 103.66 -13 104.32 -13 105 C-11.02 105.495 -11.02 105.495 -9 106 C-9 107.98 -9 109.96 -9 112 C-9.66 112 -10.32 112 -11 112 C-11 113.32 -11 114.64 -11 116 C-11.66 116 -12.32 116 -13 116 C-13 118.31 -13 120.62 -13 123 C-13.66 123 -14.32 123 -15 123 C-15 124.65 -15 126.3 -15 128 C-15.66 128 -16.32 128 -17 128 C-16.95875 128.86625 -16.9175 129.7325 -16.875 130.625 C-17.00457721 134.12358468 -17.76019656 136.74551597 -19 140 C-19.66 140 -20.32 140 -21 140 C-21.33 142.97 -21.66 145.94 -22 149 C-22.66 149 -23.32 149 -24 149 C-24 148.34 -24 147.68 -24 147 C-24.66 147 -25.32 147 -26 147 C-26 146.34 -26 145.68 -26 145 C-27.32 144.67 -28.64 144.34 -30 144 C-30 143.34 -30 142.68 -30 142 C-30.66 142 -31.32 142 -32 142 C-32 141.34 -32 140.68 -32 140 C-32.66 140 -33.32 140 -34 140 C-34.33 138.68 -34.66 137.36 -35 136 C-35.66 136 -36.32 136 -37 136 C-37 135.34 -37 134.68 -37 134 C-37.66 134 -38.32 134 -39 134 C-39 133.34 -39 132.68 -39 132 C-40.32 131.67 -41.64 131.34 -43 131 C-43 130.34 -43 129.68 -43 129 C-43.66 129 -44.32 129 -45 129 C-45 128.34 -45 127.68 -45 127 C-45.66 127 -46.32 127 -47 127 C-47.33 125.68 -47.66 124.36 -48 123 C-48.66 123 -49.32 123 -50 123 C-50 122.34 -50 121.68 -50 121 C-50.66 121 -51.32 121 -52 121 C-52 120.34 -52 119.68 -52 119 C-53.32 118.67 -54.64 118.34 -56 118 C-56 117.34 -56 116.68 -56 116 C-56.66 116 -57.32 116 -58 116 C-58 115.34 -58 114.68 -58 114 C-58.66 114 -59.32 114 -60 114 C-60.33 112.68 -60.66 111.36 -61 110 C-61.66 110 -62.32 110 -63 110 C-63 109.34 -63 108.68 -63 108 C-63.66 108 -64.32 108 -65 108 C-65 107.34 -65 106.68 -65 106 C-65.66 106 -66.32 106 -67 106 C-67 105.34 -67 104.68 -67 104 C-68.32 103.67 -69.64 103.34 -71 103 C-71 102.34 -71 101.68 -71 101 C-71.66 101 -72.32 101 -73 101 C-73.33 99.68 -73.66 98.36 -74 97 C-74.66 97 -75.32 97 -76 97 C-76 96.34 -76 95.68 -76 95 C-76.66 95 -77.32 95 -78 95 C-78 94.34 -78 93.68 -78 93 C-79.32 92.67 -80.64 92.34 -82 92 C-82 91.34 -82 90.68 -82 90 C-82.66 90 -83.32 90 -84 90 C-84 89.34 -84 88.68 -84 88 C-84.66 88 -85.32 88 -86 88 C-86 87.34 -86 86.68 -86 86 C-86.66 86 -87.32 86 -88 86 C-90.68219822 80.63560356 -91.3152595 76.98993047 -91 71 C-90.34 71 -89.68 71 -89 71 C-88.67 68.03 -88.34 65.06 -88 62 C-87.34 62 -86.68 62 -86 62 C-86 61.34 -86 60.68 -86 60 C-85.34 60 -84.68 60 -84 60 C-84 59.34 -84 58.68 -84 58 C-83.34 58 -82.68 58 -82 58 C-82 57.34 -82 56.68 -82 56 C-81.34 56 -80.68 56 -80 56 C-80 55.34 -80 54.68 -80 54 C-79.34 54 -78.68 54 -78 54 C-78 53.34 -78 52.68 -78 52 C-76.02 51.505 -76.02 51.505 -74 51 C-73.67 49.68 -73.34 48.36 -73 47 C-72.34 47 -71.68 47 -71 47 C-71 46.34 -71 45.68 -71 45 C-70.34 45 -69.68 45 -69 45 C-69 44.34 -69 43.68 -69 43 C-68.34 43 -67.68 43 -67 43 C-67 42.34 -67 41.68 -67 41 C-66.34 41 -65.68 41 -65 41 C-65 40.34 -65 39.68 -65 39 C-63.02 38.505 -63.02 38.505 -61 38 C-61 37.34 -61 36.68 -61 36 C-60.34 36 -59.68 36 -59 36 C-58.67 34.68 -58.34 33.36 -58 32 C-57.34 32 -56.68 32 -56 32 C-56 31.34 -56 30.68 -56 30 C-55.34 30 -54.68 30 -54 30 C-54 29.34 -54 28.68 -54 28 C-52.68 27.67 -51.36 27.34 -50 27 C-50 26.34 -50 25.68 -50 25 C-49.34 25 -48.68 25 -48 25 C-48 24.34 -48 23.68 -48 23 C-47.34 23 -46.68 23 -46 23 C-45.67 21.68 -45.34 20.36 -45 19 C-44.34 19 -43.68 19 -43 19 C-43 18.34 -43 17.68 -43 17 C-42.34 17 -41.68 17 -41 17 C-41 16.34 -41 15.68 -41 15 C-40.34 15 -39.68 15 -39 15 C-39 14.34 -39 13.68 -39 13 C-38.34 13 -37.68 13 -37 13 C-36.731875 12.401875 -36.46375 11.80375 -36.1875 11.1875 C-34.97699666 8.95762543 -34.008621 7.54509308 -32 6 C-30.68 6 -29.36 6 -28 6 C-28 5.34 -28 4.68 -28 4 C-27.34 4 -26.68 4 -26 4 C-26 3.34 -26 2.68 -26 2 C-25.34 2 -24.68 2 -24 2 C-24 1.34 -24 0.68 -24 0 C-15.76107696 -4.29856854 -8.23892304 -4.29856854 0 0 Z " fill="#3F72F4" transform="translate(552,678)"/>
<path d="M0 0 C1.47726562 0.15275391 1.47726562 0.15275391 2.984375 0.30859375 C3.73203125 0.39238281 4.4796875 0.47617187 5.25 0.5625 C5.25 1.2225 5.25 1.8825 5.25 2.5625 C5.91 2.5625 6.57 2.5625 7.25 2.5625 C7.25 3.2225 7.25 3.8825 7.25 4.5625 C7.91 4.5625 8.57 4.5625 9.25 4.5625 C9.25 5.2225 9.25 5.8825 9.25 6.5625 C9.91 6.5625 10.57 6.5625 11.25 6.5625 C11.25 7.2225 11.25 7.8825 11.25 8.5625 C11.91 8.5625 12.57 8.5625 13.25 8.5625 C13.25 12.1925 13.25 15.8225 13.25 19.5625 C12.59 19.5625 11.93 19.5625 11.25 19.5625 C11.270625 20.366875 11.29125 21.17125 11.3125 22 C11.25 24.5625 11.25 24.5625 10.25 25.5625 C9.88239269 27.89067964 9.54758419 30.2243385 9.25 32.5625 C8.59 32.5625 7.93 32.5625 7.25 32.5625 C7.29125 33.449375 7.3325 34.33625 7.375 35.25 C7.25102754 38.53527013 6.63612096 40.61699295 5.25 43.5625 C4.59 43.5625 3.93 43.5625 3.25 43.5625 C2.92 47.8525 2.59 52.1425 2.25 56.5625 C1.59 56.5625 0.93 56.5625 0.25 56.5625 C0.25 57.8825 0.25 59.2025 0.25 60.5625 C-0.41 60.5625 -1.07 60.5625 -1.75 60.5625 C-1.75 62.2125 -1.75 63.8625 -1.75 65.5625 C-2.41 65.5625 -3.07 65.5625 -3.75 65.5625 C-3.75 67.5425 -3.75 69.5225 -3.75 71.5625 C-4.41 71.5625 -5.07 71.5625 -5.75 71.5625 C-5.75 73.5425 -5.75 75.5225 -5.75 77.5625 C-6.41 77.5625 -7.07 77.5625 -7.75 77.5625 C-7.6675 78.490625 -7.585 79.41875 -7.5 80.375 C-7.47211721 84.94777679 -9.15223249 88.75184024 -10.79296875 92.9609375 C-11.83994168 95.80699453 -12.42415627 98.54844554 -12.75 101.5625 C-13.41 101.5625 -14.07 101.5625 -14.75 101.5625 C-14.75 103.2125 -14.75 104.8625 -14.75 106.5625 C-15.41 106.5625 -16.07 106.5625 -16.75 106.5625 C-16.75 108.5425 -16.75 110.5225 -16.75 112.5625 C-17.41 112.5625 -18.07 112.5625 -18.75 112.5625 C-18.75 114.5425 -18.75 116.5225 -18.75 118.5625 C-19.41 118.5625 -20.07 118.5625 -20.75 118.5625 C-20.75 120.2125 -20.75 121.8625 -20.75 123.5625 C-21.41 123.5625 -22.07 123.5625 -22.75 123.5625 C-23.245 129.9975 -23.245 129.9975 -23.75 136.5625 C-24.41 136.5625 -25.07 136.5625 -25.75 136.5625 C-25.75 138.5425 -25.75 140.5225 -25.75 142.5625 C-26.41 142.5625 -27.07 142.5625 -27.75 142.5625 C-27.75 144.2125 -27.75 145.8625 -27.75 147.5625 C-28.41 147.5625 -29.07 147.5625 -29.75 147.5625 C-29.75 148.8825 -29.75 150.2025 -29.75 151.5625 C-30.41 151.5625 -31.07 151.5625 -31.75 151.5625 C-31.75 153.5425 -31.75 155.5225 -31.75 157.5625 C-32.41 157.5625 -33.07 157.5625 -33.75 157.5625 C-33.75 159.8725 -33.75 162.1825 -33.75 164.5625 C-34.41 164.5625 -35.07 164.5625 -35.75 164.5625 C-35.75 166.5425 -35.75 168.5225 -35.75 170.5625 C-36.41 170.5625 -37.07 170.5625 -37.75 170.5625 C-37.75 172.8725 -37.75 175.1825 -37.75 177.5625 C-38.41 177.5625 -39.07 177.5625 -39.75 177.5625 C-40.08 181.1925 -40.41 184.8225 -40.75 188.5625 C-41.41 188.5625 -42.07 188.5625 -42.75 188.5625 C-42.75 189.8825 -42.75 191.2025 -42.75 192.5625 C-43.41 192.5625 -44.07 192.5625 -44.75 192.5625 C-44.75 194.5425 -44.75 196.5225 -44.75 198.5625 C-45.41 198.5625 -46.07 198.5625 -46.75 198.5625 C-46.75 200.8725 -46.75 203.1825 -46.75 205.5625 C-47.41 205.5625 -48.07 205.5625 -48.75 205.5625 C-48.688125 206.449375 -48.62625 207.33625 -48.5625 208.25 C-48.77064474 211.92722369 -49.53206583 213.66212455 -51.75 216.5625 C-52.41 216.5625 -53.07 216.5625 -53.75 216.5625 C-53.75 217.2225 -53.75 217.8825 -53.75 218.5625 C-54.41 218.5625 -55.07 218.5625 -55.75 218.5625 C-55.75 219.2225 -55.75 219.8825 -55.75 220.5625 C-60.7 220.5625 -65.65 220.5625 -70.75 220.5625 C-70.75 219.9025 -70.75 219.2425 -70.75 218.5625 C-71.41 218.5625 -72.07 218.5625 -72.75 218.5625 C-72.75 217.9025 -72.75 217.2425 -72.75 216.5625 C-73.41 216.5625 -74.07 216.5625 -74.75 216.5625 C-74.75 215.9025 -74.75 215.2425 -74.75 214.5625 C-75.41 214.5625 -76.07 214.5625 -76.75 214.5625 C-78.53574469 208.26239274 -78.36235358 202.55554644 -75.75 196.5625 C-75.29438927 193.8989296 -75.02367548 191.25364222 -74.75 188.5625 C-74.09 188.5625 -73.43 188.5625 -72.75 188.5625 C-72.75 186.9125 -72.75 185.2625 -72.75 183.5625 C-72.09 183.5625 -71.43 183.5625 -70.75 183.5625 C-70.75 181.5825 -70.75 179.6025 -70.75 177.5625 C-70.09 177.5625 -69.43 177.5625 -68.75 177.5625 C-68.811875 176.9025 -68.87375 176.2425 -68.9375 175.5625 C-68.73394427 172.3056084 -67.76214233 169.77393404 -66.55078125 166.765625 C-65.22694001 163.12344715 -64.49686089 159.35831067 -63.75 155.5625 C-63.09 155.5625 -62.43 155.5625 -61.75 155.5625 C-61.75 152.9225 -61.75 150.2825 -61.75 147.5625 C-61.09 147.5625 -60.43 147.5625 -59.75 147.5625 C-59.75 145.9125 -59.75 144.2625 -59.75 142.5625 C-59.09 142.5625 -58.43 142.5625 -57.75 142.5625 C-57.75 140.5825 -57.75 138.6025 -57.75 136.5625 C-57.09 136.5625 -56.43 136.5625 -55.75 136.5625 C-55.770625 135.49 -55.79125 134.4175 -55.8125 133.3125 C-55.7642016 130.41459576 -55.61844115 128.27637859 -54.75 125.5625 C-54.09 125.5625 -53.43 125.5625 -52.75 125.5625 C-52.79125 124.675625 -52.8325 123.78875 -52.875 122.875 C-52.75102754 119.58972987 -52.13612096 117.50800705 -50.75 114.5625 C-50.09 114.5625 -49.43 114.5625 -48.75 114.5625 C-48.75 112.5825 -48.75 110.6025 -48.75 108.5625 C-48.09 108.5625 -47.43 108.5625 -46.75 108.5625 C-46.75 106.2525 -46.75 103.9425 -46.75 101.5625 C-46.09 101.5625 -45.43 101.5625 -44.75 101.5625 C-44.75 99.5825 -44.75 97.6025 -44.75 95.5625 C-44.09 95.5625 -43.43 95.5625 -42.75 95.5625 C-42.75 93.9125 -42.75 92.2625 -42.75 90.5625 C-42.09 90.5625 -41.43 90.5625 -40.75 90.5625 C-40.71261719 89.75425781 -40.67523437 88.94601562 -40.63671875 88.11328125 C-40.57097656 87.04464844 -40.50523437 85.97601562 -40.4375 84.875 C-40.35048828 83.29138672 -40.35048828 83.29138672 -40.26171875 81.67578125 C-39.70657435 78.29829967 -38.55847224 76.42591438 -36.75 73.5625 C-36.19327186 71.36730783 -36.19327186 71.36730783 -36.0625 69.25 C-35.959375 68.033125 -35.85625 66.81625 -35.75 65.5625 C-35.09 65.5625 -34.43 65.5625 -33.75 65.5625 C-33.75 64.5725 -33.75 63.5825 -33.75 62.5625 C-33.09 62.5625 -32.43 62.5625 -31.75 62.5625 C-31.75 60.5825 -31.75 58.6025 -31.75 56.5625 C-31.09 56.5625 -30.43 56.5625 -29.75 56.5625 C-29.75 54.5825 -29.75 52.6025 -29.75 50.5625 C-29.09 50.5625 -28.43 50.5625 -27.75 50.5625 C-27.75 48.2525 -27.75 45.9425 -27.75 43.5625 C-27.09 43.5625 -26.43 43.5625 -25.75 43.5625 C-25.42 39.9325 -25.09 36.3025 -24.75 32.5625 C-24.09 32.5625 -23.43 32.5625 -22.75 32.5625 C-22.75 30.5825 -22.75 28.6025 -22.75 26.5625 C-22.09 26.5625 -21.43 26.5625 -20.75 26.5625 C-20.75 24.2525 -20.75 21.9425 -20.75 19.5625 C-20.09 19.5625 -19.43 19.5625 -18.75 19.5625 C-18.75 17.5825 -18.75 15.6025 -18.75 13.5625 C-18.09 13.5625 -17.43 13.5625 -16.75 13.5625 C-16.75 12.5725 -16.75 11.5825 -16.75 10.5625 C-16.09 10.5625 -15.43 10.5625 -14.75 10.5625 C-14.75 9.2425 -14.75 7.9225 -14.75 6.5625 C-14.09 6.5625 -13.43 6.5625 -12.75 6.5625 C-12.75 5.2425 -12.75 3.9225 -12.75 2.5625 C-11.76 2.5625 -10.77 2.5625 -9.75 2.5625 C-9.75 1.9025 -9.75 1.2425 -9.75 0.5625 C-6.33860997 -0.53401823 -3.54344419 -0.37965473 0 0 Z " fill="#F9F9FA" transform="translate(596.75,677.4375)"/>
<path d="M0 0 C0.99 0 1.98 0 3 0 C3 0.66 3 1.32 3 2 C3.66 2 4.32 2 5 2 C5 2.66 5 3.32 5 4 C6.32 4.33 7.64 4.66 9 5 C9 5.66 9 6.32 9 7 C9.66 7 10.32 7 11 7 C11 7.66 11 8.32 11 9 C11.66 9 12.32 9 13 9 C13.495 10.98 13.495 10.98 14 13 C14.66 13 15.32 13 16 13 C16 13.66 16 14.32 16 15 C16.66 15 17.32 15 18 15 C18 15.66 18 16.32 18 17 C19.32 17.33 20.64 17.66 22 18 C22 18.66 22 19.32 22 20 C22.66 20 23.32 20 24 20 C24 20.66 24 21.32 24 22 C24.66 22 25.32 22 26 22 C26 22.66 26 23.32 26 24 C26.66 24 27.32 24 28 24 C28.495 25.98 28.495 25.98 29 28 C29.66 28 30.32 28 31 28 C31 28.66 31 29.32 31 30 C31.66 30 32.32 30 33 30 C33 30.66 33 31.32 33 32 C34.32 32.33 35.64 32.66 37 33 C37 33.66 37 34.32 37 35 C37.66 35 38.32 35 39 35 C39 35.66 39 36.32 39 37 C39.66 37 40.32 37 41 37 C41.495 38.98 41.495 38.98 42 41 C43.98 41.495 43.98 41.495 46 42 C46 42.66 46 43.32 46 44 C46.66 44 47.32 44 48 44 C48 44.66 48 45.32 48 46 C48.66 46 49.32 46 50 46 C50 46.66 50 47.32 50 48 C50.66 48 51.32 48 52 48 C52 48.66 52 49.32 52 50 C52.66 50 53.32 50 54 50 C54.04125 50.61875 54.0825 51.2375 54.125 51.875 C54.41375 52.57625 54.7025 53.2775 55 54 C57.99615946 55.3045656 57.99615946 55.3045656 61 56 C61 56.99 61 57.98 61 59 C61.66 59 62.32 59 63 59 C63 59.66 63 60.32 63 61 C63.66 61 64.32 61 65 61 C65 61.66 65 62.32 65 63 C65.66 63 66.32 63 67 63 C67 64.32 67 65.64 67 67 C67.66 67 68.32 67 69 67 C69 71.29 69 75.58 69 80 C68.34 80 67.68 80 67 80 C67 81.32 67 82.64 67 84 C65.68 84.33 64.36 84.66 63 85 C63 85.66 63 86.32 63 87 C62.34 87 61.68 87 61 87 C61 87.66 61 88.32 61 89 C60.34 89 59.68 89 59 89 C59 89.66 59 90.32 59 91 C58.34 91 57.68 91 57 91 C57 91.66 57 92.32 57 93 C56.34 93 55.68 93 55 93 C54.505 94.98 54.505 94.98 54 97 C52.68 97.33 51.36 97.66 50 98 C50 98.66 50 99.32 50 100 C49.34 100 48.68 100 48 100 C48 100.66 48 101.32 48 102 C47.34 102 46.68 102 46 102 C46 102.66 46 103.32 46 104 C45.34 104 44.68 104 44 104 C44 104.66 44 105.32 44 106 C43.34 106 42.68 106 42 106 C41.505 107.98 41.505 107.98 41 110 C40.34 110 39.68 110 39 110 C39 110.66 39 111.32 39 112 C37.68 112.33 36.36 112.66 35 113 C35 113.66 35 114.32 35 115 C34.34 115 33.68 115 33 115 C33 115.66 33 116.32 33 117 C32.34 117 31.68 117 31 117 C31 117.66 31 118.32 31 119 C30.34 119 29.68 119 29 119 C28.505 120.98 28.505 120.98 28 123 C27.34 123 26.68 123 26 123 C26 123.66 26 124.32 26 125 C24.02 125.495 24.02 125.495 22 126 C22 126.66 22 127.32 22 128 C21.34 128 20.68 128 20 128 C20 128.66 20 129.32 20 130 C19.34 130 18.68 130 18 130 C18 130.66 18 131.32 18 132 C17.34 132 16.68 132 16 132 C15.67 133.32 15.34 134.64 15 136 C14.34 136 13.68 136 13 136 C13 136.66 13 137.32 13 138 C11.68 138.33 10.36 138.66 9 139 C9 139.66 9 140.32 9 141 C8.34 141 7.68 141 7 141 C7 141.66 7 142.32 7 143 C6.34 143 5.68 143 5 143 C5 143.66 5 144.32 5 145 C4.34 145 3.68 145 3 145 C3 145.66 3 146.32 3 147 C2.01 147 1.02 147 0 147 C0 147.66 0 148.32 0 149 C-0.66 149 -1.32 149 -2 149 C-2 149.66 -2 150.32 -2 151 C-6.95 151 -11.9 151 -17 151 C-17 150.34 -17 149.68 -17 149 C-18.32 149 -19.64 149 -21 149 C-21 148.34 -21 147.68 -21 147 C-21.66 147 -22.32 147 -23 147 C-23 146.34 -23 145.68 -23 145 C-23.66 145 -24.32 145 -25 145 C-25.33 142.69 -25.66 140.38 -26 138 C-26.66 138 -27.32 138 -28 138 C-28 133.71 -28 129.42 -28 125 C-27.34 125 -26.68 125 -26 125 C-25.67 123.02 -25.34 121.04 -25 119 C-24.34 119 -23.68 119 -23 119 C-23 118.34 -23 117.68 -23 117 C-22.34 117 -21.68 117 -21 117 C-21 116.34 -21 115.68 -21 115 C-20.34 115 -19.68 115 -19 115 C-19 114.34 -19 113.68 -19 113 C-18.34 113 -17.68 113 -17 113 C-17 112.34 -17 111.68 -17 111 C-15.02 110.505 -15.02 110.505 -13 110 C-12.67 108.68 -12.34 107.36 -12 106 C-11.34 106 -10.68 106 -10 106 C-10 105.34 -10 104.68 -10 104 C-9.34 104 -8.68 104 -8 104 C-8 103.34 -8 102.68 -8 102 C-7.34 102 -6.68 102 -6 102 C-6 101.34 -6 100.68 -6 100 C-4.02 99.505 -4.02 99.505 -2 99 C-1.67 97.68 -1.34 96.36 -1 95 C-0.34 95 0.32 95 1 95 C1 94.34 1 93.68 1 93 C1.66 93 2.32 93 3 93 C3 92.34 3 91.68 3 91 C3.66 91 4.32 91 5 91 C5 90.34 5 89.68 5 89 C5.66 89 6.32 89 7 89 C7 88.34 7 87.68 7 87 C7.66 87 8.32 87 9 87 C9 86.34 9 85.68 9 85 C10.98 84.505 10.98 84.505 13 84 C13.495 82.02 13.495 82.02 14 80 C14.66 80 15.32 80 16 80 C16 79.34 16 78.68 16 78 C16.66 78 17.32 78 18 78 C18 77.34 18 76.68 18 76 C18.66 76 19.32 76 20 76 C20 75.34 20 74.68 20 74 C20.66 74 21.32 74 22 74 C22 73.34 22 72.68 22 72 C21.34 72 20.68 72 20 72 C20 71.34 20 70.68 20 70 C18.68 69.67 17.36 69.34 16 69 C16 68.34 16 67.68 16 67 C15.34 67 14.68 67 14 67 C13.67 65.68 13.34 64.36 13 63 C12.34 63 11.68 63 11 63 C11 62.34 11 61.68 11 61 C10.34 61 9.68 61 9 61 C9 60.34 9 59.68 9 59 C8.34 59 7.68 59 7 59 C7 58.34 7 57.68 7 57 C5.68 56.67 4.36 56.34 3 56 C3 55.34 3 54.68 3 54 C2.34 54 1.68 54 1 54 C0.67 52.68 0.34 51.36 0 50 C-0.66 50 -1.32 50 -2 50 C-2 49.34 -2 48.68 -2 48 C-2.66 48 -3.32 48 -4 48 C-4 47.34 -4 46.68 -4 46 C-4.66 46 -5.32 46 -6 46 C-6 45.34 -6 44.68 -6 44 C-7.32 43.67 -8.64 43.34 -10 43 C-10 42.34 -10 41.68 -10 41 C-10.66 41 -11.32 41 -12 41 C-12 39.68 -12 38.36 -12 37 C-11.34 37 -10.68 37 -10 37 C-10 34.69 -10 32.38 -10 30 C-9.34 30 -8.68 30 -8 30 C-8 28.02 -8 26.04 -8 24 C-7.34 24 -6.68 24 -6 24 C-6 22.68 -6 21.36 -6 20 C-5.34 20 -4.68 20 -4 20 C-4 17.69 -4 15.38 -4 13 C-3.34 13 -2.68 13 -2 13 C-1.90912109 11.84371094 -1.90912109 11.84371094 -1.81640625 10.6640625 C-1.73261719 9.66117188 -1.64882813 8.65828125 -1.5625 7.625 C-1.48128906 6.62726562 -1.40007813 5.62953125 -1.31640625 4.6015625 C-1 2 -1 2 0 0 Z " fill="#06A644" transform="translate(597,751)"/>
<path d="M0 0 C0.02517599 4.28262988 0.04307876 8.56521779 0.05493164 12.84790039 C0.05988546 14.29745232 0.06665038 15.74699946 0.07543945 17.1965332 C0.13435597 27.18114937 -0.19732028 37.04478062 -1 47 C-34.6718137 47.86698637 -68.31762763 48.13418666 -102 48 C-102 46.35 -102 44.7 -102 43 C-103.65 43 -105.3 43 -107 43 C-107 29.47 -107 15.94 -107 2 C-97.79196544 1.6564624 -88.58388997 1.31916012 -79.375 1 C-78.68986454 0.9762455 -78.00472908 0.952491 -77.29883194 0.92801666 C-51.52658838 0.04016623 -25.78826267 -0.25147957 0 0 Z " fill="#F0F0F0" transform="translate(703,971)"/>
<path d="M0 0 C10.23589583 -0.06358248 20.44955516 0.13043318 30.6796875 0.4375 C32.22909034 0.48251705 33.77849842 0.52735412 35.32791138 0.57202148 C39.35554284 0.68860529 43.38309965 0.80759144 47.41064453 0.92712402 C52.27005139 1.07082651 57.12954787 1.21146376 61.98902893 1.35263062 C69.32608955 1.56610613 76.66302768 1.78341041 84 2 C84 15.2 84 28.4 84 42 C55.62 42 27.24 42 -2 42 C-2 26.25 -2 26.25 -1.5625 20.5078125 C-1.47226563 19.28964844 -1.38203125 18.07148437 -1.2890625 16.81640625 C-1.19367188 15.59824219 -1.09828125 14.38007812 -1 13.125 C-0.90460938 11.85269531 -0.80921875 10.58039062 -0.7109375 9.26953125 C-0.47858941 6.17930172 -0.24064142 3.08959114 0 0 Z " fill="#EFEFF0" transform="translate(1274,971)"/>
<path d="M0 0 C6.54189191 7.45048801 5.85792515 17.15460921 5.25 26.5625 C4.76379821 29.9534458 4.12279092 33.25057018 3.25 36.5625 C-16.73753837 36.82411699 -16.73753837 36.82411699 -22.55566406 32.09472656 C-26.14920302 28.27431737 -28.9105307 23.95364955 -31.75 19.5625 C-33.39083016 17.71762105 -33.39083016 17.71762105 -34.75 16.5625 C-33.22190421 12.19072926 -29.83852242 10.0959015 -26.1875 7.5625 C-25.55706787 7.12115723 -24.92663574 6.67981445 -24.27709961 6.22509766 C-8.63373877 -4.51309072 -8.63373877 -4.51309072 0 0 Z " fill="#393A50" transform="translate(1412.75,722.4375)"/>
<path d="M0 0 C5.72485167 7.04582381 4.515791 17.33286902 4 26 C3.17762912 30.38396242 1.70791002 33.81071116 -0.5625 37.625 C-4.76989342 39.99840142 -8.45533917 39.24444404 -13 38 C-21.63226697 34.32309804 -28.94784333 29.12884947 -36 23 C-34.52739404 19.64488745 -32.6126089 17.30035297 -30.125 14.625 C-27.7411497 12.05986831 -26.00914105 10.01846584 -24.4453125 6.859375 C-20.68044045 2.45700066 -16.3037041 2.39321541 -10.75 1.625 C-9.71875 1.46128906 -8.6875 1.29757812 -7.625 1.12890625 C-5.08596894 0.72924395 -2.54573529 0.35396269 0 0 Z " fill="#393A50" transform="translate(1414,823)"/>
<path d="M0 0 C1.37548025 3.22049477 2.72149275 6.45251589 4.0625 9.6875 C4.45244141 10.59951172 4.84238281 11.51152344 5.24414062 12.45117188 C5.60830078 13.33740234 5.97246094 14.22363281 6.34765625 15.13671875 C6.68804932 15.94842529 7.02844238 16.76013184 7.37915039 17.59643555 C8.4818723 21.86552605 6.94608721 25.44534322 5.37109375 29.42578125 C4.90219727 30.61977539 4.90219727 30.61977539 4.42382812 31.83789062 C4.09833984 32.65451172 3.77285156 33.47113281 3.4375 34.3125 C3.10814453 35.14845703 2.77878906 35.98441406 2.43945312 36.84570312 C1.63001123 38.89863546 0.81676543 40.94997286 0 43 C-9.97722766 41.28857774 -18.57021404 36.79424418 -26 30 C-26.56074219 29.49339844 -27.12148437 28.98679687 -27.69921875 28.46484375 C-30.33174869 25.7601897 -30.99191508 24.23042036 -31.125 20.4375 C-29.7653556 16.283031 -28.35588218 14.78466819 -25 12 C-24.46632813 11.52820313 -23.93265625 11.05640625 -23.3828125 10.5703125 C-17.37768652 5.59610943 -7.95044698 0 0 0 Z " fill="#39394F" transform="translate(1323,770)"/>
<path d="M0 0 C19.74226885 -0.38965004 19.74226885 -0.38965004 26.4140625 4.921875 C28.13446991 7.20004007 29.54805629 9.54439028 31 12 C32.88822198 14.14368731 34.84012171 16.20754127 36.8125 18.2734375 C37.4003125 19.12808594 37.4003125 19.12808594 38 20 C35.71756083 26.84731752 25.62818116 31.87726703 19.4375 35 C14.49547547 37.33711505 10.54760625 38.66953868 5 38 C0.21158304 33.53081084 -1.76037395 29.139806 -2.265625 22.51953125 C-2.23305148 14.79146361 -1.75496099 7.53693068 0 0 Z " fill="#39394F" transform="translate(1328,824)"/>
<path d="M0 0 C11.79910768 3.08785158 21.83210941 7.6166495 30 17 C31.5625 20.5625 31.5625 20.5625 31 24 C24.94825472 34.25991253 12.72279157 39.16558403 2 43 C1.34 43 0.68 43 0 43 C-1.14928044 39.91794058 -2.29381663 36.83414029 -3.4375 33.75 C-3.76298828 32.87730469 -4.08847656 32.00460937 -4.42382812 31.10546875 C-4.73642578 30.26113281 -5.04902344 29.41679688 -5.37109375 28.546875 C-5.65911865 27.77182617 -5.94714355 26.99677734 -6.24389648 26.19824219 C-8.18496125 20.554927 -7.40873865 17.53554734 -5.1875 12 C-4.77661133 10.93265625 -4.77661133 10.93265625 -4.35742188 9.84375 C-3.04922789 6.48071894 -1.70177932 3.18772322 0 0 Z " fill="#39384E" transform="translate(1421,770)"/>
<path d="M0 0 C9.93107237 2.71938089 18.25355938 9.14272197 25.91015625 15.796875 C24.43755029 19.15198755 22.52276515 21.49652203 20.03515625 24.171875 C17.6554997 26.73249403 15.88052745 28.8531489 14.2421875 31.96484375 C10.86327942 36.06820784 7.57610086 36.15012926 2.47265625 36.734375 C1.62638672 36.85876953 0.78011719 36.98316406 -0.09179688 37.11132812 C-4.31535843 37.68350992 -7.93311392 38.03450503 -12.08984375 36.796875 C-16.54036261 12.51770517 -16.54036261 12.51770517 -9.52734375 1.296875 C-6.15134633 -0.78066188 -3.8680455 -0.56966797 0 0 Z " fill="#39394F" transform="translate(1340.08984375,721.203125)"/>
<path d="M0 0 C4.14205652 4.19803026 6.15918948 7.3435106 6.3125 13.25 C6.23902331 18.3666492 5.63706507 21.18108168 2 25 C-1.72199811 28.09617542 -5.19885734 30.29238479 -10.125 30.5 C-15.71016317 29.77933378 -19.16751338 28.19692722 -22.8125 23.9375 C-26.31623137 19.2324893 -26.51539746 15.93713735 -26.48046875 10.125 C-25.69157467 4.99398156 -22.95338655 2.17267576 -19 -1 C-12.91431524 -4.74503677 -5.7413728 -3.82758186 0 0 Z " fill="#60D7F8" transform="translate(1382,778)"/>
<path d="M0 0 C3.40951722 1.13650574 4.37636276 2.25813125 6.6875 4.9375 C7.62142578 6.00291016 7.62142578 6.00291016 8.57421875 7.08984375 C10 9 10 9 10 11 C4.06 11 -1.88 11 -8 11 C-6.4005386 7.80107719 -5.17187081 5.84646265 -2.875 3.25 C-2.33617187 2.63640625 -1.79734375 2.0228125 -1.2421875 1.390625 C-0.62730469 0.70226562 -0.62730469 0.70226562 0 0 Z " fill="#3A3E55" transform="translate(1371,744)"/>
<path d="M0 0 C3.65866294 4.32387438 5 8.34923902 5 14 C3.60582227 14.34019152 2.20955342 14.67181779 0.8125 15 C0.03519531 15.185625 -0.74210937 15.37125 -1.54296875 15.5625 C-4.07990225 16.01422743 -6.42879903 16.07307143 -9 16 C-8.06385433 14.27009975 -7.12602042 12.54111304 -6.1875 10.8125 C-5.66542969 9.84957031 -5.14335938 8.88664063 -4.60546875 7.89453125 C-3.12536134 5.22601643 -1.58662491 2.60625773 0 0 Z " fill="#3B4157" transform="translate(1408,802)"/>
<path d="M0 0 C5.94 0 11.88 0 18 0 C16.4005386 3.19892281 15.17187081 5.15353735 12.875 7.75 C12.06675781 8.67039062 12.06675781 8.67039062 11.2421875 9.609375 C10.62730469 10.29773438 10.62730469 10.29773438 10 11 C6.8510285 9.63088196 4.9521513 8.1247864 2.75 5.5 C2.22921875 4.8915625 1.7084375 4.283125 1.171875 3.65625 C0 2 0 2 0 0 Z " fill="#3A3D53" transform="translate(1363,828)"/>
<path d="M0 0 C2.99999941 2.63076871 4.72382055 5.74179832 6.6875 9.1875 C7.31011719 10.27417969 7.93273438 11.36085938 8.57421875 12.48046875 C9.04472656 13.31191406 9.51523438 14.14335938 10 15 C6.59598052 16.13732426 4.22543336 15.83989957 0.75 15.0625 C-0.14203125 14.86785156 -1.0340625 14.67320312 -1.953125 14.47265625 C-2.62859375 14.31667969 -3.3040625 14.16070313 -4 14 C-3.46148032 8.72250715 -2.22656164 4.74354436 0 0 Z " fill="#3B4057" transform="translate(1335,802)"/>
<path d="M0 0 C9.41002278 0.96355353 9.41002278 0.96355353 14 2 C13.00956295 6.83628305 12.04301154 11.47618873 10 16 C7.02092825 13.37841686 5.27874101 10.2963418 3.3125 6.875 C2.37857422 5.26238281 2.37857422 5.26238281 1.42578125 3.6171875 C0 1 0 1 0 0 Z " fill="#3A3E54" transform="translate(1399,765)"/>
<path d="M0 0 C-4.455 7.425 -4.455 7.425 -9 15 C-11.18614424 12.81385576 -11.68256535 11.46120051 -12.625 8.5625 C-12.88539062 7.78003906 -13.14578125 6.99757813 -13.4140625 6.19140625 C-14 4 -14 4 -14 1 C-12.23103898 0.63659714 -10.45973374 0.28459117 -8.6875 -0.0625 C-7.70136719 -0.25972656 -6.71523437 -0.45695313 -5.69921875 -0.66015625 C-3 -1 -3 -1 0 0 Z " fill="#3A3D54" transform="translate(1345,766)"/>
</svg>
