<?xml version="1.0" encoding="UTF-8"?>
<svg version="1.1" xmlns="http://www.w3.org/2000/svg" width="574" height="656">
<path d="M0 0 C3.96 0 7.92 0 12 0 C12 0.33 12 0.66 12 1 C14.31 1.33 16.62 1.66 19 2 C19 2.66 19 3.32 19 4 C20.98 4 22.96 4 25 4 C25 4.66 25 5.32 25 6 C26.11375 6.185625 26.11375 6.185625 27.25 6.375 C29.80141485 6.95486701 31.7267573 7.73708739 34 9 C34 9.66 34 10.32 34 11 C34.556875 11.226875 35.11375 11.45375 35.6875 11.6875 C38.66159588 13.37550036 40.72008865 15.46676517 43 18 C43 18.66 43 19.32 43 20 C43.66 20 44.32 20 45 20 C47 22 47 22 47 26 C47.66 26 48.32 26 49 26 C55.20809619 39.95103534 57.35556213 53.16351054 51.9765625 67.78125 C51.01731916 70.20316936 50.02911431 72.60705944 49 75 C48.34 75 47.68 75 47 75 C47 75.99 47 76.98 47 78 C46.34 78 45.68 78 45 78 C45 78.66 45 79.32 45 80 C44.34 80 43.68 80 43 80 C42.731875 80.556875 42.46375 81.11375 42.1875 81.6875 C40.89100504 84.21225334 39.57523677 86.63714484 38 89 C37.34 89 36.68 89 36 89 C36 89.66 36 90.32 36 91 C35.34 91 34.68 91 34 91 C34 91.66 34 92.32 34 93 C33.34 93 32.68 93 32 93 C32 93.66 32 94.32 32 95 C31.34 95 30.68 95 30 95 C30 95.66 30 96.32 30 97 C29.21625 97.2475 28.4325 97.495 27.625 97.75 C24.5144918 99.23119438 24.38379532 99.97294774 23 103 C20.5 105.75 20.5 105.75 18 108 C17.34 108 16.68 108 16 108 C16 108.66 16 109.32 16 110 C15.34 110 14.68 110 14 110 C13.34 111.65 12.68 113.3 12 115 C11.34 115 10.68 115 10 115 C10 115.66 10 116.32 10 117 C9.34 117 8.68 117 8 117 C8 117.66 8 118.32 8 119 C7.34 119 6.68 119 6 119 C6 119.66 6 120.32 6 121 C4.31504003 122.44888852 2.57537451 123.83448799 0.8125 125.1875 C-3.74829904 128.81034551 -6.81869722 132.17673449 -10 137 C-10.66 137 -11.32 137 -12 137 C-12 137.66 -12 138.32 -12 139 C-12.66 139 -13.32 139 -14 139 C-14 139.66 -14 140.32 -14 141 C-14.66 141 -15.32 141 -16 141 C-16 141.66 -16 142.32 -16 143 C-16.66 143 -17.32 143 -18 143 C-18 143.66 -18 144.32 -18 145 C-18.66 145 -19.32 145 -20 145 C-20.33 145.99 -20.66 146.98 -21 148 C-21.66 148 -22.32 148 -23 148 C-23 148.66 -23 149.32 -23 150 C-23.66 150 -24.32 150 -25 150 C-25 150.66 -25 151.32 -25 152 C-25.928125 152.598125 -26.85625 153.19625 -27.8125 153.8125 C-31.04023598 156.02761293 -32.14333654 157.65800576 -34 161 C-34.66 161 -35.32 161 -36 161 C-36 161.66 -36 162.32 -36 163 C-36.66 163 -37.32 163 -38 163 C-38 163.66 -38 164.32 -38 165 C-38.66 165 -39.32 165 -40 165 C-40 165.66 -40 166.32 -40 167 C-40.66 167 -41.32 167 -42 167 C-42 167.66 -42 168.32 -42 169 C-42.66 169 -43.32 169 -44 169 C-44.33 169.99 -44.66 170.98 -45 172 C-45.66 172 -46.32 172 -47 172 C-47 172.66 -47 173.32 -47 174 C-47.66 174 -48.32 174 -49 174 C-49 174.66 -49 175.32 -49 176 C-49.66 176 -50.32 176 -51 176 C-51 176.66 -51 177.32 -51 178 C-51.9590625 178.433125 -51.9590625 178.433125 -52.9375 178.875 C-55.15206079 179.82823451 -55.15206079 179.82823451 -56 182 C-56.66 182 -57.32 182 -58 182 C-58.66 183.65 -59.32 185.3 -60 187 C-60.66 187 -61.32 187 -62 187 C-62 187.66 -62 188.32 -62 189 C-62.66 189 -63.32 189 -64 189 C-64 189.66 -64 190.32 -64 191 C-64.66 191 -65.32 191 -66 191 C-66 191.66 -66 192.32 -66 193 C-66.66 193 -67.32 193 -68 193 C-68 193.99 -68 194.98 -68 196 C-67.34 196 -66.68 196 -66 196 C-66 196.66 -66 197.32 -66 198 C-65.34 198 -64.68 198 -64 198 C-64 198.66 -64 199.32 -64 200 C-63.34 200 -62.68 200 -62 200 C-62 200.66 -62 201.32 -62 202 C-61.34 202 -60.68 202 -60 202 C-60 202.66 -60 203.32 -60 204 C-59.01 204.33 -58.02 204.66 -57 205 C-57 205.66 -57 206.32 -57 207 C-56.34 207 -55.68 207 -55 207 C-55 207.66 -55 208.32 -55 209 C-54.34 209 -53.68 209 -53 209 C-53 209.66 -53 210.32 -53 211 C-52.34 211 -51.68 211 -51 211 C-51 211.66 -51 212.32 -51 213 C-50.34 213 -49.68 213 -49 213 C-49 213.66 -49 214.32 -49 215 C-48.34 215 -47.68 215 -47 215 C-47 215.66 -47 216.32 -47 217 C-46.01 217.33 -45.02 217.66 -44 218 C-44 218.66 -44 219.32 -44 220 C-43.34 220 -42.68 220 -42 220 C-42 220.66 -42 221.32 -42 222 C-41.34 222 -40.68 222 -40 222 C-40 222.66 -40 223.32 -40 224 C-39.34 224 -38.68 224 -38 224 C-38 224.66 -38 225.32 -38 226 C-37.34 226 -36.68 226 -36 226 C-33.375 228.375 -33.375 228.375 -31 231 C-31 231.66 -31 232.32 -31 233 C-30.34 233 -29.68 233 -29 233 C-29 233.66 -29 234.32 -29 235 C-28.34 235 -27.68 235 -27 235 C-27 235.66 -27 236.32 -27 237 C-26.34 237 -25.68 237 -25 237 C-25 237.66 -25 238.32 -25 239 C-24.34 239 -23.68 239 -23 239 C-23 239.66 -23 240.32 -23 241 C-22.01 241.33 -21.02 241.66 -20 242 C-20 242.66 -20 243.32 -20 244 C-19.34 244 -18.68 244 -18 244 C-18 244.66 -18 245.32 -18 246 C-17.34 246 -16.68 246 -16 246 C-16 246.66 -16 247.32 -16 248 C-15.34 248 -14.68 248 -14 248 C-14 248.66 -14 249.32 -14 250 C-13.34 250 -12.68 250 -12 250 C-9.375 252.375 -9.375 252.375 -7 255 C-7 255.66 -7 256.32 -7 257 C-6.34 257 -5.68 257 -5 257 C-5 257.66 -5 258.32 -5 259 C-4.34 259 -3.68 259 -3 259 C-3 259.66 -3 260.32 -3 261 C-2.34 261 -1.68 261 -1 261 C-1 261.66 -1 262.32 -1 263 C-0.34 263 0.32 263 1 263 C1 263.66 1 264.32 1 265 C1.99 265.33 2.98 265.66 4 266 C4 266.66 4 267.32 4 268 C4.66 268 5.32 268 6 268 C6 268.66 6 269.32 6 270 C6.66 270 7.32 270 8 270 C8 270.66 8 271.32 8 272 C8.66 272 9.32 272 10 272 C10 272.66 10 273.32 10 274 C10.66 274 11.32 274 12 274 C12 274.66 12 275.32 12 276 C12.66 276 13.32 276 14 276 C14 278.64 14 281.28 14 284 C13.67 284 13.34 284 13 284 C12.67 286.31 12.34 288.62 12 291 C11.34 291 10.68 291 10 291 C10 292.98 10 294.96 10 297 C9.34 297 8.68 297 8 297 C8 298.65 8 300.3 8 302 C7.34 302 6.68 302 6 302 C5.8453125 303.4540625 5.8453125 303.4540625 5.6875 304.9375 C5.15365232 308.75953994 3.97374251 312.21291158 2.69921875 315.84375 C1.82847563 318.52894667 1.35850962 321.20362496 1 324 C0.34 324 -0.32 324 -1 324 C-1 325.98 -1 327.96 -1 330 C-1.33 330 -1.66 330 -2 330 C-2.33 331.65 -2.66 333.3 -3 335 C-3.66 335 -4.32 335 -5 335 C-5.12375 335.94875 -5.2475 336.8975 -5.375 337.875 C-6.04765054 342.62254802 -7.02728241 347.30640153 -8 352 C-8.66 352 -9.32 352 -10 352 C-10 354.31 -10 356.62 -10 359 C-10.66 359 -11.32 359 -12 359 C-12 361.64 -12 364.28 -12 367 C-12.33 367 -12.66 367 -13 367 C-13.33 368.65 -13.66 370.3 -14 372 C-14.66 372 -15.32 372 -16 372 C-15.95875 372.94875 -15.9175 373.8975 -15.875 374.875 C-16 378 -16 378 -18 380 C-20.9425963 379.69347955 -23.34542308 379.32728846 -26 378 C-26 377.34 -26 376.68 -26 376 C-26.66 376 -27.32 376 -28 376 C-28 375.34 -28 374.68 -28 374 C-28.99 373.67 -29.98 373.34 -31 373 C-31 372.34 -31 371.68 -31 371 C-31.66 371 -32.32 371 -33 371 C-33 370.34 -33 369.68 -33 369 C-33.556875 368.7525 -34.11375 368.505 -34.6875 368.25 C-37.42410913 366.77075182 -39.67650869 365.06532561 -42 363 C-42 362.34 -42 361.68 -42 361 C-42.66 361 -43.32 361 -44 361 C-44.66 359.35 -45.32 357.7 -46 356 C-46.66 356 -47.32 356 -48 356 C-48 355.34 -48 354.68 -48 354 C-48.556875 353.79375 -49.11375 353.5875 -49.6875 353.375 C-51.94696811 352.03153247 -52.9998656 350.94842298 -54.625 348.9375 C-56.67119397 345.99175287 -56.67119397 345.99175287 -59 345 C-59 344.34 -59 343.68 -59 343 C-59.598125 342.71125 -60.19625 342.4225 -60.8125 342.125 C-63 341 -63 341 -66 339 C-66 338.34 -66 337.68 -66 337 C-66.66 337 -67.32 337 -68 337 C-68 336.34 -68 335.68 -68 335 C-68.66 335 -69.32 335 -70 335 C-70 334.01 -70 333.02 -70 332 C-70.66 332 -71.32 332 -72 332 C-73.36176922 330.35648543 -74.68962066 328.68477344 -76 327 C-78.33832768 324.54475594 -80.57297673 322.31161157 -83.3125 320.3125 C-83.869375 319.879375 -84.42625 319.44625 -85 319 C-85 318.34 -85 317.68 -85 317 C-85.66 317 -86.32 317 -87 317 C-87.639375 316.195625 -88.27875 315.39125 -88.9375 314.5625 C-90.81035932 311.76279268 -90.81035932 311.76279268 -94 311 C-94 310.01 -94 309.02 -94 308 C-94.66 308 -95.32 308 -96 308 C-96 307.34 -96 306.68 -96 306 C-96.66 306 -97.32 306 -98 306 C-99.48046875 304.42578125 -99.48046875 304.42578125 -101.1875 302.3125 C-103.53133898 299.53316693 -105.71896415 297.32031993 -108.75 295.3125 C-111.97702429 293.0163481 -113.15958502 291.40476771 -115 288 C-115.99 287.34 -116.98 286.68 -118 286 C-118 285.34 -118 284.68 -118 284 C-118.59167969 283.74734375 -119.18335937 283.4946875 -119.79296875 283.234375 C-122.26013061 281.85451102 -123.53711829 280.43638893 -125.3125 278.25 C-128.94339428 273.95396345 -132.90428926 269.54785537 -138 267 C-138 266.34 -138 265.68 -138 265 C-138.66 264.67 -139.32 264.34 -140 264 C-140.92119161 262.9946231 -141.80719193 261.95671555 -142.671875 260.90234375 C-146.01450006 256.92916882 -149.58198248 253.23440313 -153.25 249.5625 C-153.87390625 248.92634766 -154.4978125 248.29019531 -155.140625 247.63476562 C-155.73875 247.03470703 -156.336875 246.43464844 -156.953125 245.81640625 C-157.49098633 245.27443604 -158.02884766 244.73246582 -158.58300781 244.17407227 C-159.94997554 242.78732813 -159.94997554 242.78732813 -162 243 C-162 242.34 -162 241.68 -162 241 C-162.66 241 -163.32 241 -164 241 C-168 236.52941176 -168 236.52941176 -168 234 C-168.66 234 -169.32 234 -170 234 C-175.41293762 228.88698768 -180.25170027 222.41426368 -184 216 C-184 215.01 -184 214.02 -184 213 C-184.66 213 -185.32 213 -186 213 C-186 211.02 -186 209.04 -186 207 C-186.66 207 -187.32 207 -188 207 C-188.05805933 202.75005737 -188.09361654 198.50021676 -188.125 194.25 C-188.14175781 193.0434375 -188.15851563 191.836875 -188.17578125 190.59375 C-188.18222656 189.43359375 -188.18867188 188.2734375 -188.1953125 187.078125 C-188.20578613 186.00981445 -188.21625977 184.94150391 -188.22705078 183.84082031 C-188.00161519 181.02020895 -187.45848994 179.39212537 -186 177 C-185.34 177 -184.68 177 -184 177 C-183.89816406 176.29488281 -183.79632813 175.58976563 -183.69140625 174.86328125 C-182.90085188 171.58940355 -181.59476266 169.11415533 -179.9375 166.1875 C-179.38964844 165.21167969 -178.84179688 164.23585937 -178.27734375 163.23046875 C-177.85582031 162.49441406 -177.43429688 161.75835937 -177 161 C-176.34 161 -175.68 161 -175 161 C-175 160.34 -175 159.68 -175 159 C-174.34 159 -173.68 159 -173 159 C-173 158.34 -173 157.68 -173 157 C-171.28515625 155.34375 -171.28515625 155.34375 -169.0625 153.5 C-166.07954821 151.11073001 -166.07954821 151.11073001 -164 148 C-163.34 148 -162.68 148 -162 148 C-162 147.34 -162 146.68 -162 146 C-161.34 146 -160.68 146 -160 146 C-160 145.34 -160 144.68 -160 144 C-158.824375 143.6596875 -158.824375 143.6596875 -157.625 143.3125 C-154.78125 142.21875 -154.78125 142.21875 -153.6875 139.375 C-153.3471875 138.199375 -153.3471875 138.199375 -153 137 C-152.34 137 -151.68 137 -151 137 C-151 136.34 -151 135.68 -151 135 C-150.34 135 -149.68 135 -149 135 C-149 134.34 -149 133.68 -149 133 C-148.34 133 -147.68 133 -147 133 C-147 132.34 -147 131.68 -147 131 C-142.52941176 127 -142.52941176 127 -140 127 C-140 126.01 -140 125.02 -140 124 C-139.34 124 -138.68 124 -138 124 C-138 123.34 -138 122.68 -138 122 C-137.34 122 -136.68 122 -136 122 C-136 121.34 -136 120.68 -136 120 C-135.21625 119.773125 -134.4325 119.54625 -133.625 119.3125 C-130.78125 118.21875 -130.78125 118.21875 -129.6875 115.375 C-129.3471875 114.199375 -129.3471875 114.199375 -129 113 C-128.34 113 -127.68 113 -127 113 C-127 112.34 -127 111.68 -127 111 C-126.34 111 -125.68 111 -125 111 C-125 110.34 -125 109.68 -125 109 C-124.34 109 -123.68 109 -123 109 C-123 108.34 -123 107.68 -123 107 C-120.625 104.375 -120.625 104.375 -118 102 C-117.34 102 -116.68 102 -116 102 C-116 101.34 -116 100.68 -116 100 C-115.01 99.67 -114.02 99.34 -113 99 C-112.505 97.515 -112.505 97.515 -112 96 C-107.54285714 92 -107.54285714 92 -105 92 C-105 91.01 -105 90.02 -105 89 C-104.34 89 -103.68 89 -103 89 C-103 88.34 -103 87.68 -103 87 C-102.34 87 -101.68 87 -101 87 C-101 86.34 -101 85.68 -101 85 C-100.34 85 -99.68 85 -99 85 C-99 84.34 -99 83.68 -99 83 C-96.625 80.375 -96.625 80.375 -94 78 C-93.34 78 -92.68 78 -92 78 C-92 77.34 -92 76.68 -92 76 C-90.35546875 74.4140625 -90.35546875 74.4140625 -88.1875 72.625 C-85.93749143 70.76433718 -84.09649715 69.13127297 -82.36328125 66.7734375 C-81.91339844 66.18820313 -81.46351563 65.60296875 -81 65 C-80.34 65 -79.68 65 -79 65 C-79 64.34 -79 63.68 -79 63 C-78.34 63 -77.68 63 -77 63 C-77 62.34 -77 61.68 -77 61 C-76.34 61 -75.68 61 -75 61 C-75 60.34 -75 59.68 -75 59 C-72.625 56.375 -72.625 56.375 -70 54 C-69.34 54 -68.68 54 -68 54 C-68 53.34 -68 52.68 -68 52 C-67.34 52 -66.68 52 -66 52 C-66 51.34 -66 50.68 -66 50 C-65.01 50 -64.02 50 -63 50 C-62.731875 49.41734375 -62.46375 48.8346875 -62.1875 48.234375 C-60.98519009 45.97213399 -59.66174087 44.19423682 -58 42.25 C-57.484375 41.63640625 -56.96875 41.0228125 -56.4375 40.390625 C-55 39 -55 39 -53 39 C-53 38.34 -53 37.68 -53 37 C-52.34 37 -51.68 37 -51 37 C-51 36.34 -51 35.68 -51 35 C-48.625 32.375 -48.625 32.375 -46 30 C-45.34 30 -44.68 30 -44 30 C-44 29.34 -44 28.68 -44 28 C-43.34 28 -42.68 28 -42 28 C-42 27.34 -42 26.68 -42 26 C-40.28515625 24.34375 -40.28515625 24.34375 -38.0625 22.5 C-35.07954821 20.11073001 -35.07954821 20.11073001 -33 17 C-32.34 17 -31.68 17 -31 17 C-31 16.34 -31 15.68 -31 15 C-30.34 15 -29.68 15 -29 15 C-29 14.34 -29 13.68 -29 13 C-28.34 13 -27.68 13 -27 13 C-27 12.34 -27 11.68 -27 11 C-24.94414903 9.82006797 -22.88163459 8.65621545 -20.8125 7.5 C-19.66394531 6.8503125 -18.51539063 6.200625 -17.33203125 5.53125 C-14.14862918 4.06830321 -12.42692535 3.63859168 -9 4 C-9 3.34 -9 2.68 -9 2 C-4.545 1.505 -4.545 1.505 0 1 C0 0.67 0 0.34 0 0 Z " fill="#4274F5" transform="translate(220,43)"/>
<path d="M0 0 C1.98 0 3.96 0 6 0 C6 0.66 6 1.32 6 2 C6.66 2 7.32 2 8 2 C8 2.66 8 3.32 8 4 C8.66 4 9.32 4 10 4 C10 4.66 10 5.32 10 6 C10.556875 6.20625 11.11375 6.4125 11.6875 6.625 C14.97012371 8.57683032 16.70673246 10.94230994 19 14 C19 14.66 19 15.32 19 16 C19.598125 16.28875 20.19625 16.5775 20.8125 16.875 C23 18 23 18 26 20 C26 20.66 26 21.32 26 22 C26.66 22 27.32 22 28 22 C28 22.66 28 23.32 28 24 C28.66 24 29.32 24 30 24 C30 24.66 30 25.32 30 26 C30.66 26 31.32 26 32 26 C32 26.66 32 27.32 32 28 C32.66 28 33.32 28 34 28 C36.625 30.375 36.625 30.375 39 33 C39 33.66 39 34.32 39 35 C39.66 35 40.32 35 41 35 C41.99 37.475 41.99 37.475 43 40 C43.66 40 44.32 40 45 40 C45 40.66 45 41.32 45 42 C45.598125 42.28875 46.19625 42.5775 46.8125 42.875 C49 44 49 44 52 46 C52 46.66 52 47.32 52 48 C52.66 48 53.32 48 54 48 C54 48.66 54 49.32 54 50 C54.66 50 55.32 50 56 50 C56 50.66 56 51.32 56 52 C56.66 52 57.32 52 58 52 C59.65625 53.609375 59.65625 53.609375 61.5 55.75 C62.1084375 56.44609375 62.716875 57.1421875 63.34375 57.859375 C64.87976963 59.84460792 65.9723966 61.71872045 67 64 C67.66 64 68.32 64 69 64 C69 64.66 69 65.32 69 66 C69.66 66 70.32 66 71 66 C71 66.66 71 67.32 71 68 C71.598125 68.28875 72.19625 68.5775 72.8125 68.875 C75 70 75 70 78 72 C78 72.66 78 73.32 78 74 C78.66 74 79.32 74 80 74 C80 74.66 80 75.32 80 76 C80.66 76 81.32 76 82 76 C82 76.66 82 77.32 82 78 C82.99 78.33 83.98 78.66 85 79 C85 79.66 85 80.32 85 81 C85.66 81 86.32 81 87 81 C91 85.47058824 91 85.47058824 91 88 C91.66 88 92.32 88 93 88 C93 88.66 93 89.32 93 90 C93.66 90 94.32 90 95 90 C95 90.66 95 91.32 95 92 C95.99 92 96.98 92 98 92 C98 92.66 98 93.32 98 94 C98.66 94 99.32 94 100 94 C100 94.66 100 95.32 100 96 C100.66 96 101.32 96 102 96 C102 96.66 102 97.32 102 98 C102.66 98 103.32 98 104 98 C104 98.66 104 99.32 104 100 C104.66 100 105.32 100 106 100 C107.625 101.375 107.625 101.375 109 103 C109 103.66 109 104.32 109 105 C109.66 105 110.32 105 111 105 C111 105.66 111 106.32 111 107 C111.66 107 112.32 107 113 107 C113.66 108.65 114.32 110.3 115 112 C115.66 112 116.32 112 117 112 C117 112.66 117 113.32 117 114 C117.66 114 118.32 114 119 114 C119 114.66 119 115.32 119 116 C119.66 116 120.32 116 121 116 C121 116.66 121 117.32 121 118 C121.99 118 122.98 118 124 118 C124 118.66 124 119.32 124 120 C124.66 120 125.32 120 126 120 C126 120.66 126 121.32 126 122 C126.66 122 127.32 122 128 122 C128 122.66 128 123.32 128 124 C128.66 124 129.32 124 130 124 C131.625 125.375 131.625 125.375 133 127 C133 127.66 133 128.32 133 129 C133.66 129 134.32 129 135 129 C137.125 130.875 137.125 130.875 139 133 C139 133.66 139 134.32 139 135 C139.66 135 140.32 135 141 135 C141 135.99 141 136.98 141 138 C141.66 138 142.32 138 143 138 C143 138.66 143 139.32 143 140 C143.66 140 144.32 140 145 140 C145 140.66 145 141.32 145 142 C146.65 142.66 148.3 143.32 150 144 C150 144.66 150 145.32 150 146 C150.66 146 151.32 146 152 146 C152 146.66 152 147.32 152 148 C152.66 148 153.32 148 154 148 C154 148.66 154 149.32 154 150 C154.66 150 155.32 150 156 150 C158.61046448 152.84777943 160.42676569 155.13066838 161 159 C161.66 159 162.32 159 163 159 C163 160.65 163 162.3 163 164 C163.66 164 164.32 164 165 164 C170.75929902 172.63894853 170.03850807 186.06169178 168.546875 196.02734375 C168.10275715 198.03539087 167.56498415 200.02255549 167 202 C166.34 202 165.68 202 165 202 C165 203.65 165 205.3 165 207 C164.34 207 163.68 207 163 207 C163 207.99 163 208.98 163 210 C162.34 210 161.68 210 161 210 C161 210.99 161 211.98 161 213 C160.34 213 159.68 213 159 213 C158.731875 213.556875 158.46375 214.11375 158.1875 214.6875 C156.89100504 217.21225334 155.57523677 219.63714484 154 222 C153.34 222 152.68 222 152 222 C152 222.66 152 223.32 152 224 C150.68 224.33 149.36 224.66 148 225 C148 225.66 148 226.32 148 227 C145.625 229.625 145.625 229.625 143 232 C142.34 232 141.68 232 141 232 C141 232.99 141 233.98 141 235 C140.01 235 139.02 235 138 235 C137.773125 235.5775 137.54625 236.155 137.3125 236.75 C135.67490316 239.55730887 133.52735142 240.99107964 131 243 C130.67 243.99 130.34 244.98 130 246 C129.34 246 128.68 246 128 246 C128 246.66 128 247.32 128 248 C127.34 248 126.68 248 126 248 C126 248.66 126 249.32 126 250 C124.01310269 251.35278115 122.01254782 252.68568305 120 254 C119.67 254.66 119.34 255.32 119 256 C118.34 256 117.68 256 117 256 C117 256.99 117 257.98 117 259 C116.34 259 115.68 259 115 259 C115 259.66 115 260.32 115 261 C114.01 261 113.02 261 112 261 C111.7525 261.61875 111.505 262.2375 111.25 262.875 C110 265 110 265 108 265.9375 C105.25013332 267.39836667 104.91166696 269.11305462 104 272 C103.34 272 102.68 272 102 272 C102 272.66 102 273.32 102 274 C97.52941176 278 97.52941176 278 95 278 C95 278.66 95 279.32 95 280 C94.34 280 93.68 280 93 280 C93 280.99 93 281.98 93 283 C92.34 283 91.68 283 91 283 C91 283.66 91 284.32 91 285 C90.01 285 89.02 285 88 285 C87.7525 285.61875 87.505 286.2375 87.25 286.875 C85.79371361 289.35068687 84.62187494 289.95125002 82 291 C82 291.99 82 292.98 82 294 C81.34 294 80.68 294 80 294 C80 294.66 80 295.32 80 296 C79.01 296 78.02 296 77 296 C76.62875 296.86625 76.62875 296.86625 76.25 297.75 C74.81700012 300.32939979 73.21575324 302.06121592 71 304 C70.34 304 69.68 304 69 304 C69 304.99 69 305.98 69 307 C68.34 307 67.68 307 67 307 C67 307.66 67 308.32 67 309 C65.28515625 310.65625 65.28515625 310.65625 63.0625 312.5 C60.07954821 314.88926999 60.07954821 314.88926999 58 318 C57.34 318 56.68 318 56 318 C56 318.66 56 319.32 56 320 C54.35546875 321.69140625 54.35546875 321.69140625 52.1875 323.5625 C51.47980469 324.18253906 50.77210938 324.80257813 50.04296875 325.44140625 C48 327 48 327 45 328 C45 328.66 45 329.32 45 330 C44.34 330 43.68 330 43 330 C43 330.99 43 331.98 43 333 C42.34 333 41.68 333 41 333 C41 333.66 41 334.32 41 335 C36.52941176 339 36.52941176 339 34 339 C34 339.99 34 340.98 34 342 C33.34 342 32.68 342 32 342 C32 342.66 32 343.32 32 344 C31.21625 344.226875 30.4325 344.45375 29.625 344.6875 C26.31827043 346.34086479 26.28226023 347.66612339 25 351 C22.875 351.8125 22.875 351.8125 21 352 C21 352.66 21 353.32 21 354 C20.34 354 19.68 354 19 354 C19 354.99 19 355.98 19 357 C18.34 357 17.68 357 17 357 C17 357.66 17 358.32 17 359 C15.01739574 360.68732277 13.0167658 362.35366057 11 364 C10.67 364.66 10.34 365.32 10 366 C8.02111039 366.72693904 6.02045442 367.39816251 4 368 C4 368.66 4 369.32 4 370 C3.01 370 2.02 370 1 370 C1 370.66 1 371.32 1 372 C-10.55324438 379.1285976 -22.46443064 380.97006581 -35.8828125 378.4609375 C-38.03133068 377.77970003 -39.9780253 376.99230381 -42 376 C-42.76183594 375.64035156 -43.52367187 375.28070312 -44.30859375 374.91015625 C-46.22425643 373.97722521 -48.11519852 372.99380442 -50 372 C-50 371.34 -50 370.68 -50 370 C-50.99 370 -51.98 370 -53 370 C-53 369.34 -53 368.68 -53 368 C-53.66 368 -54.32 368 -55 368 C-55 367.34 -55 366.68 -55 366 C-55.66 366 -56.32 366 -57 366 C-57 365.34 -57 364.68 -57 364 C-58.32 363.67 -59.64 363.34 -61 363 C-61 362.34 -61 361.68 -61 361 C-61.66 361 -62.32 361 -63 361 C-63.33 359.68 -63.66 358.36 -64 357 C-64.66 357 -65.32 357 -66 357 C-66.66 355.02 -67.32 353.04 -68 351 C-68.66 351 -69.32 351 -70 351 C-74.79571549 343.80642676 -74.24872625 336.43305657 -74.125 328.0625 C-74.11597656 326.90169922 -74.10695313 325.74089844 -74.09765625 324.54492188 C-74.07421162 321.69639892 -74.04139522 318.84830922 -74 316 C-73.34 316 -72.68 316 -72 316 C-72 314.02 -72 312.04 -72 310 C-71.34 310 -70.68 310 -70 310 C-69.9175 309.484375 -69.835 308.96875 -69.75 308.4375 C-68.67859775 304.95544268 -66.86476395 302.12799115 -65 299 C-64.34 299 -63.68 299 -63 299 C-62.34 297.35 -61.68 295.7 -61 294 C-60.34 294 -59.68 294 -59 294 C-59 293.34 -59 292.68 -59 292 C-57.35546875 290.4140625 -57.35546875 290.4140625 -55.1875 288.625 C-52.93749143 286.76433718 -51.09649715 285.13127297 -49.36328125 282.7734375 C-48.91339844 282.18820312 -48.46351563 281.60296875 -48 281 C-47.34 281 -46.68 281 -46 281 C-46 280.34 -46 279.68 -46 279 C-45.34 279 -44.68 279 -44 279 C-44 278.34 -44 277.68 -44 277 C-43.34 277 -42.68 277 -42 277 C-42 276.34 -42 275.68 -42 275 C-39.625 272.375 -39.625 272.375 -37 270 C-36.34 270 -35.68 270 -35 270 C-35 269.34 -35 268.68 -35 268 C-34.34 268 -33.68 268 -33 268 C-33 267.34 -33 266.68 -33 266 C-32.34 266 -31.68 266 -31 266 C-31 265.34 -31 264.68 -31 264 C-29.01739574 262.31267723 -27.0167658 260.64633943 -25 259 C-24.67 258.34 -24.34 257.68 -24 257 C-23.34 257 -22.68 257 -22 257 C-22 256.34 -22 255.68 -22 255 C-21.34 255 -20.68 255 -20 255 C-20 254.34 -20 253.68 -20 253 C-19.34 253 -18.68 253 -18 253 C-18 252.34 -18 251.68 -18 251 C-17.34 251 -16.68 251 -16 251 C-16 250.34 -16 249.68 -16 249 C-14.625 247.375 -14.625 247.375 -13 246 C-12.34 246 -11.68 246 -11 246 C-11 245.34 -11 244.68 -11 244 C-9.35546875 242.4140625 -9.35546875 242.4140625 -7.1875 240.625 C-4.93749143 238.76433718 -3.09649715 237.13127297 -1.36328125 234.7734375 C-0.91339844 234.18820312 -0.46351563 233.60296875 0 233 C0.66 233 1.32 233 2 233 C2 232.34 2 231.68 2 231 C2.66 231 3.32 231 4 231 C4 230.34 4 229.68 4 229 C4.66 229 5.32 229 6 229 C6 228.34 6 227.68 6 227 C6.66 227 7.32 227 8 227 C8.268125 226.360625 8.53625 225.72125 8.8125 225.0625 C10 223 10 223 13 222 C13 221.34 13 220.68 13 220 C13.66 220 14.32 220 15 220 C15 219.34 15 218.68 15 218 C16.6796875 216.37890625 16.6796875 216.37890625 18.875 214.5625 C21.46193722 212.41599116 23.11184374 210.83223438 25 208 C25.99 207.67 26.98 207.34 28 207 C28 206.34 28 205.68 28 205 C28.66 205 29.32 205 30 205 C30 204.34 30 203.68 30 203 C30.66 203 31.32 203 32 203 C32.33 202.01 32.66 201.02 33 200 C33.66 200 34.32 200 35 200 C35 199.34 35 198.68 35 198 C35.66 198 36.32 198 37 198 C37 197.34 37 196.68 37 196 C37.66 196 38.32 196 39 196 C39 195.34 39 194.68 39 194 C39.66 194 40.32 194 41 194 C41 193.34 41 192.68 41 192 C42.52834853 190.76431395 44.05765382 189.52972509 45.59765625 188.30859375 C47.34023014 186.68251505 47.82474344 185.36596356 48 183 C47.34 183 46.68 183 46 183 C44.375 181.625 44.375 181.625 43 180 C43 179.34 43 178.68 43 178 C42.34 178 41.68 178 41 178 C41 177.34 41 176.68 41 176 C40.34 176 39.68 176 39 176 C39 175.34 39 174.68 39 174 C38.34 174 37.68 174 37 174 C37 173.34 37 172.68 37 172 C36.34 172 35.68 172 35 172 C35 171.01 35 170.02 35 169 C34.34 169 33.68 169 33 169 C33 168.34 33 167.68 33 167 C32.01 167 31.02 167 30 167 C30 166.34 30 165.68 30 165 C29.34 165 28.68 165 28 165 C28 164.34 28 163.68 28 163 C27.34 163 26.68 163 26 163 C26 162.34 26 161.68 26 161 C25.34 161 24.68 161 24 161 C24 160.34 24 159.68 24 159 C23.34 159 22.68 159 22 159 C19.375 156.625 19.375 156.625 17 154 C17 153.34 17 152.68 17 152 C16.34 152 15.68 152 15 152 C15 151.34 15 150.68 15 150 C14.34 150 13.68 150 13 150 C13 149.34 13 148.68 13 148 C12.34 148 11.68 148 11 148 C10.54625 147.21625 10.0925 146.4325 9.625 145.625 C7.92348887 142.8764051 6.95480916 142.12078968 4 141 C4 140.34 4 139.68 4 139 C3.34 139 2.68 139 2 139 C2 138.34 2 137.68 2 137 C1.34 137 0.68 137 0 137 C0 136.34 0 135.68 0 135 C-0.66 135 -1.32 135 -2 135 C-2 134.34 -2 133.68 -2 133 C-2.66 133 -3.32 133 -4 133 C-6.42870746 130.97607712 -7.71480435 128.86697492 -9 126 C-9.66 126 -10.32 126 -11 126 C-11 125.34 -11 124.68 -11 124 C-11.66 124 -12.32 124 -13 124 C-13 123.34 -13 122.68 -13 122 C-13.66 122 -14.32 122 -15 122 C-16.625 120.625 -16.625 120.625 -18 119 C-18 118.34 -18 117.68 -18 117 C-18.66 117 -19.32 117 -20 117 C-20 116.34 -20 115.68 -20 115 C-20.66 115 -21.32 115 -22 115 C-22 114.34 -22 113.68 -22 113 C-22.66 113 -23.32 113 -24 113 C-24 112.34 -24 111.68 -24 111 C-24.66 111 -25.32 111 -26 111 C-26 110.34 -26 109.68 -26 109 C-26.99 108.67 -27.98 108.34 -29 108 C-29 107.34 -29 106.68 -29 106 C-29.66 106 -30.32 106 -31 106 C-31.41223573 98.82404475 -30.62141962 92.72333012 -28 86 C-27.67 85.67 -27.34 85.34 -27 85 C-26.63239269 82.67182036 -26.29758419 80.3381615 -26 78 C-25.34 78 -24.68 78 -24 78 C-24 76.02 -24 74.04 -24 72 C-23.34 72 -22.68 72 -22 72 C-22 70.02 -22 68.04 -22 66 C-21.34 66 -20.68 66 -20 66 C-20.0825 65.21625 -20.165 64.4325 -20.25 63.625 C-19.90400992 58.60814382 -17.95899439 54.58599835 -16 50 C-14.38539169 45.66605138 -13.55133853 41.59448772 -13 37 C-12.67 37 -12.34 37 -12 37 C-11.67 35.35 -11.34 33.7 -11 32 C-10.34 32 -9.68 32 -9 32 C-9 30.35 -9 28.7 -9 27 C-8.34 27 -7.68 27 -7 27 C-7.061875 26.236875 -7.12375 25.47375 -7.1875 24.6875 C-6.74706245 16.02556153 -3.37671243 7.9018499 0 0 Z " fill="#09A646" transform="translate(366,230)"/>
<path d="M0 0 C6.93 0 13.86 0 21 0 C21 0.66 21 1.32 21 2 C22.65 2 24.3 2 26 2 C26 2.66 26 3.32 26 4 C27.32 4 28.64 4 30 4 C30 4.66 30 5.32 30 6 C30.99 6 31.98 6 33 6 C33 6.66 33 7.32 33 8 C33.66 8 34.32 8 35 8 C35 8.66 35 9.32 35 10 C35.66 10 36.32 10 37 10 C37 10.99 37 11.98 37 13 C37.66 13 38.32 13 39 13 C39 13.66 39 14.32 39 15 C39.66 15 40.32 15 41 15 C41 15.66 41 16.32 41 17 C41.66 17 42.32 17 43 17 C47.25946071 23.76950005 48.49391748 29.89367023 48.5 37.75 C48.50580078 38.55348877 48.51160156 39.35697754 48.51757812 40.18481445 C48.40680857 45.54329157 47.28338969 49.17308761 45 54 C44.24897484 56.80603178 44.24897484 56.80603178 43.8125 59.4375 C43.65394531 60.30246094 43.49539063 61.16742188 43.33203125 62.05859375 C43.22246094 62.69925781 43.11289062 63.33992188 43 64 C42.34 64 41.68 64 41 64 C41 65.98 41 67.96 41 70 C40.67 70 40.34 70 40 70 C39.67 71.65 39.34 73.3 39 75 C38.67 75 38.34 75 38 75 C37.67 77.31 37.34 79.62 37 82 C36.34 82 35.68 82 35 82 C34.9175 83.03125 34.835 84.0625 34.75 85.125 C34.09119715 90.59208035 32.4220492 95.76443433 30.83984375 101.0234375 C29.90948328 103.80534547 29.90948328 103.80534547 30 106 C29.34 106 28.68 106 28 106 C28.04125 107.258125 28.0825 108.51625 28.125 109.8125 C28.2390374 113.29064073 28.05925681 113.91111478 26 117 C25.34 117 24.68 117 24 117 C23.89816406 117.92941406 23.79632813 118.85882813 23.69140625 119.81640625 C22.95231838 124.99002133 21.41147462 129.93419405 19.9375 134.9375 C19.65583984 135.90751953 19.37417969 136.87753906 19.08398438 137.87695312 C18.39353534 140.25256591 17.69877999 142.62682705 17 145 C16.34 145 15.68 145 15 145 C15 146.98 15 148.96 15 151 C14.67 151 14.34 151 14 151 C13.67 152.98 13.34 154.96 13 157 C12.34 157 11.68 157 11 157 C11.03996094 157.86625 11.07992187 158.7325 11.12109375 159.625 C10.99416792 163.16254568 10.27395089 165.68898832 9.0625 169 C7.606545 173.0077901 6.59749318 176.77352192 6 181 C5.34 181 4.68 181 4 181 C4 182.98 4 184.96 4 187 C3.34 187 2.68 187 2 187 C2.04125 188.2375 2.0825 189.475 2.125 190.75 C2.23788569 194.13657078 1.62107007 196.04126372 0 199 C-3.20033225 206.5757865 -6.01430016 213.78583469 -7 222 C-7.33 222 -7.66 222 -8 222 C-8.33 223.65 -8.66 225.3 -9 227 C-9.33 227 -9.66 227 -10 227 C-10.33 228.65 -10.66 230.3 -11 232 C-11.66 232 -12.32 232 -13 232 C-12.9175 233.11375 -12.835 234.2275 -12.75 235.375 C-12.72546246 239.98805728 -14.21784999 243.47717949 -16.04296875 247.65625 C-17.16548544 250.40527045 -17.68966883 253.05185388 -18 256 C-18.66 256 -19.32 256 -20 256 C-20 258.31 -20 260.62 -20 263 C-20.66 263 -21.32 263 -22 263 C-22 265.31 -22 267.62 -22 270 C-22.66 270 -23.32 270 -24 270 C-24.185625 271.27423828 -24.185625 271.27423828 -24.375 272.57421875 C-25.01728652 276.09475172 -25.93808075 279.39639947 -27 282.8125 C-27.350625 283.95332031 -27.70125 285.09414063 -28.0625 286.26953125 C-29 289 -29 289 -30 290 C-30.36760731 292.32817964 -30.70241581 294.6618385 -31 297 C-31.33 297 -31.66 297 -32 297 C-32.185625 298.60875 -32.185625 298.60875 -32.375 300.25 C-32.89643936 303.37863615 -33.40088254 305.33480424 -35 308 C-35.66 308 -36.32 308 -37 308 C-36.95875 308.86625 -36.9175 309.7325 -36.875 310.625 C-37.00687506 314.18562665 -37.77649561 316.66934915 -39 320 C-39.33 321.175625 -39.66 322.35125 -40 323.5625 C-41 327 -41 327 -42.0625 329.5 C-43.23647514 332.63060038 -43.61052675 335.68947735 -44 339 C-44.33 339 -44.66 339 -45 339 C-45.33 340.98 -45.66 342.96 -46 345 C-46.33 345 -46.66 345 -47 345 C-50.09429366 354.97204812 -50.09429366 354.97204812 -53 365 C-53.66 365 -54.32 365 -55 365 C-55 367.31 -55 369.62 -55 372 C-55.66 372 -56.32 372 -57 372 C-56.95875 373.0725 -56.9175 374.145 -56.875 375.25 C-56.9885825 378.65747485 -57.21273364 380.20739631 -59 383 C-59.66 383 -60.32 383 -61 383 C-60.94005859 384.28390625 -60.94005859 384.28390625 -60.87890625 385.59375 C-61.00890243 389.25041675 -61.77944554 392.03820019 -62.9375 395.5 C-64.32257796 399.67012721 -65.37715493 403.64664079 -66 408 C-66.66 408 -67.32 408 -68 408 C-68 410.31 -68 412.62 -68 415 C-68.33 415 -68.66 415 -69 415 C-69.33 416.65 -69.66 418.3 -70 420 C-70.66 420 -71.32 420 -72 420 C-71.938125 420.804375 -71.87625 421.60875 -71.8125 422.4375 C-72.05356314 427.01769975 -73.41836298 430.72494762 -75 435 C-75.53947266 436.49660156 -75.53947266 436.49660156 -76.08984375 438.0234375 C-77.05134278 440.68552378 -78.02197743 443.34394886 -79 446 C-79.66 446 -80.32 446 -81 446 C-81 448.64 -81 451.28 -81 454 C-81.33 454 -81.66 454 -82 454 C-82.33 455.65 -82.66 457.3 -83 459 C-83.66 459 -84.32 459 -85 459 C-84.95875 459.86625 -84.9175 460.7325 -84.875 461.625 C-85.00860666 465.23237974 -85.80285093 467.59757632 -87 471 C-88.04819287 474.98824604 -89.02736017 478.9927239 -90 483 C-90.66 483 -91.32 483 -92 483 C-91.95875 483.845625 -91.9175 484.69125 -91.875 485.5625 C-92.01535028 489.42213269 -92.82780164 492.33688013 -94 496 C-94.66 496 -95.32 496 -96 496 C-96 497.65 -96 499.3 -96 501 C-96.66 501 -97.32 501 -98 501 C-97.9484375 501.82757812 -97.896875 502.65515625 -97.84375 503.5078125 C-98.02985453 507.66724883 -99.1055631 510.98565167 -100.5 514.875 C-100.73847656 515.56335938 -100.97695312 516.25171875 -101.22265625 516.9609375 C-101.80688039 518.64350304 -102.40230111 520.32217383 -103 522 C-103.66 522 -104.32 522 -105 522 C-105 523.32 -105 524.64 -105 526 C-105.99 526.66 -106.98 527.32 -108 528 C-108.33 528.99 -108.66 529.98 -109 531 C-109.66 531 -110.32 531 -111 531 C-111 531.66 -111 532.32 -111 533 C-111.66 533 -112.32 533 -113 533 C-113.0515625 533.61488281 -113.103125 534.22976563 -113.15625 534.86328125 C-114 537 -114 537 -116.46875 538.23046875 C-117.4690625 538.54628906 -118.469375 538.86210938 -119.5 539.1875 C-123.03092035 540.10126987 -123.03092035 540.10126987 -126 542 C-128.67058851 542.14115161 -131.32432238 542.04247107 -134 542 C-134 542.66 -134 543.32 -134 544 C-136.31 544 -138.62 544 -141 544 C-141 543.34 -141 542.68 -141 542 C-143.97 542 -146.94 542 -150 542 C-150 541.34 -150 540.68 -150 540 C-150.721875 539.87625 -151.44375 539.7525 -152.1875 539.625 C-154.95721894 539.0095069 -157.3970354 538.11555626 -160 537 C-160 536.34 -160 535.68 -160 535 C-160.99 535 -161.98 535 -163 535 C-163.33 533.68 -163.66 532.36 -164 531 C-164.66 531 -165.32 531 -166 531 C-170 526.52941176 -170 526.52941176 -170 524 C-170.66 524 -171.32 524 -172 524 C-176.75725409 512.7864725 -177.14512915 502.7942343 -174 491 C-173.34 491 -172.68 491 -172 491 C-172.061875 489.3603125 -172.061875 489.3603125 -172.125 487.6875 C-172 484 -172 484 -170 481 C-166.84863982 473.56176929 -164.80967547 465.85563668 -163 458 C-162.34 458 -161.68 458 -161 458 C-161 456.02 -161 454.04 -161 452 C-160.67 452 -160.34 452 -160 452 C-159.67 450.02 -159.34 448.04 -159 446 C-158.34 446 -157.68 446 -157 446 C-157.0928125 444.5459375 -157.0928125 444.5459375 -157.1875 443.0625 C-157.19541458 439.13686736 -156.128759 435.95201535 -154.80078125 432.2890625 C-153.61917868 428.91140832 -152.82270739 425.48068513 -152 422 C-151.34 422 -150.68 422 -150 422 C-150 420.02 -150 418.04 -150 416 C-149.34 416 -148.68 416 -148 416 C-148 413.69 -148 411.38 -148 409 C-147.67 409 -147.34 409 -147 409 C-146.81824219 408.35933594 -146.63648438 407.71867187 -146.44921875 407.05859375 C-145.29293591 403.07979485 -144.12952744 399.29014146 -142.4375 395.5 C-140.62536963 391.0878565 -139.80141764 386.68593609 -139 382 C-138.34 382 -137.68 382 -137 382 C-137 380.02 -137 378.04 -137 376 C-136.67 376 -136.34 376 -136 376 C-135.67 374.02 -135.34 372.04 -135 370 C-134.34 370 -133.68 370 -133 370 C-133.04125 369.13375 -133.0825 368.2675 -133.125 367.375 C-132.99157028 363.77239762 -132.2147121 361.38840742 -131 358 C-130.48745234 356.19100825 -129.98862451 354.37809972 -129.5 352.5625 C-128.36993515 348.36347733 -127.20684625 344.1775447 -126 340 C-125.34 340 -124.68 340 -124 340 C-124 337.69 -124 335.38 -124 333 C-123.34 333 -122.68 333 -122 333 C-122.04898438 332.29359375 -122.09796875 331.5871875 -122.1484375 330.859375 C-121.97401926 327.49952887 -121.02195409 325.3023043 -119.625 322.25 C-117.40491731 317.16833763 -115.99834996 312.44554526 -115 307 C-114.34 307 -113.68 307 -113 307 C-113 304.69 -113 302.38 -113 300 C-112.67 300 -112.34 300 -112 300 C-111.67 298.02 -111.34 296.04 -111 294 C-110.34 294 -109.68 294 -109 294 C-109.061875 293.195625 -109.12375 292.39125 -109.1875 291.5625 C-108.94712573 286.99538885 -107.55667428 283.26852767 -106 279 C-104.24771824 274.01463498 -102.67559792 269.2696638 -102 264 C-101.67 264 -101.34 264 -101 264 C-100.67 262.35 -100.34 260.7 -100 259 C-99.34 259 -98.68 259 -98 259 C-98.103125 257.9275 -98.20625 256.855 -98.3125 255.75 C-98.33991066 250.59679582 -96.32228806 246.55655238 -94.24609375 241.921875 C-92.70757464 238.31431296 -91.80993197 234.82876931 -91 231 C-90.34 231 -89.68 231 -89 231 C-89 228.69 -89 226.38 -89 224 C-88.67 224 -88.34 224 -88 224 C-87.80664062 223.19175781 -87.61328125 222.38351562 -87.4140625 221.55078125 C-87.15367187 220.48214844 -86.89328125 219.41351563 -86.625 218.3125 C-86.36976563 217.25675781 -86.11453125 216.20101562 -85.8515625 215.11328125 C-85.07880846 212.28812085 -84.08567569 209.71418921 -83 207 C-82.42674959 204.90421754 -81.88557559 202.7994263 -81.375 200.6875 C-81.11460937 199.61886719 -80.85421875 198.55023438 -80.5859375 197.44921875 C-80.39257812 196.64097656 -80.19921875 195.83273438 -80 195 C-79.34 195 -78.68 195 -78 195 C-78 192.69 -78 190.38 -78 188 C-77.67 188 -77.34 188 -77 188 C-76.67 186.35 -76.34 184.7 -76 183 C-75.34 183 -74.68 183 -74 183 C-74.061875 182.175 -74.12375 181.35 -74.1875 180.5 C-73.9996094 176.99270882 -73.11841158 174.44663837 -71.7890625 171.22265625 C-70.62925531 167.95567461 -70.14046227 164.61952569 -69.625 161.19921875 C-68.90190462 158.65482688 -67.88442216 157.78995245 -66 156 C-65.2730774 152.89160979 -65.2730774 152.89160979 -65 150 C-64.34 150 -63.68 150 -63 150 C-63 147.69 -63 145.38 -63 143 C-62.34 143 -61.68 143 -61 143 C-61.061875 142.030625 -61.12375 141.06125 -61.1875 140.0625 C-61.19536981 136.15120607 -60.12552628 133.0032264 -58.80078125 129.35546875 C-57.53908994 125.64424991 -56.77129525 121.83832812 -56 118 C-55.34 118 -54.68 118 -54 118 C-54 116.35 -54 114.7 -54 113 C-53.34 113 -52.68 113 -52 113 C-52 111.02 -52 109.04 -52 107 C-51.34 107 -50.68 107 -50 107 C-49.82984375 105.50146484 -49.82984375 105.50146484 -49.65625 103.97265625 C-49.08321652 99.96243078 -47.86255986 96.24098853 -46.5 92.4375 C-44.9164378 87.98995244 -43.63682108 83.69655547 -43 79 C-42.34 79 -41.68 79 -41 79 C-41 77.35 -41 75.7 -41 74 C-40.34 74 -39.68 74 -39 74 C-39 72.02 -39 70.04 -39 68 C-38.34 68 -37.68 68 -37 68 C-37.0825 67.071875 -37.165 66.14375 -37.25 65.1875 C-37.272059 59.76098554 -34.97103173 54.96911447 -33 50 C-31.72007298 46.56440642 -30.89237521 43.49948287 -30.5 39.875 C-30.06110984 36.47360127 -29.6248312 34.86734917 -28 32 C-27.31039038 30.00779443 -26.63920943 28.00894394 -26 26 C-25.34 26 -24.68 26 -24 26 C-23.9175 25.34 -23.835 24.68 -23.75 24 C-22.75240209 20.00960837 -20.92833317 16.61450357 -19 13 C-18.34 13 -17.68 13 -17 13 C-17 12.34 -17 11.68 -17 11 C-15.68 10.67 -14.36 10.34 -13 10 C-13 9.34 -13 8.68 -13 8 C-12.34 8 -11.68 8 -11 8 C-11 7.34 -11 6.68 -11 6 C-10.01 6 -9.02 6 -8 6 C-8 5.34 -8 4.68 -8 4 C-6.68 4 -5.36 4 -4 4 C-4 3.34 -4 2.68 -4 2 C-2.68 2 -1.36 2 0 2 C0 1.34 0 0.68 0 0 Z " fill="white" transform="translate(348,54)"/>
<path d="M0 0 C0.33 0 0.66 0 1 0 C1 2.97 1 5.94 1 9 C1.66 9 2.32 9 3 9 C3 6.69 3 4.38 3 2 C3.66 2 4.32 2 5 2 C5.33 1.34 5.66 0.68 6 0 C6.33 4.62 6.66 9.24 7 14 C6.34 14 5.68 14 5 14 C5 12.68 5 11.36 5 10 C4.34 10 3.68 10 3 10 C3 11.65 3 13.3 3 15 C3.66 15 4.32 15 5 15 C5.33 17.64 5.66 20.28 6 23 C6.66 23 7.32 23 8 23 C8.66 21.35 9.32 19.7 10 18 C12.64 18.33 15.28 18.66 18 19 C17.34 19.99 16.68 20.98 16 22 C14.68 22 13.36 22 12 22 C11.34 22.99 10.68 23.98 10 25 C10.5053125 25.55429687 11.010625 26.10859375 11.53125 26.6796875 C12.1809375 27.40414062 12.830625 28.12859375 13.5 28.875 C14.1496875 29.59429688 14.799375 30.31359375 15.46875 31.0546875 C17 33 17 33 17 35 C16.34 35 15.68 35 15 35 C15 34.34 15 33.68 15 33 C14.01 33 13.02 33 12 33 C11.67 31.68 11.34 30.36 11 29 C10.34 29 9.68 29 9 29 C5 24.52941176 5 24.52941176 5 22 C4.34 22 3.68 22 3 22 C0.04238121 15.02847001 -1.7006267 8.59283818 -1 1 C-0.67 0.67 -0.34 0.34 0 0 Z " fill="#534C5B" transform="translate(173,556)"/>
<path d="M0 0 C0.99 0.33 1.98 0.66 3 1 C1.68 6.28 0.36 11.56 -1 17 C-1.66 17 -2.32 17 -3 17 C-3 18.98 -3 20.96 -3 23 C-3.66 23 -4.32 23 -5 23 C-4.95875 24.2375 -4.9175 25.475 -4.875 26.75 C-4.86341709 30.01637962 -5.1431298 32.2146947 -7 35 C-7.66 35 -8.32 35 -9 35 C-9 32.03 -9 29.06 -9 26 C-8.34 26 -7.68 26 -7 26 C-6.34 22.7 -5.68 19.4 -5 16 C-4.34 16 -3.68 16 -3 16 C-2.97291433 14.39592672 -2.95356517 12.7917215 -2.9375 11.1875 C-2.92589844 10.29417969 -2.91429687 9.40085938 -2.90234375 8.48046875 C-2.88990033 5.86586209 -2.88990033 5.86586209 -4 3 C-3.34 3 -2.68 3 -2 3 C-1.67 2.34 -1.34 1.68 -1 1 C-0.67 0.67 -0.34 0.34 0 0 Z " fill="#59555F" transform="translate(355,218)"/>
<path d="M0 0 C0.99 0.33 1.98 0.66 3 1 C3.67619586 9.52006783 1.64555693 16.41636569 -0.90625 24.4375 C-2.09783218 27.69755008 -2.09783218 27.69755008 -2 30 C-2.66 30 -3.32 30 -4 30 C-4 32.64 -4 35.28 -4 38 C-6 36 -6 36 -6.1953125 34.0546875 C-6.09765625 31.02734375 -6.09765625 31.02734375 -6 28 C-5.34 28 -4.68 28 -4 28 C-3.67 24.7 -3.34 21.4 -3 18 C-3.66 18 -4.32 18 -5 18 C-5.33 19.32 -5.66 20.64 -6 22 C-6 20.35 -6 18.7 -6 17 C-4.35 17 -2.7 17 -1 17 C-0.855625 16.278125 -0.71125 15.55625 -0.5625 14.8125 C-0.04166667 12.20833333 0.47916667 9.60416667 1 7 C0.34 7 -0.32 7 -1 7 C-0.67 4.69 -0.34 2.38 0 0 Z " fill="#554F5E" transform="translate(380,130)"/>
<path d="M0 0 C5.28 0 10.56 0 16 0 C16 0.66 16 1.32 16 2 C12.04 2 8.08 2 4 2 C4 2.66 4 3.32 4 4 C2.02 4 0.04 4 -2 4 C-2 4.66 -2 5.32 -2 6 C-0.68 6.33 0.64 6.66 2 7 C1.67 7.66 1.34 8.32 1 9 C0.01 8.67 -0.98 8.34 -2 8 C-2 8.66 -2 9.32 -2 10 C-2.99 9.67 -3.98 9.34 -5 9 C-4.34 9 -3.68 9 -3 9 C-3 8.01 -3 7.02 -3 6 C-4.27450447 6.59638333 -5.54446877 7.20247416 -6.8125 7.8125 C-7.52019531 8.14894531 -8.22789062 8.48539063 -8.95703125 8.83203125 C-11.01129035 10.00645471 -12.41616278 11.25628016 -14 13 C-14.66 12.67 -15.32 12.34 -16 12 C-15.67 11.34 -15.34 10.68 -15 10 C-14.34 10 -13.68 10 -13 10 C-13 9.34 -13 8.68 -13 8 C-12.34 8 -11.68 8 -11 8 C-11 7.34 -11 6.68 -11 6 C-10.01 6 -9.02 6 -8 6 C-8 5.34 -8 4.68 -8 4 C-6.68 4 -5.36 4 -4 4 C-4 3.34 -4 2.68 -4 2 C-2.68 2 -1.36 2 0 2 C0 1.34 0 0.68 0 0 Z " fill="#554F5D" transform="translate(348,54)"/>
<path d="M0 0 C0.66 0 1.32 0 2 0 C2 0.66 2 1.32 2 2 C1.34 2 0.68 2 0 2 C0 2.99 0 3.98 0 5 C-0.66 5 -1.32 5 -2 5 C-2 5.66 -2 6.32 -2 7 C-3.98260426 8.68732277 -5.9832342 10.35366057 -8 12 C-8.33 12.66 -8.66 13.32 -9 14 C-10.97888961 14.72693904 -12.97954558 15.39816251 -15 16 C-15 16.66 -15 17.32 -15 18 C-15.99 18 -16.98 18 -18 18 C-18 18.66 -18 19.32 -18 20 C-20.31 21.32 -22.62 22.64 -25 24 C-24.835 23.401875 -24.67 22.80375 -24.5 22.1875 C-23.8885876 19.88655664 -23.8885876 19.88655664 -24 17 C-22.68 17 -21.36 17 -20 17 C-20 16.34 -20 15.68 -20 15 C-16.535 14.505 -16.535 14.505 -13 14 C-12.67 12.68 -12.34 11.36 -12 10 C-10.35 9.67 -8.7 9.34 -7 9 C-7 8.34 -7 7.68 -7 7 C-6.34 7 -5.68 7 -5 7 C-5 6.34 -5 5.68 -5 5 C-4.34 5 -3.68 5 -3 5 C-2.690625 4.360625 -2.38125 3.72125 -2.0625 3.0625 C-1 1 -1 1 0 0 Z " fill="#4EB674" transform="translate(385,582)"/>
<path d="M0 0 C0.66 0 1.32 0 2 0 C1.48517081 5.852795 0.54642808 11.3297637 -1 17 C-1.66 17 -2.32 17 -3 17 C-3 19.31 -3 21.62 -3 24 C-3.33 24 -3.66 24 -4 24 C-4.33 25.65 -4.66 27.3 -5 29 C-5.99 29 -6.98 29 -8 29 C-7.343621 24.51474352 -6.29925791 20.33085971 -5 16 C-4.34 16 -3.68 16 -3 16 C-3 14.02 -3 12.04 -3 10 C-3.66 10 -4.32 10 -5 10 C-5 11.65 -5 13.3 -5 15 C-5.66 14.34 -6.32 13.68 -7 13 C-6.7578125 10.6171875 -6.7578125 10.6171875 -6.125 7.875 C-5.92132813 6.96492188 -5.71765625 6.05484375 -5.5078125 5.1171875 C-5.34023438 4.41851562 -5.17265625 3.71984375 -5 3 C-4.67 3 -4.34 3 -4 3 C-4 4.65 -4 6.3 -4 8 C-3.01 8.33 -2.02 8.66 -1 9 C-0.67 6.03 -0.34 3.06 0 0 Z " fill="#625C6A" transform="translate(283,445)"/>
<path d="M0 0 C6.64615385 1.47692308 6.64615385 1.47692308 8.4375 4.125 C8.7159375 5.053125 8.7159375 5.053125 9 6 C9 5.01 9 4.02 9 3 C9.66 3 10.32 3 11 3 C10.6875 5.375 10.6875 5.375 10 8 C7 10 7 10 4 10 C3.67 10.99 3.34 11.98 3 13 C2.195625 13.12375 1.39125 13.2475 0.5625 13.375 C-0.283125 13.58125 -1.12875 13.7875 -2 14 C-2.33 14.66 -2.66 15.32 -3 16 C-3.99 16 -4.98 16 -6 16 C-6 15.34 -6 14.68 -6 14 C-5.34 14 -4.68 14 -4 14 C-4 13.34 -4 12.68 -4 12 C-2.47165147 10.76431395 -0.94234618 9.52972509 0.59765625 8.30859375 C2.34023014 6.68251505 2.82474344 5.36596356 3 3 C2.34 3 1.68 3 1 3 C0.67 2.01 0.34 1.02 0 0 Z " fill="#4BBF7B" transform="translate(411,410)"/>
<path d="M0 0 C0.66 0 1.32 0 2 0 C2.23509196 4.81938524 1.45184478 8.46298506 0 13 C-0.66 13 -1.32 13 -2 13 C-2 14.65 -2 16.3 -2 18 C-2.66 18 -3.32 18 -4 18 C-3.938125 18.825 -3.87625 19.65 -3.8125 20.5 C-4.04724662 24.88193696 -5.32618654 27.95495082 -7 32 C-7.66 32 -8.32 32 -9 32 C-9 30.35 -9 28.7 -9 27 C-8.34 27 -7.68 27 -7 27 C-7.04125 25.948125 -7.0825 24.89625 -7.125 23.8125 C-7.00574318 20.17516694 -6.45415073 18.25045456 -5 15 C-4.63128912 13.34080104 -4.28718326 11.6752357 -4 10 C-3.34 10 -2.68 10 -2 10 C-2.04125 9.278125 -2.0825 8.55625 -2.125 7.8125 C-1.99078695 4.79270631 -1.24829381 2.73064271 0 0 Z " fill="#5E5962" transform="translate(254,537)"/>
<path d="M0 0 C0.66 0 1.32 0 2 0 C2.18509703 3.05410102 1.91766935 5.28541291 1.0625 8.25 C-0.14270386 12.50366067 -0.62167332 16.60941933 -1 21 C-1.66 21 -2.32 21 -3 21 C-3 21.66 -3 22.32 -3 23 C-3.66 23 -4.32 23 -5 23 C-5 23.99 -5 24.98 -5 26 C-4.34 26.33 -3.68 26.66 -3 27 C-3.66 27 -4.32 27 -5 27 C-5.66 28.98 -6.32 30.96 -7 33 C-7.66 33 -8.32 33 -9 33 C-9 31.35 -9 29.7 -9 28 C-8.67 28 -8.34 28 -8 28 C-7.67 26.02 -7.34 24.04 -7 22 C-6.34 22 -5.68 22 -5 22 C-5.061875 21.195625 -5.12375 20.39125 -5.1875 19.5625 C-4.98594848 15.73302115 -4.08108352 12.83780462 -2.80078125 9.2578125 C-1.71900873 6.20774169 -0.86250318 3.11828071 0 0 Z " fill="#5D5768" transform="translate(244,326)"/>
<path d="M0 0 C0.99 0.33 1.98 0.66 3 1 C3 1.66 3 2.32 3 3 C3.66 3 4.32 3 5 3 C5 3.66 5 4.32 5 5 C5.66 5 6.32 5 7 5 C7 5.66 7 6.32 7 7 C7.99 7.33 8.98 7.66 10 8 C10 8.66 10 9.32 10 10 C10.66 10 11.32 10 12 10 C12 10.66 12 11.32 12 12 C12.66 12 13.32 12 14 12 C14 12.66 14 13.32 14 14 C14.66 14 15.32 14 16 14 C16 14.66 16 15.32 16 16 C16.66 16 17.32 16 18 16 C18 16.66 18 17.32 18 18 C18.66 18 19.32 18 20 18 C20 18.66 20 19.32 20 20 C20.99 20.33 21.98 20.66 23 21 C23 21.66 23 22.32 23 23 C23.66 23 24.32 23 25 23 C25 23.66 25 24.32 25 25 C25.66 25 26.32 25 27 25 C27 25.66 27 26.32 27 27 C27.66 27 28.32 27 29 27 C28.67 27.99 28.34 28.98 28 30 C25.95880212 28.38405168 23.95927063 26.7143618 22 25 C22 24.34 22 23.68 22 23 C21.34 23 20.68 23 20 23 C20 22.34 20 21.68 20 21 C19.34 21 18.68 21 18 21 C18 20.34 18 19.68 18 19 C17.34 19 16.68 19 16 19 C14.31267723 17.01739574 12.64633943 15.0167658 11 13 C10.34 12.67 9.68 12.34 9 12 C9 11.34 9 10.68 9 10 C8.34 10 7.68 10 7 10 C7 9.34 7 8.68 7 8 C6.34 8 5.68 8 5 8 C0 2.52380952 0 2.52380952 0 0 Z " fill="#8B9CE5" transform="translate(153,240)"/>
<path d="M0 0 C0.66 0 1.32 0 2 0 C2 1.98 2 3.96 2 6 C3.32 6 4.64 6 6 6 C6 5.34 6 4.68 6 4 C6.99 4 7.98 4 9 4 C9 3.01 9 2.02 9 1 C9.66 1 10.32 1 11 1 C10.47731534 3.76276177 9.89130413 6.3260876 9 9 C9.66 9 10.32 9 11 9 C11 9.66 11 10.32 11 11 C9.68 10.34 8.36 9.68 7 9 C7 8.34 7 7.68 7 7 C6.34 7 5.68 7 5 7 C4.67 7.66 4.34 8.32 4 9 C3.01 8.67 2.02 8.34 1 8 C-0.86540627 12.70406799 -2.36843005 16.94744036 -3 22 C-3.66 22 -4.32 22 -5 22 C-5.36659606 17.23425121 -4.37932115 13.67173924 -2.80078125 9.2578125 C-1.71900873 6.20774169 -0.86250318 3.11828071 0 0 Z " fill="#554B61" transform="translate(196,477)"/>
<path d="M0 0 C1.98 0 3.96 0 6 0 C6 0.66 6 1.32 6 2 C6.66 2 7.32 2 8 2 C8 2.66 8 3.32 8 4 C8.66 4 9.32 4 10 4 C10 4.99 10 5.98 10 7 C8.35 7.33 6.7 7.66 5 8 C5 7.34 5 6.68 5 6 C3.35 5.67 1.7 5.34 0 5 C0 6.65 0 8.3 0 10 C-0.66 10 -1.32 10 -2 10 C-2 10.99 -2 11.98 -2 13 C-2.66 13 -3.32 13 -4 13 C-3.71517632 11.58194169 -3.42181856 10.16559621 -3.125 8.75 C-2.96257812 7.96109375 -2.80015625 7.1721875 -2.6328125 6.359375 C-2.00849925 4.03168856 -1.15161458 2.10968048 0 0 Z " fill="#589769" transform="translate(366,230)"/>
<path d="M0 0 C0.66 0 1.32 0 2 0 C2.31327167 5.95216181 1.6774762 9.54588181 -1 15 C-2.99877667 19.38193346 -4.41563065 23.2081713 -5 28 C-5.66 28 -6.32 28 -7 28 C-7 28.99 -7 29.98 -7 31 C-7.66 31 -8.32 31 -9 31 C-9 29.35 -9 27.7 -9 26 C-8.34 26 -7.68 26 -7 26 C-7.04898438 25.29359375 -7.09796875 24.5871875 -7.1484375 23.859375 C-6.97401926 20.49952887 -6.02195409 18.3023043 -4.625 15.25 C-2.40491731 10.16833763 -0.99834996 5.44554526 0 0 Z " fill="#423551" transform="translate(233,361)"/>
<path d="M0 0 C0 0.66 0 1.32 0 2 C-0.66 2 -1.32 2 -2 2 C-2.33 3.32 -2.66 4.64 -3 6 C-3.66 6 -4.32 6 -5 6 C-5.04125 6.598125 -5.0825 7.19625 -5.125 7.8125 C-6.43756212 11.09390529 -8.87793407 11.49900676 -12 13 C-14.64587234 15.39585286 -14.64587234 15.39585286 -17 18 C-18.33333333 19.33333333 -19.66666667 20.66666667 -21 22 C-21.66 21.67 -22.32 21.34 -23 21 C-18 16 -18 16 -15.8125 13.875 C-13.82343774 11.92958282 -13.82343774 11.92958282 -12 9 C-11.01 8.67 -10.02 8.34 -9 8 C-9 7.34 -9 6.68 -9 6 C-8.34 6 -7.68 6 -7 6 C-7 5.34 -7 4.68 -7 4 C-6.34 4 -5.68 4 -5 4 C-4.67 3.01 -4.34 2.02 -4 1 C-2 0 -2 0 0 0 Z " fill="#6CC791" transform="translate(403,429)"/>
<path d="M0 0 C0.66 0 1.32 0 2 0 C3.65625 1.6796875 3.65625 1.6796875 5.5 3.875 C7.28933258 5.99035504 9.04019124 8.04019124 11 10 C10.625 12.125 10.625 12.125 10 14 C6.84037704 13.4255231 4.65266989 12.89791554 2.7109375 10.2265625 C0.77270378 6.47559221 0 4.32970417 0 0 Z " fill="#45AA6D" transform="translate(422,282)"/>
<path d="M0 0 C0.33 0.99 0.66 1.98 1 3 C-0.66666667 4.66666667 -2.33333333 6.33333333 -4 8 C-4.556875 8.598125 -5.11375 9.19625 -5.6875 9.8125 C-7 11 -7 11 -9 11 C-9 11.66 -9 12.32 -9 13 C-9.66 13 -10.32 13 -11 13 C-11 13.99 -11 14.98 -11 16 C-11.66 16 -12.32 16 -13 16 C-13 16.66 -13 17.32 -13 18 C-17.47058824 22 -17.47058824 22 -20 22 C-20 21.34 -20 20.68 -20 20 C-19.34 20 -18.68 20 -18 20 C-18 19.34 -18 18.68 -18 18 C-17.34 18 -16.68 18 -16 18 C-16 17.34 -16 16.68 -16 16 C-15.34 16 -14.68 16 -14 16 C-13.67 14.02 -13.34 12.04 -13 10 C-11.02 9.67 -9.04 9.34 -7 9 C-7 8.34 -7 7.68 -7 7 C-6.34 7 -5.68 7 -5 7 C-5 6.34 -5 5.68 -5 5 C-4.34 5 -3.68 5 -3 5 C-2.87625 4.360625 -2.7525 3.72125 -2.625 3.0625 C-2.315625 2.0415625 -2.315625 2.0415625 -2 1 C-1.34 0.67 -0.68 0.34 0 0 Z " fill="#67C894" transform="translate(420,547)"/>
<path d="M0 0 C0.66 0.33 1.32 0.66 2 1 C2 1.99 2 2.98 2 4 C1.34 4 0.68 4 0 4 C0 7.63 0 11.26 0 15 C-1.32 15.33 -2.64 15.66 -4 16 C-4 17.65 -4 19.3 -4 21 C-4.66 21 -5.32 21 -6 21 C-6 18.69 -6 16.38 -6 14 C-5.34 14 -4.68 14 -4 14 C-4 12.02 -4 10.04 -4 8 C-3.34 8 -2.68 8 -2 8 C-2 6.02 -2 4.04 -2 2 C-1.34 2 -0.68 2 0 2 C0 1.34 0 0.68 0 0 Z " fill="#529059" transform="translate(346,294)"/>
<path d="M0 0 C0.33 0.99 0.66 1.98 1 3 C0.01 3 -0.98 3 -2 3 C-1.67 4.65 -1.34 6.3 -1 8 C-0.34 8 0.32 8 1 8 C1 6.68 1 5.36 1 4 C1.66 4 2.32 4 3 4 C2.855625 4.70125 2.71125 5.4025 2.5625 6.125 C1.98521625 9.07556141 1.48304859 12.03270151 1 15 C0.34 15 -0.32 15 -1 15 C-1 17.31 -1 19.62 -1 22 C-1.66 22 -2.32 22 -3 22 C-3.33 23.32 -3.66 24.64 -4 26 C-4.21449236 21.49566044 -3.52698814 18.2216731 -2 14 C-1.63893903 12.33911955 -1.29537827 10.67381019 -1 9 C-1.66 9 -2.32 9 -3 9 C-3.33 9.99 -3.66 10.98 -4 12 C-3.9129995 10.37399059 -3.8048219 8.74910322 -3.6875 7.125 C-3.62949219 6.22007812 -3.57148438 5.31515625 -3.51171875 4.3828125 C-3 2 -3 2 0 0 Z " fill="#686470" transform="translate(329,295)"/>
<path d="M0 0 C0.33 0 0.66 0 1 0 C1 4.62 1 9.24 1 14 C-0.65 14.33 -2.3 14.66 -4 15 C-4 16.65 -4 18.3 -4 20 C-4.66 20 -5.32 20 -6 20 C-6.27368421 11.78947368 -6.27368421 11.78947368 -4 8 C-3.31039038 6.00779443 -2.63920943 4.00894394 -2 2 C-1.34 2 -0.68 2 0 2 C0 1.34 0 0.68 0 0 Z " fill="#534C5C" transform="translate(324,78)"/>
<path d="M0 0 C0.66 0.33 1.32 0.66 2 1 C1.01 5.29 0.02 9.58 -1 14 C-1.66 14 -2.32 14 -3 14 C-3 15.65 -3 17.3 -3 19 C-3.66 19 -4.32 19 -5 19 C-5 20.65 -5 22.3 -5 24 C-5.66 24 -6.32 24 -7 24 C-7 22.02 -7 20.04 -7 18 C-6.34 18 -5.68 18 -5 18 C-5 15.69 -5 13.38 -5 11 C-4.67 11 -4.34 11 -4 11 C-3.69255859 9.93458984 -3.69255859 9.93458984 -3.37890625 8.84765625 C-3.10949219 7.92855469 -2.84007812 7.00945312 -2.5625 6.0625 C-2.29566406 5.14597656 -2.02882812 4.22945313 -1.75390625 3.28515625 C-1 1 -1 1 0 0 Z " fill="#615665" transform="translate(205,452)"/>
<path d="M0 0 C0.66 0 1.32 0 2 0 C4.61046448 2.84777943 6.42676569 5.13066838 7 9 C7.66 9 8.32 9 9 9 C9 10.32 9 11.64 9 13 C7.68 13 6.36 13 5 13 C5 13.99 5 14.98 5 16 C4.01 16 3.02 16 2 16 C1.34 14.68 0.68 13.36 0 12 C1.32 12 2.64 12 4 12 C4.33 10.35 4.66 8.7 5 7 C4.34 7 3.68 7 3 7 C0.70351351 4.4385343 0 3.52032428 0 0 Z " fill="#63D59C" transform="translate(520,380)"/>
<path d="M0 0 C0 0.66 0 1.32 0 2 C-0.66 2 -1.32 2 -2 2 C-3.56272189 6.39253773 -3.56272189 6.39253773 -4 11 C-4.99 10.67 -5.98 10.34 -7 10 C-10.16266898 11.58133449 -12.63055987 13.38114512 -15 16 C-15.66 15.67 -16.32 15.34 -17 15 C-15.71937515 13.2925002 -14.38232443 11.62626404 -13 10 C-12.34 10 -11.68 10 -11 10 C-11 9.34 -11 8.68 -11 8 C-10.34 8 -9.68 8 -9 8 C-9 7.34 -9 6.68 -9 6 C-8.34 6 -7.68 6 -7 6 C-7 5.34 -7 4.68 -7 4 C-6.34 4 -5.68 4 -5 4 C-5 3.34 -5 2.68 -5 2 C-2 0 -2 0 0 0 Z " fill="#69BE88" transform="translate(355,477)"/>
<path d="M0 0 C4.39114298 3.93688681 6.81397889 7.68341709 7.29296875 13.6484375 C7.24076172 15.49308594 7.24076172 15.49308594 7.1875 17.375 C7.14689453 19.24285156 7.14689453 19.24285156 7.10546875 21.1484375 C7.07066406 22.08945313 7.03585937 23.03046875 7 24 C6.34 24 5.68 24 5 24 C4.94392578 22.96552734 4.94392578 22.96552734 4.88671875 21.91015625 C4.49117815 16.25625243 3.70569747 11.28774074 1.71875 5.97265625 C1.00044285 4.00121543 0.4751498 2.0422304 0 0 Z " fill="#524A59" transform="translate(389,72)"/>
<path d="M0 0 C0.66 0 1.32 0 2 0 C2 6.27 2 12.54 2 19 C1.67 19 1.34 19 1 19 C0.67 16.69 0.34 14.38 0 12 C-0.33 13.32 -0.66 14.64 -1 16 C-1.99 15.67 -2.98 15.34 -4 15 C-3.52229477 13.06213915 -3.04278429 11.12472326 -2.5625 9.1875 C-2.29566406 8.10855469 -2.02882812 7.02960938 -1.75390625 5.91796875 C-1.23922588 3.9259157 -0.65062825 1.95188476 0 0 Z " fill="#5D5867" transform="translate(220,402)"/>
<path d="" fill="currentColor" transform="translate(0,0)"/>
<path d="" fill="currentColor" transform="translate(0,0)"/>
<path d="" fill="currentColor" transform="translate(0,0)"/>
<path d="" fill="currentColor" transform="translate(0,0)"/>
<path d="" fill="currentColor" transform="translate(0,0)"/>
<path d="" fill="currentColor" transform="translate(0,0)"/>
<path d="" fill="currentColor" transform="translate(0,0)"/>
<path d="" fill="currentColor" transform="translate(0,0)"/>
<path d="" fill="currentColor" transform="translate(0,0)"/>
<path d="" fill="currentColor" transform="translate(0,0)"/>
<path d="" fill="currentColor" transform="translate(0,0)"/>
<path d="" fill="currentColor" transform="translate(0,0)"/>
<path d="" fill="currentColor" transform="translate(0,0)"/>
<path d="" fill="currentColor" transform="translate(0,0)"/>
<path d="" fill="currentColor" transform="translate(0,0)"/>
<path d="" fill="currentColor" transform="translate(0,0)"/>
<path d="" fill="currentColor" transform="translate(0,0)"/>
<path d="" fill="currentColor" transform="translate(0,0)"/>
<path d="" fill="currentColor" transform="translate(0,0)"/>
</svg>
